<?xml version="1.0" encoding="utf-8"?>
<!-- Generator: Adobe Adobe Illustrator 24.2.0, SVG Export Plug-In . SVG Version: 6.00 Build 0)  -->
<svg version="1.1" xmlns="http://www.w3.org/2000/svg" xmlns:xlink="http://www.w3.org/1999/xlink" x="0px" y="0px"
	 viewBox="0 0 298 273" style="enable-background:new 0 0 298 273;" xml:space="preserve">
<style type="text/css">
	.st0{fill:#636363;}
</style>
<g id="Layer_1">
	<path class="st0" d="M134.13,0.9c10.84,0,21.67,0,33.06,0.27c2.52,2.24,3.98,4.38,3.41,7.42c-0.3,1.62-0.34,3.29-0.47,4.95
		c-0.33,4.05,0.06,4.77,3.63,6.11c7.11,2.67,13.31,6.8,18.84,11.93c10.62,9.85,16.59,22.21,18.98,36.38
		c0.32,1.87,0.77,2.98,2.75,3.46c2.59,0.63,4.07,2.47,4.09,5.23c0.03,5.57,0.09,11.15-0.06,16.72c-0.1,3.82-1.77,5.46-5.57,5.69
		c-2.69,0.17-5.4,0.09-8.1,0.05c-2.09-0.03-2.98,0.91-2.94,3.01c0.06,3.31,0.01,6.63-0.03,9.94c-0.16,12.87-4.75,23.64-14.71,32.03
		c-2.06,1.74-5.49,2.47-6.14,4.96c-0.67,2.56,1.36,5.35,1.7,8.2c0.38,3.13,1.27,3.66,4.55,3.72c3.9,0.07,7.82-0.13,11.71,0.08
		c6.51,0.35,12.7,1.93,18.28,5.5c3.46,2.21,4.55,1.68,5.58-2.29c1.21-4.64,2.53-9.24,3.76-13.87c1.58-5.94,3.36-11.84,4.63-17.85
		c1.46-6.9,3.79-13.55,5.31-20.44c1.51-6.86,3.96-13.51,5.56-20.35c1.87-8.01,3.49-9.27,11.41-7.5c0.44,0.1,0.86,0.26,1.29,0.39
		c7.43,2.2,14.9,4.24,22.48,5.88c6.97,1.51,8.61,4.55,6.52,11.39c-1.92,6.29-3.66,12.64-5.23,19.02c-0.53,2.15-1.16,4.37-0.91,6.68
		c1.25,11.78-1.75,22.95-4.9,34.11c-1.75,6.19-3.51,12.39-4.96,18.65c-1.52,6.58-3.38,13.07-5.08,19.59
		c-2.11,8.12-4.28,16.23-6.56,24.31c-0.61,2.15,0.18,2.77,2.03,2.9c0.9,0.06,1.8,0.04,2.7,0.08c4.23,0.18,6,1.76,6.43,5.9
		c0.14,1.34,0.08,2.71,0.04,4.06c-0.34,10.02,0.02,8.53,8.38,8.43c3.76-0.05,7.55-0.45,10.81,2.07c0,1.55,0,3.1-0.29,5.19
		c-2.36,2.54-4.97,2.24-7.51,2.24c-85.56-0.01-171.12-0.03-256.67-0.05c-1.35,0-2.72,0.02-4.04-0.21c-2.21-0.39-3.32-1.85-3.44-4.1
		c-0.16-2.86,0.97-4.49,4.1-4.8c3.57-0.36,7.19-0.29,10.78-0.29c3.41,0,3.94-0.35,4.11-3.72c0.13-2.55,0.03-5.12,0.06-7.68
		c0.08-5.25,1.86-7.04,7.06-7.06c7.05-0.02,14.11,0.01,21.16-0.01c5.06-0.01,5.01-0.03,5.09-4.91c0.16-9.48-0.46-18.97,0.39-28.44
		c0.39-4.37,0.17-4.49-4.31-4.47c-13.06,0.06-26.12,0.11-39.18,0.08c-6.21-0.02-7.58-1.51-7.62-7.77c0-0.3,0-0.6,0-0.9
		c0.01-47.59,0.02-95.18,0.03-142.77c0-3.46-0.05-6.93,0.05-10.39c0.09-3.24,1.71-4.94,4.92-5.25c1.64-0.16,3.3-0.13,4.95-0.14
		c33.32-0.08,66.64-0.16,99.97-0.24c1.35,0,2.7-0.04,4.05-0.1c1.86-0.07,2.69-0.95,2.38-2.91c-0.38-2.38-0.54-4.79-0.95-7.16
		C130.8,7.79,131.31,4.08,134.13,0.9z M117.47,179.73c3.9-0.02,7.81,0.02,11.71-0.07c3.54-0.08,3.74-0.34,3.9-3.93
		c0.03-0.6,0.01-1.2,0.01-1.81c0-45.63,0-91.26,0-136.89c0-4.46-0.15-4.59-4.47-4.71c-0.9-0.02-1.8-0.01-2.7-0.01
		c-31.52-0.02-63.04-0.04-94.56-0.06c-5.11,0-5.37,0.26-5.37,5.3c0,35.83-0.01,71.67-0.01,107.5c0,9.94,0.02,19.87,0.05,29.81
		c0.01,4.32,0.54,4.82,4.99,4.92c0.45,0.01,0.9-0.01,1.35-0.01C60.43,179.76,88.5,179.74,117.47,179.73z M225.42,211.08
		c0.02-3.16,0.12-6.33,0.03-9.49c-0.1-3.6,0.27-7.39-0.97-10.74c-4.27-11.51-12.24-18.66-24.87-19.51
		c-5.08-0.34-10.2-0.21-15.29-0.39c-2.35-0.08-4.31,0.61-6.29,1.91c-7.62,4.99-15.39,9.76-23.03,14.73
		c-2.43,1.58-4.72,1.6-7.17,0.28c-1.05-0.57-2.11-1.13-3.16-1.69c-1.06-0.57-2.06-0.58-2.68,0.61c-1.47,2.83-4.18,2.65-6.68,2.66
		c-16.81,0.03-33.62,0.03-50.43-0.05c-7.07-0.04-7.6,0.34-8.35,7.63c-0.08,0.75-0.17,1.5-0.17,2.25
		c-0.01,8.13,0.09,16.26-0.04,24.39c-0.04,2.56,0.91,3.59,3.35,3.57c3.75-0.03,7.5,0.04,11.25,0c4.14-0.05,4.24-0.21,4.24-4.36
		c0-3.91,0.02-7.83,0.07-11.74c0.03-2.6,1.55-4.2,3.83-5.01c2.01-0.71,4.15,0.55,5.55,2.87c0.83,1.37,0.82,2.87,0.81,4.37
		c-0.01,3.61,0.01,7.23-0.1,10.84c-0.07,2.14,0.87,3.04,2.92,3.02c3.45-0.03,6.9-0.03,10.35-0.03c24.61,0.01,49.23,0.03,73.84,0.01
		c4.77,0,4.74-0.09,4.72-4.78c-0.02-3.91-0.05-7.83,0.13-11.74c0.1-2.25,2.21-4.38,4.23-4.63c2.45-0.3,3.91,1.11,5,3.09
		c0.76,1.38,0.72,2.9,0.73,4.4c0.02,3.46,0.12,6.93,0.02,10.39c-0.07,2.36,1.04,3.29,3.23,3.28c4.05-0.01,8.1-0.01,12.16-0.01
		c2.01,0,2.97-0.8,2.88-3.01C225.35,220.12,225.44,216.05,225.42,211.08z M241.77,131c-1.48,5.62-2.92,11.24-4.45,16.84
		c-2.52,9.21-5.1,18.4-7.68,27.59c-0.43,1.54-0.28,2.86,0.56,4.28c3.63,6.2,5.41,12.86,5.17,20.14c-0.23,7.06-0.02,14.14,0.02,21.21
		c0.04,6.25,1.29,7.23,7.42,6.12c1.69-0.3,2.94-1.12,3.05-2.79c0.22-3.22,1.7-6.06,2.42-9.12c1.55-6.54,3.23-13.05,4.95-19.55
		c1.92-7.22,3.96-14.41,5.91-21.62c1.6-5.91,2.87-11.93,4.77-17.74c3.08-9.43,4.35-19.01,3.4-28.85c-0.49-5.1-1.71-10.14-4.79-14.34
		c-3.02-4.11-6.41-7.94-9.71-11.83c-1.39-1.64-2.38-1.45-3.3,0.49c-0.38,0.81-0.68,1.68-0.91,2.55
		C246.32,113.04,244.06,121.71,241.77,131z M189.74,123.96c2.81-6.73,2.31-13.84,2.27-20.88c-0.02-3.39-0.57-3.98-3.96-4.01
		c-13.95-0.12-27.9-0.14-41.85-0.13c-2.76,0-3.41,0.68-3.43,3.5c-0.05,6.32,0.03,12.64,0.08,18.96c0.04,5.28,0.21,5.43,5.68,5.38
		c3.3-0.03,6.6-0.17,9.9-0.03c2.33,0.1,4.28,2.08,4.64,4.21c0.41,2.45-0.86,4.04-2.78,5.18c-1.75,1.05-3.72,0.96-5.69,0.86
		c-2.99-0.15-6-0.37-8.98-0.21c-2.23,0.12-3.08,1.71-2.99,4.22c0.07,1.98,1.27,2.7,2.93,2.63c8.18-0.35,16.37,0.96,24.52-1.7
		C179.26,138.95,185.55,133.27,189.74,123.96z M57.09,237.34c-3.3,0.04-6.6,0.03-9.9,0.12c-3.29,0.09-3.6,0.44-3.58,3.63
		c0.02,3.95,0.4,4.35,4.31,4.49c1.2,0.04,2.4,0.1,3.6,0.1c64.69-0.01,129.37-0.02,194.06-0.03c2.7,0,5.4-0.02,8.1,0.05
		c1.3,0.03,2.37-0.21,2.98-1.5c1.84-3.89,0.13-6.71-4.16-6.8c-1.35-0.03-2.7-0.04-4.05-0.04
		C184.96,237.35,121.48,237.34,57.09,237.34z M194.78,49.97c-5.43-8.96-12.8-15.77-22.31-20.21c-2.48-1.16-2.91-1.04-3.14,1.44
		c-0.68,7.33-1.84,14.62-1.93,22.01c-0.08,6.48-1.53,7.81-8.16,7.8c-4.2,0-8.4-0.19-12.6-0.15c-3.12,0.03-3.56,0.55-3.83,3.69
		c-0.06,0.75-0.05,1.5-0.07,2.26c-0.13,4.05,0.14,4.45,4.17,4.46c16.95,0.02,33.9,0,50.85-0.07c3.78-0.01,4.3-0.64,3.39-4.3
		C199.74,61.24,198.11,55.63,194.78,49.97z M159.12,25.73c0.41-3.74,0.77-7.49,1.27-11.22c0.28-2.12-0.51-3.08-2.6-3.22
		c-4.35-0.29-8.69-0.17-13.04-0.04c-2.4,0.08-3,1.28-2.81,3.52c0.94,10.79,2.07,21.57,2.37,32.41c0.09,3.23,0.62,3.58,3.77,3.76
		c1.95,0.12,3.9,0.13,5.85,0.08c2.96-0.08,3.48-0.6,3.9-3.72C158.74,40.44,158.9,33.51,159.12,25.73z M145.34,174.59
		c0.75,0.49,1.56,0.91,2.23,1.49c2.4,2.08,4.56,1.93,7.17,0.05c3.75-2.71,7.81-4.98,11.73-7.45c8.01-5.04,7.97-5.04,5.36-14.04
		c-0.46-1.6-1.28-2.4-2.86-2.08c-7.57,1.52-15.21,0.99-22.84,0.86c-2.4-0.04-3.56,1.12-3.51,3.59c0.09,4.65,0.12,9.31,0.1,13.96
		C142.72,172.59,143.71,173.4,145.34,174.59z M157.11,81.15c-3.44-0.04-6.89-0.16-10.33-0.11c-3.25,0.05-3.96,0.83-4.05,4
		c-0.08,3.01,0.79,4.09,3.89,4.21c3.29,0.12,6.58-0.03,9.88-0.06c15.87-0.11,31.74,0.3,47.6-0.24c3.65-0.12,4.15-0.72,4.03-4.23
		c-0.1-3.09-0.68-3.56-4.77-3.56C188.25,81.14,173.13,81.15,157.11,81.15z M271.74,106.41c0.36-0.97,0.76-1.92,1.06-2.91
		c0.82-2.63,0.38-3.66-2.15-4.3c-2.09-0.52-4.27-0.73-7.18-1.21c1.94,4.15,4.3,6.93,7.44,9.08
		C270.98,107.11,271.17,106.95,271.74,106.41z"/>
	<path class="st0" d="M52.56,273.9c-0.9-0.74-1.47-1.44-1.87-2.22c-2.1-4.08-0.13-7.72,4.43-7.97c3.89-0.21,7.8-0.19,11.7-0.19
		c58.49,0.01,116.99,0.04,175.48,0.07c0.6,0,1.2,0.04,1.8,0.03c2.49-0.05,4.97,0.17,6.2,2.71c1.25,2.61,0.42,4.98-1.65,7.27
		C183.36,273.9,118.17,273.9,52.56,273.9z"/>
	<path class="st0" d="M92.69,40.71c5.84,0.02,11.23-0.02,16.62,0.06c2.19,0.03,4.18,0.59,4.89,3.11c0.94,3.31-0.4,5.63-3.79,6.3
		c-1.16,0.23-2.38,0.26-3.57,0.26c-18.27,0-36.54-0.01-54.8-0.04c-1.49,0-3.01-0.06-4.45-0.4c-2.31-0.54-3.7-2.4-3.61-4.52
		c0.1-2.22,1.4-3.57,3.39-4.3c1.43-0.53,2.95-0.44,4.45-0.44C65.28,40.73,78.76,40.71,92.69,40.71z"/>
	<path class="st0" d="M94.49,111.44c-5.24,0-10.03,0.01-14.82,0.01c-1.05,0-2.1,0.04-3.14-0.09c-2.22-0.26-3.37-1.89-4.11-3.73
		c-0.79-1.99,0.5-3.45,1.8-4.72c1.51-1.48,3.46-1.57,5.45-1.56c13.47,0.03,26.94,0.02,40.4,0.04c1.04,0,2.13-0.03,3.12,0.25
		c2.62,0.73,4.03,2.81,3.83,5.35c-0.19,2.38-2.1,4.3-4.7,4.59c-1.03,0.12-2.09,0.03-3.14,0.02
		C111.1,111.55,103.02,111.5,94.49,111.44z"/>
	<path class="st0" d="M75.38,147.92c-2.05-1.59-3.96-3.05-2.91-5.73c1-2.53,3.17-3.59,5.68-3.75c2.84-0.19,5.7-0.11,8.55-0.11
		c10.8,0,21.6,0.01,32.41,0.03c1.8,0,3.57,0.01,5.28,0.82c2.07,0.99,2.79,2.6,2.6,4.76c-0.2,2.23-1.52,3.52-3.57,4.12
		c-0.56,0.17-1.19,0.18-1.78,0.18C106.34,148.17,91.04,148.09,75.38,147.92z"/>
	<path class="st0" d="M117.88,64.83c1.79-0.01,3.14-0.09,4.49,0c2.66,0.18,4.27,1.63,4.61,4.02c0.39,2.74-0.74,4.58-3.54,5.39
		c-1.13,0.32-2.36,0.35-3.55,0.34c-13.33-0.09-26.67-0.21-40-0.34c-1.34-0.01-2.72-0.02-4.01-0.33c-2.01-0.47-3.81-2.85-3.72-4.57
		c0.1-1.78,2.44-4.25,4.37-4.47c1.19-0.13,2.39-0.08,3.59-0.08C92.56,64.8,105,64.81,117.88,64.83z"/>
	<path class="st0" d="M33.04,147.2c2.87-2.24,5.16-1.6,7.43,0.53c2.91,2.72,2.97,2.66,5.85-0.24c3.49-3.51,6.89-7.12,10.5-10.5
		c2.37-2.22,4.11-2.1,6.32-0.16c2.61,2.28,2.96,4.32,0.52,6.92c-5.45,5.78-11.04,11.43-16.75,16.96c-2.64,2.55-4.29,2.47-7.09,0.17
		c-2.55-2.09-4.85-4.46-6.96-7.01C31.07,151.68,30.82,149.61,33.04,147.2z"/>
	<path class="st0" d="M39.01,72.74c0.86,0.65,1.54,1.04,2.02,1.6c1.72,2.04,3.2,1.56,4.86-0.16c3.44-3.56,6.92-7.08,10.51-10.49
		c2.74-2.6,4.81-2.65,7.05-0.5c2.21,2.12,2.51,3.96,0.37,6.22C58.27,75.3,52.6,81.08,46.83,86.76c-2.26,2.23-4.97,2.22-7.23,0.14
		c-2.42-2.23-4.72-4.63-6.82-7.16c-2.01-2.42-1.91-3.95-0.17-6.01C34.6,71.35,35.62,71.16,39.01,72.74z"/>
	<path class="st0" d="M60.29,110.32c-4.24,4.26-8.19,8.36-12.26,12.34c-3.61,3.53-6.01,3.49-9.56-0.01c-2.02-2-4.06-4-5.87-6.19
		c-1.86-2.25-1.67-3.85,0.25-5.95c1.97-2.15,3.89-2.35,6.34-0.73c1.44,0.95,2.25,3.2,4.32,2.77c1.98-0.41,3.02-2.36,4.42-3.69
		c2.92-2.79,5.7-5.74,8.68-8.47c2.12-1.95,4.61-2.02,6.5-0.52c2.39,1.89,2.69,4.14,0.74,6.6C62.85,107.76,61.64,108.9,60.29,110.32z
		"/>
	<path class="st0" d="M79.32,152.47c8.97,0.04,17.51,0.06,26.06,0.13c1.47,0.01,3-0.21,4.3,0.87c1.58,1.31,2.81,2.77,2.31,5
		c-0.52,2.32-2.32,3.42-4.35,4.09c-0.96,0.32-2.08,0.18-3.13,0.18c-8.1,0-16.19-0.01-24.29-0.05c-1.19-0.01-2.43,0-3.57-0.29
		c-2.39-0.6-4.48-3.19-4.37-5.15c0.11-1.82,2.11-3.98,4.39-4.6C77.38,152.47,78.15,152.52,79.32,152.47z"/>
	<path class="st0" d="M107.48,115.87c1.79,0.26,2.86,1.05,3.7,2.16c1.5,1.99,1.2,4.42-0.76,5.97c-1.34,1.06-2.94,1.46-4.62,1.46
		c-9.12-0.03-18.24-0.06-27.36-0.14c-1.02-0.01-2.07-0.27-3.06-0.57c-2.15-0.65-3.18-2.5-3.1-4.44c0.08-1.96,1.34-3.65,3.46-4.22
		c0.85-0.23,1.77-0.29,2.66-0.29C87.96,115.79,97.53,115.82,107.48,115.87z"/>
	<path class="st0" d="M111.82,82.52c-0.49,4.63-1.55,5.82-5.41,5.85c-9.44,0.07-18.89,0.01-28.33-0.02c-0.89,0-1.83-0.05-2.66-0.33
		c-1.9-0.62-2.98-2.25-3.13-4.04c-0.15-1.85,0.96-3.44,2.72-4.27c1.36-0.65,2.83-0.88,4.37-0.88c8.69,0.02,17.39-0.01,26.08-0.04
		C108.16,78.78,110.52,79.37,111.82,82.52z"/>
</g>
</svg>
