<?xml version="1.0" encoding="utf-8"?>
<!-- Generator: Adobe Adobe Illustrator 24.2.0, SVG Export Plug-In . SVG Version: 6.00 Build 0)  -->
<svg version="1.1" id="Layer_1" xmlns="http://www.w3.org/2000/svg" xmlns:xlink="http://www.w3.org/1999/xlink" x="0px" y="0px"
	 viewBox="0 0 295 273" style="enable-background:new 0 0 295 273;" xml:space="preserve">
<style>
	.st0{fill:#636363;}
</style>
<path class="st0" d="M142.72,270c-19.1-10.54-37.36-21.3-55.9-31.56c-23.7-13.13-47.57-25.95-71.46-38.72
	c-9.99-5.34-12.88-13-7.07-20.17c3.28-4.06,12.2-4.76,18.26-1.44c35.5,19.47,70.99,38.95,106.5,58.39
	c4.13,2.26,8.21,4.96,12.67,6.17c2.87,0.79,6.84,0.08,9.55-1.38c34.51-18.66,68.84-37.64,103.3-56.39
	c5.9-3.21,11.94-6.48,18.33-8.36c5.06-1.49,10.23,0.23,11.81,6.42c1.63,6.39,0.81,12.15-5.63,15.7
	c-42.59,23.47-85.2,46.91-128.06,70.84C150.98,270,147.2,270,142.72,270z"/>
<path class="st0" d="M6.39,82.53c5.67-4.5,10.72-9.09,16.54-12.31C60.17,49.59,97.61,29.31,134.91,8.79
	c8.28-4.55,15.72-4.93,24.43-0.04c33.21,18.63,66.8,36.59,100.24,54.81c7.82,4.26,15.74,8.34,23.44,12.82
	c8.05,4.69,8.47,16.67,0.21,21.46c-18.41,10.67-37.31,20.49-55.88,30.88c-22.27,12.47-44.69,24.71-66.47,38
	c-9.28,5.66-16.98,4.33-25.38-0.43c-20.13-11.42-40.23-22.92-60.46-34.16C54.6,120.75,33.97,109.73,13.5,98.42
	C7.57,95.14,3.15,90.79,6.39,82.53z"/>
<path class="st0" d="M241.77,143.92c10.23-6.11,19.75-12.35,29.86-17.42c5.3-2.66,11.46-2.46,15.66,3.3
	c3.39,4.65,2.4,13.8-2.67,17.1c-9.68,6.3-19.64,12.2-29.76,17.77c-31.8,17.52-63.72,34.82-95.6,52.19
	c-7.29,3.97-14.79,3.78-21.89-0.12c-27.87-15.32-55.63-30.86-83.43-46.31c-13.74-7.63-27.69-14.9-41.16-22.99
	c-9.22-5.54-10.84-13.99-3.24-19.04c4.02-2.67,12.21-3,16.53-0.68c35.47,19.03,70.69,38.57,105.5,58.77
	c11.99,6.96,21.3,7.98,33.96,0C189.95,171.1,215.95,158.21,241.77,143.92z"/>
</svg>
