<?xml version="1.0" encoding="utf-8"?>
<!-- Generator: Adobe Adobe Illustrator 24.2.0, SVG Export Plug-In . SVG Version: 6.00 Build 0)  -->
<svg version="1.1" id="Layer_1" xmlns="http://www.w3.org/2000/svg" xmlns:xlink="http://www.w3.org/1999/xlink" x="0px" y="0px"
	 viewBox="0 0 298 273" style="enable-background:new 0 0 298 273;" xml:space="preserve">
<style type="text/css">
	.st0{fill:#636363;}
</style>
<path class="st0" d="M118.68,272.16c0,0,9.9,2.96,9.9-0.7c0-3.19-0.05-9.26-0.05-11.95h40.94c0,4.3,0,8.66,0.23,13.26
	c2.5,0.23,4.78,0.23,7.05,0.23v-13.48c1.9-0.62,2.17,1.15,3.18,1.54c0.94,0.36,2.07-0.23,3.19,0.44c0,2.49-0.04,5.06,0.01,7.62
	c0.05,2.53,0.61,3,3.29,2.96c2.5-0.03,3.01-0.56,3.06-3.2c0.02-1.22,0-2.43,0-3.65c0-1.45,0.87-2.09,2.17-2.26
	c0.45-0.06,0.91-0.01,1.36-0.01h2.79v7.81c0.42,0.18,0.67,0.4,0.93,0.4c4.56-0.02,4.56-0.02,4.57-4.41c0.01-1.8,0-3.6,0-5.55h5.72
	c0.77-0.46,0.62-0.95,0.66-1.51c1.17-0.76,2.55-0.33,3.84-0.36c3.03-0.07,6.06-0.01,9.1-0.03c1.2-0.01,2.18,0.14,3.24,1.05
	c1.7,1.46,4.05,1.41,5.7,0.1c1.23-0.97,2.32-1.15,3.66-1.15c3.78,0,7.57,0,11.31,0c0.69,0.69,1.33,1.33,2.27,2.28
	c0,2.39-0.04,5.09,0.01,7.79c0.04,2.12,0.74,2.69,3.09,2.71c2.42,0.02,3.18-0.53,3.25-2.54c0.07-2.1,0.02-4.21,0.02-6.45h6.28v7.67
	c0.44,0.27,0.56,0.4,0.69,0.4c4.74,0.12,4.85,0.02,4.86-4.59c0-2.28,0-4.56,0-6.99c3.92-1.31,7.74,1.85,11.64,0.37
	c0.21-0.52,0.43-1.04,0.87-1.79c0.23-2.21,0.23-4.18,0-6.16c-1.14-1.38-0.65-2.92-0.66-4.37c-0.05-10.93-0.02-21.85-0.02-33.03
	c-3.23-0.05-6.19,0.23-9.25,0.76c-4.38,0.76-4.44,0.39-4.4,4.71c0.01,0.61-0.07,1.23,0.02,1.82c0.14,0.97,0.83,1.56,1.71,1.79
	c0.57,0.15,1.21-0.01,1.81,0.03c2.21,0.16,2.81,0.73,2.82,2.98c0.03,7.13,0.01,14.25,0.01,21.7h-4.39
	c-0.65,3.53-0.68,3.57-3.54,3.62c-1.52,0.03-3.03-0.05-4.55,0.02c-4.32,0.19-4.91-0.08-4.85-4.65c0.13-9.28,0.04-18.55,0.04-27.83
	c0-0.91,0.04-1.83-0.01-2.74c-0.07-1.21-1.07-2.16-2.28-2.22c-0.88-0.04-1.77,0.02-2.65-0.01c-1.47-0.04-2.12,0.85-2.31,2.12
	c-0.13,0.89-0.02,1.82-0.02,2.73v27.83c0,0.91,0.05,1.83-0.01,2.74c-0.08,1.19-0.79,1.98-1.96,1.99c-4.19,0.06-8.38,0.02-12.58,0.02
	v-32.81c0-0.91,0.04-1.83-0.01-2.74c-0.06-1.02-0.81-1.69-1.65-1.83c-1.18-0.21-2.42-0.11-3.63-0.04c-1.05,0.06-1.89,0.9-1.97,1.95
	c-0.07,0.92-0.02,1.84-0.02,2.76v27.83c0,0.91,0.1,1.84-0.02,2.73c-0.17,1.28-0.83,2.15-2.29,2.14c-4.05-0.02-8.1-0.01-11.74-0.01
	c-1.81-4.84-1.4-9.47-1.41-14.06c-0.01-5.17,0-10.34,0-15.51c0-0.91-0.39-2.19,0.07-2.67c1.87-1.98,0.21-3.45-0.47-5.19h-2.19
	c-0.3,0-0.61-0.01-0.91,0c-2.22,0.1-2.81,0.67-2.86,2.94c-0.05,2.13-0.01,4.26-0.01,6.39c0,8.21,0.02,16.43-0.01,24.64
	c-0.01,3.02-0.41,3.43-3.25,3.46c-3.03,0.03-6.06,0.04-9.09,0c-2.55-0.03-3.09-0.57-3.11-3.14c-0.03-6.54-0.01-13.08-0.01-19.62
	c0-3.95,0.03-7.91-0.01-11.86c-0.02-1.98-0.71-2.7-2.54-2.79c-1.06-0.05-2.19-0.24-3.16,0.06c-0.81,0.25-1.44,1.11-2.11,1.66
	c-0.43-0.43-0.78-0.61-0.83-0.86c-0.98-4.32-0.12-8.71-0.5-13.12c1-0.9,2.01-1.79,2.61-2.33v-5.42c-0.91-0.07-1.63-0.13-2.43-0.2
	v-15.98c4.03-0.97,2.17-4.13,2.65-6.28c-0.94-0.9-2.06,0.05-2.62-0.74v-19.51c0.86-0.67,1.96,0.2,2.6-0.75
	c-0.2-2.47,1.13-5.59-2.52-6.3v-15.94c0.9-0.33,1.71,0.23,2.55-0.58c-0.16-1.87,0.22-3.93-0.22-5.87c-0.98-0.23-1.79,0.26-2.44-0.42
	v-16.64c0.78-0.82,1.92,0.17,2.66-0.87c-0.36-2.3,1.23-5.49-2.58-6.22V81.38c0.89-0.1,1.61-0.19,2.35-0.27v-6.1
	c-0.89-0.35-1.7,0.2-2.3-0.36V57.58c0.93-0.23,1.73,0.26,2.42-0.42V51.5c-0.77-0.86-1.91,0.16-2.53-0.69V32.28
	c0.82-0.75,1.94,0.18,2.48-0.6v-5.84c-0.87-0.64-1.97,0.21-2.59-0.75c0-8.37,0-16.73-0.23-25.1h-7.05c0,7.46,0.02,14.91-0.01,22.37
	c-0.01,2.61-0.54,3.18-3.06,3.19c-7.28,0.03-14.56,0.01-21.88,0.01c-1.07-2.44-2.57-4.22-5.65-3.67c-1.84,0.33-3.71-0.33-5.61,0.81
	c-1.1,0.66-2.92,0.12-4.74,0.12c0-7.54,0-14.96-0.23-22.6c-3.41-0.23-6.6-0.23-9.78,0c0,6.92-0.01,13.62,0.01,20.32
	c0,1.07-0.17,1.89-0.91,2.84c-1.82,2.33-1.5,5.36-0.3,7.53c0.88,1.59,1.18,2.94,1.19,4.55c0.02,3.04,0.02,6.09,0,9.13
	c-0.01,1.76,0.45,3.68-1.5,4.85c-0.51,0.3-0.3,0.81-0.31,1.24c-0.02,2.24-0.01,4.48-0.01,6.59c0.93,0.35,1.85,0.06,1.84,1.25
	c-0.04,3.96-0.01,7.91-0.02,11.87c0,0.45,0.14,1.15-0.09,1.31c-2.88,2-1.39,4.97-1.71,7.53c-0.08,0.7-0.31,1.57,0.48,2.07
	c2.33,1.47,0.67,4.17,1.71,6.1c0.35,0.65,0.43,1.42,0.06,2.06c-1.34,2.31,0.96,5.62-1.99,7.58c-0.25,0.17-0.26,0.81-0.26,1.23
	c-0.02,2.23-0.01,4.47-0.01,6.64c0.94,0.13,1.7-0.03,1.79,0.75c0.11,0.9,0.14,1.84,0.01,2.73c-0.65,4.31,1.68,9.03-1.79,12.95
	c-0.08,0.08-0.03,0.3-0.01,0.45c0.39,2.4-1.12,5.21,1.52,7.13c0.47,0.34,0.29,0.82,0.29,1.25c0.01,4.37,0.01,8.74,0.01,12.92
	c-1.9,0.96-1.9,0.96-1.75,7.92c0.3,0.97,1.2,0.25,1.75,1.2c0,3.28,0.14,6.91-0.05,10.53c-0.13,2.56,1.21,5.53-1.67,7.52
	c-0.15,0.11-0.13,0.57-0.09,0.85c0.37,2.4-1.11,5.2,1.51,7.13c0.6,0.44,0.27,1.13,0.28,1.7c0.04,2.28,0.09,4.57-0.01,6.85
	c-0.09,2.15,0.83,4.59-1.58,6.22c-0.31,0.21-0.25,1.12-0.2,1.7c0.18,2.29-0.84,4.87,1.68,6.65c0.37,0.26,0.12,1.43,0.12,2.18
	c0.01,3.2,0.06,6.39-0.03,9.59c-0.02,0.78,0.65,1.86-0.77,2.47c-1.8-1.5-4.01-0.98-6.47-0.94v4.1c0,10.04,0.01,20.09-0.01,30.13
	c-0.01,2.57-0.56,3.11-3.11,3.14c-3.49,0.04-6.98,0.04-10.46,0c-1.98-0.02-2.69-0.71-2.78-2.55c-0.05-1.06-0.01-2.13-0.01-3.19
	v-31.48H88.5v5.19c0,9.59,0.01,19.17-0.01,28.76c-0.01,2.72-0.48,3.25-2.97,3.28c-3.77,0.05-7.54,0.01-11.12,0.01
	c-0.71-0.67-0.45-1.31-0.45-1.88c-0.02-9.89-0.01-19.78-0.01-29.67c0-1.22,0.04-2.44-0.01-3.65c-0.06-1.38-0.84-2.12-2.21-2.22
	c-0.45-0.03-0.91,0-1.36-0.01c-3.41-0.01-3.67,0.2-3.69,3.48c-0.03,5.48-0.01,10.96-0.01,16.43c0,4.87-0.01,9.74-0.01,14.61
	c0,3.36,0.45,2.92-2.88,2.9c-3.19,0-6.38,0.05-9.57,0c-2.5-0.04-3-0.57-3-3.25c-0.02-8.67-0.01-17.35-0.01-26.02
	c0-1.98-0.07-3.96,0.03-5.93c0.04-0.93-0.44-1.56-1.05-1.82c-1.67-0.72-3.5-0.68-5.16-0.06c-1.38,0.51-1.1,1.96-1.1,3.15
	c0,8.98-0.02,17.96,0.01,26.93c0.02,8.03,0.73,6.95-7.46,7.01c-0.3,0-0.65,0.1-0.9-0.02c-0.8-0.38-1.57-0.86-1.64-1.88
	c-0.04-0.61,0.03-1.22-0.01-1.82c-0.15-1.98-0.61-2.42-2.68-2.68c-0.57-0.07-1.21,0.27-1.78-0.37V223.7c1.24,0,2.42,0.01,3.59,0
	c0.9-0.01,1.4-0.78,1.68-1.34c0.73-1.48,1.07-4.3-1.4-5.28c-1.6-0.63-3.78,0.43-3.74-0.93c-0.71-3.37-0.71-3.37-3.9-3.4
	c-1.06-0.01-2.61,0-3.65,0c-2.02,1.62-1.92,3.41-0.98,4.88c1.06,1.65,0.74,2.67,0.74,4.22c0,6.38-0.11,28.98-0.11,32.9
	c-2.02,1.53-1.71,3.57-0.2,4.56l15.36,0.25c-0.72,1.82-0.06,2.54-0.2,4.26c-0.12,1.48-0.1,2.96-0.01,4.44
	c0.04,0.55-0.05,1.12,0.02,1.67c0.17,1.31,0.81,2.17,2.25,2.18c0.61,0,1.21-0.01,1.82,0c1.46,0.02,2.19-0.87,2.25-2.16
	c0.11-2.25,0.03-4.5,0.03-6.97c1.26,0,2.29,0.01,3.33,0.01c4.39,0,3.24,3.75,3.24,8.71c0.61,0,1.47,0.02,2.07,0
	c2.63-0.1,3.17,0.59,3.17-3.58c0-2.86,0.01-5.72,0.01-8.78c3.55,0,6.86,0.02,10.16-0.01c0.79-0.01,1.35,0.21,1.99,0.74
	c2.24,1.87,4.62,1.77,6.74-0.13c0.85-0.76,1.66-0.57,2.5-0.58c3.34-0.04,6.67,0,10.01-0.03c1.07-0.01,1.91,0.14,2.83,0.93
	c1.73,1.48,3.64,1.29,5.51-0.2c0.6-0.48,1.06-1.07,2.11-0.34c0,3.16-0.04,6.48,0.02,9.8c0.03,1.9,0.78,2.54,2.74,2.6
	c0.45,0.01,0.91,0.01,1.36,0c1.42-0.04,2.18-0.86,2.23-2.19c0.08-2.25,0.02-4.5,0.02-6.94c1.44,0,2.63-0.05,3.82,0.01
	c1.84,0.09,2.5,0.81,2.54,2.8c0,0.19,0,0.38,0,0.56c0.93-0.06,2.03,0.01,2.51,0.02c0.99,0.01,2.01,0.09,2.96-0.11
	c0.01-1.47,0.01-2.94-0.02-4.41c-0.03-1.41,0.55-2.26,1.95-2.53c1.19,0.54,1.77,1.35,1.73,2.76
	C118.48,265.17,118.68,272.16,118.68,272.16 M169.48,74.87c-8.13,0-16.1-0.01-24.07,0.01c-1.73,0-2.11-1.23-2.52-2.65h-14.14V57.52
	h39.38c1.78,1.22,1.32,2.61,1.34,3.91C169.52,65.81,169.48,70.19,169.48,74.87z M167.2,146.09c-6.97,0-13.04-0.12-19.1,0.05
	c-2.8,0.08-4.47-0.95-5.36-3.71h-14.06v-13.48h40.8c0,4.83-0.02,9.67,0.01,14.51C169.5,145.07,168.83,145.97,167.2,146.09z
	 M169.48,166.63v4.57c-0.1,0.1-0.2,0.23-0.32,0.31c-0.12,0.07-0.26,0.14-0.39,0.14c-8.16,0.01-16.32,0.01-24.21,0.01
	c-1.54-1.02-1.34-3.29-2.86-3.56c-2.06-0.36-4.59-0.78-6.26,0.09c-2.29,1.2-4.39,0.25-6.71,0.88v-17.49h30.87
	c2.42,0,4.85-0.04,7.27,0.01c1.9,0.05,2.58,0.76,2.59,2.73C169.51,158.42,169.48,162.52,169.48,166.63z M169.46,96.9
	c-0.02,1.91-0.75,2.6-2.72,2.61c-6.52,0.03-13.04,0.01-19.56,0.01c-3.06-0.17-3.55-2.01-4.73-3.66h-13.77V81.47h40.8
	C169.48,86.61,169.51,91.76,169.46,96.9z M169.48,32.12c0,5.41,0.02,10.84-0.01,16.28c-0.01,1.97-0.7,2.7-2.6,2.72
	c-4.09,0.05-8.18,0.02-12.27,0.02c-2.88,0-5.76-0.06-8.63,0.02c-1.8,0.05-2.81-0.63-3.04-2.76h-13.92
	c-0.45-5.62-0.45-10.79-0.45-15.96C132.29,31.76,156.37,31.57,169.48,32.12z M128.55,108.05c0.03-2.52,0.57-3.04,3.2-3.05
	c11.21-0.02,22.42-0.01,33.64-0.01h4.07c0.05,5.68,0.01,11.38,0.03,17.21h-25.25c-1.21-0.65-1.09-2.54-2.25-3.3
	c-4.54-1.2-8.8,1.61-13.44,0.46C128.54,115.6,128.5,111.83,128.55,108.05z M134.75,239.94c-1.67,0.44-3.61,0.14-5.5,0.17
	c-0.84,0.01-0.74-0.75-0.71-1.34v-13c1.98-0.52,4.03-0.03,6.21-0.34V239.94z M149.92,251.09h-7.58c2.01-1.17,4.14-0.84,6.21-0.9
	c2.07-0.06,4.15-0.01,6.24,0.29C153.24,251.39,151.54,250.94,149.92,251.09z M154.91,241.55c-0.01,1.21-0.99,2.19-2.2,2.22
	c-2.42,0.05-4.84,0.02-7.27,0.02c-1.3-0.98-2.49-2.17-2.86-3.76c-0.65-2.81-1.74-5.58-1.31-8.57c-0.74-2.67,1.79-3.75,0.6-5.73
	h13.04C154.92,231,154.94,236.28,154.91,241.55z M161.41,215.08c-1.28-0.89-2.6-0.31-3.89-0.51c-0.77-0.12-1.38,0.12-1.99,0.71
	c-1.08,1.04-0.35,2.29-0.68,3.63h-10.49c-0.41-1.64-2.03-2.73-3.42-4.25c-4-0.79-7.96,1.91-12.4,0.49v-4.7c0-3.04,0.01-5.17,0-7.3
	c-0.01-1.46,0.87-2.09,2.16-2.27c0.59-0.08,1.21-0.01,1.82-0.01c11.82,0,23.64,0,35.45,0.01c0.43,0,0.86,0.08,1.52,0.14
	c0,5.2,0.03,10.34-0.02,15.48c-0.02,1.93-0.73,2.57-2.7,2.63c-1.36,0.04-2.73,0.01-4.12,0.01
	C161.48,218.04,162.97,216.17,161.41,215.08z M167.78,243.7c-1.18,0.25-2.64,0.53-3.85-0.43c-0.42-0.33-1.01-0.44-1.63-0.7v-16.85
	h7.18v13.03C169.44,241.26,169.94,243.25,167.78,243.7z M169.48,180.33v13.69c-0.1,0.11-0.2,0.24-0.32,0.32
	c-0.11,0.07-0.26,0.14-0.4,0.14c-8.16,0.01-16.32,0.01-24.2,0.01c-1.56-1.03-1.36-3.3-2.88-3.56c-2.06-0.35-4.57-0.76-6.26,0.11
	c-2.29,1.17-4.38,0.25-6.69,0.85v-13.74h40.43C169.79,178.81,169.34,179.61,169.48,180.33z M178.58,232.37v9.79
	c-1.82-2.96-1.95-2.97-1.77-6.56c0.11-2.13-1.02-4.67,1.39-6.44C178.86,230.3,178.46,231.36,178.58,232.37z"/>
</svg>
