<?xml version="1.0" encoding="utf-8"?>
<!-- Generator: Adobe Adobe Illustrator 24.2.0, SVG Export Plug-In . SVG Version: 6.00 Build 0)  -->
<svg version="1.1" id="Layer_1" xmlns="http://www.w3.org/2000/svg" xmlns:xlink="http://www.w3.org/1999/xlink" x="0px" y="0px"
	 viewBox="0 0 298 273" style="enable-background:new 0 0 298 273;" xml:space="preserve">
<style type="text/css">
	.st0{fill:#636363;}
	.st1{fill:#626262;}
	.st2{fill:#646464;}
	.st0:hover{fill:#ff0000;}
</style>
<path class="st0" d="M81.16,3.32c9.19,3.26,14.33,13.44,11.62,23.06c-2.48,8.81-11.92,14.67-21,13.02
	c-8.28-1.5-14.79-8.95-15.36-17.56C55.89,13.74,62.07,5.24,70.14,3c1.26-0.35,2.49-0.74,5.06-0.88C78.02,2.32,79.38,2.69,81.16,3.32
	z"/>
<path class="st1" d="M86.03,235.56c0-3.06,0-22.18,0-32.96h57.71v-30.03h58.11v-30.13h67.64v22.91h-44.64v29.58H167.2v29.97h-57.76
	v30.57H52.1L52.12,273c-6.96,0-22.16,0-22.16,0s0.18-23.6,0.18-37.55C30.14,235.45,85.99,235.81,86.03,235.56z"/>
<path class="st1" d="M103.88,181.14c-0.47,2.29-0.43,4.49-1.51,5.54c-1.75,1.7-4.26,3.66-6.38,3.6c-2.12-0.07-4.77-2.09-6.06-4.02
	c-1.22-1.81-1.29-4.61-1.31-6.97c-0.11-13.47,0.06-26.94-0.11-40.41c-0.05-4,1.09-7.22,3.54-10.31c6.16-7.73,12.11-15.63,18.4-23.78
	c-5.38-9.6-10.64-18.98-15.9-28.37c-1.94-3.46-3.92-6.89-5.82-10.38c-7.01-12.86,1.91-28.57,16.49-28.85
	c9.88-0.19,19.77,0.07,29.65-0.1c4.53-0.08,7.4,1.81,9.42,5.78c4.8,9.43,9.82,18.75,14.62,28.18c2.57,5.06,1.55,9.4-2.4,11.51
	c-4.02,2.14-7.98,0.62-10.76-4.39c-3.43-6.17-6.69-12.42-10.02-18.64c-4.46-8.33-5.74-8.86-16.8-6.33
	c5.21,14.05,13.09,26.73,18.92,40.72c-10.01,13.13-19.9,26.33-30.09,39.3c-2.63,3.34-3.87,6.72-3.84,10.89
	C103.98,156.24,103.91,168.39,103.88,181.14z"/>
<path class="st0" d="M255.48,73.07c-3.16,6.07-5.58,12.1-9.4,17.05c-6.16,7.98-13,15.34-7.91,26.64
	c-14.43-0.14-26.68-13.64-24.55-26.69c0.6-3.66,2.96-7.26,5.23-10.34c2.32-3.14,5.67-5.5,8.34-8.41c6.88-7.53,11.21-15.8,6.3-26.34
	C249.04,46.01,257.96,60.91,255.48,73.07z"/>
<path class="st1" d="M139.42,136.17c-2.01-4.21-3.8-7.98-5.85-12.29c3.36-4.45,6.76-8.95,11.08-14.68
	c2.47,5.86,4.8,10.67,6.52,15.68c1.52,4.43,4.05,6.25,8.76,6.06c7.44-0.3,14.91-0.15,22.36-0.02c5.84,0.1,8.88,2.72,8.99,7.35
	c0.1,4.54-3.02,7.52-8.8,7.62c-11.4,0.19-22.81,0.03-34.21,0.13c-2.76,0.02-4.57-0.93-5.67-3.51
	C141.74,140.49,140.63,138.58,139.42,136.17z"/>
<path class="st2" d="M250.42,97.35c4.52-6.19,8.75-12.01,12.95-17.81c9.77,13.59-1.05,33.53-15.82,36.79
	C243.02,109.23,243.4,106.48,250.42,97.35z"/>
<path class="st2" d="M76.79,92.4c2.31-2.89,4.33-5.41,6.83-8.54c2.85,4.94,5.35,9.27,8.25,14.28c-3.98,4.93-7.68,10.11-12.01,14.68
	c-3.25,3.43-6.94,3.24-10.04,0.58c-3.05-2.62-3.75-6.31-1.29-10.11C70.91,99.6,73.82,96.26,76.79,92.4z"/>
</svg>
