<?xml version="1.0" encoding="utf-8"?>
<!-- Generator: Adobe Adobe Illustrator 24.2.0, SVG Export Plug-In . SVG Version: 6.00 Build 0)  -->
<svg version="1.1" xmlns="http://www.w3.org/2000/svg" xmlns:xlink="http://www.w3.org/1999/xlink" x="0px" y="0px"
	 viewBox="0 0 298 273" style="enable-background:new 0 0 298 273;" xml:space="preserve">
<style type="text/css">
	.st0{fill:#636363;}
</style>
<g id="Layer_1">
	<path class="st0" d="M287.88,97.72c0.47,0.92-1.52,8.99-1.59,9.4c-1.16,6.87-4.46,12.87-7.51,18.99c-0.75,1.5-1.53,3.04-1.42,4.97
		c1.09,19.47-2.02,38.23-9.39,56.34c-8.48,20.83-21.24,38.45-38.65,52.65c-18.88,15.4-40.14,25.53-64.49,28.72
		c-1.44,0.19-2.88,0.52-3.97,1.63c-10.27,0-20.53,0-31.21,0c-5.1-2.7-10.57-2.13-15.62-3.54c-8.01-2.25-15.92-4.74-23.47-8.12
		c-15.43-6.91-28.97-16.64-40.74-28.8c-10.85-11.21-19.49-23.92-25.8-38.18c-4.48-10.13-7.18-20.74-9.7-31.55
		c-3.09-13.27-2.43-26.54-1.3-39.59c0.87-10.03,4.18-20.04,7.96-29.72C25.8,78.6,32.03,67.2,40.06,56.81
		C52.92,40.2,68.81,27.28,87.8,18.09c10.15-4.91,20.8-8.3,31.68-10.78c8.52-1.94,17.33-2.33,26.13-1.94c2.91,0.13,3.98,2.33,4,4.32
		c0.03,2.67-1.83,4.55-4.84,4.49c-6.61-0.11-13.08,0.86-19.61,1.8c-9.6,1.38-18.8,4.04-27.63,7.74
		c-12.64,5.3-24.21,12.51-34.56,21.62c-13.58,11.95-23.9,26.34-31.15,42.75c-7.76,17.56-10.88,36.09-10.08,55.36
		c0.59,14.31,3.77,27.87,9.05,41.16c6.13,15.43,15.19,28.73,26.73,40.49c0.77,0.79,1.27,2.31,2.71,1.6
		c1.33-0.65,0.65-2.07,0.65-3.18c0.01-26.05,0-52.09,0.03-78.14c0.01-4.78,1.73-6.48,6.75-6.52c10.54-0.09,21.07-0.02,31.61-0.07
		c4.61-0.02,4.69-0.18,4.68-4.66c-0.01-5.85,0.23-11.72-0.06-17.55c-0.21-4.17,1.45-6.51,5.24-7.95c6.39-2.42,12.7-5.04,19.03-7.61
		c12.64-5.15,25.26-10.32,37.89-15.48c0.54-0.22,1.11-0.36,1.67-0.52c6.29-1.82,8.1-0.51,8.12,5.98c0.03,7.9,0.02,15.8,0.03,23.7
		c0,3.66,0.05,7.32,0,10.97c-0.03,2.12,0.61,3.71,2.76,4.44c7.41,2.52,14.81,5.03,22.21,7.58c3.29,1.14,6.5,2.53,9.83,3.52
		c4.07,1.22,5.28,3.92,5.26,7.92c-0.08,18.87,0,37.75,0.03,56.62c0.02,9.51,0.04,19.02,0.11,28.53c0.01,1.21-0.71,2.81,0.95,3.48
		c1.33,0.53,2.07-0.71,2.98-1.4c14.73-11.27,26.42-25.16,34.91-41.59c4.66-9.03,8.22-18.54,10.42-28.58
		c2.23-10.19,3.66-20.37,3.68-30.81c0.01-2.94-0.94-4.03-3.65-4.78c-12.74-3.5-24.76-8.54-34.59-17.72
		c-7.81-7.29-13.47-15.92-16.67-26.21c-4.77-15.29-5.17-30.72-2.17-46.34c0.27-1.43,0.3-2.91,0.45-4.36
		c0.59-5.73,3.08-7.67,8.55-5.89c14.79,4.81,29.06,10.83,41.74,20.01c9.44,6.84,17.38,15.03,22.25,25.93
		c0.9,2.02,2.88,7.2,3.37,12.1 M207.13,233.09c-0.02-25.74-0.06-51.49-0.05-77.23c0-6.7-0.19-7.01-6.89-8.72
		c-0.71-0.18-1.42-0.36-2.1-0.61c-11.89-4.25-23.77-8.54-35.67-12.75c-4.42-1.56-5.06-1.03-5.06,3.67
		c0.03,36.71,0.05,73.43,0.07,110.14c0,3.51-0.06,7.02,0.03,10.53c0.04,1.51,0.38,3.19,2.53,2.55c3.54-1.05,7.29-0.88,10.78-1.78
		c10.98-2.81,21.78-6.23,31.92-11.46c3.02-1.56,5.33-3.31,4.51-7.34C206.79,238.13,207.13,236.01,207.13,233.09z M140.58,105.71
		c-8.22,3.24-16.46,6.41-24.64,9.75c-1.98,0.81-3.08,2.36-3.05,4.81c0.1,9.21-0.01,18.42,0,27.62c0.05,34.5,0.14,69,0.18,103.5
		c0.01,5.54,0.26,6.57,5.61,7.32c8.65,1.21,17.21,3.35,26.08,2.85c2.88-0.16,3.68-1.1,3.67-3.95c-0.12-30.12-0.12-60.24-0.13-90.36
		c0-13.01-0.01-26.03,0.1-39.04c0.05-5.85,3.3-8,8.62-5.67c2.17,0.95,4.56,1.11,6.62,2.22c2.9,1.56,3.25-0.1,3.25-2.39
		c0.01-7.75,0-15.5,0.08-23.24c0.03-2.7-0.68-3.9-3.59-2.68C156.02,99.53,148.62,102.5,140.58,105.71z M103.96,193.58
		c0.02-13.9-0.04-27.81,0.11-41.71c0.03-3.2-0.95-4.44-4.25-4.37c-8.63,0.18-17.27,0.22-25.91,0.04c-3.02-0.06-3.92,1.21-3.85,3.86
		c0.03,1.02-0.03,2.05-0.03,3.07c0.01,25.9,0.09,51.81-0.03,77.71c-0.01,2.85,0.84,4.68,3.09,6.22c8.4,5.78,17.16,10.85,26.78,14.36
		c4.07,1.48,4.07,1.53,4.07-2.97C103.95,231.35,103.95,212.9,103.96,193.58z M252.36,53.69c-8.8-5.12-18.09-9.12-27.62-12.69
		c-3.27-1.22-3.71-0.18-4.27,2.42c-1.73,7.96-1.72,16.05-1.06,24.04c1.03,12.49,4.44,24.3,12.82,34.16
		c8.01,9.42,18.32,15.07,29.95,18.64c0.69,0.21,1.4,0.69,2-0.04c0.67-0.82,0.19-1.65-0.21-2.43c-2.98-5.82-5.79-11.72-9.35-17.24
		c-3.65-5.65-7.7-10.96-12.04-16.1c-2.38-2.82-2.14-5.47,0.2-7.33c2.73-2.16,4.7-0.38,6.37,1.53c3.18,3.61,6.3,7.28,9.09,11.22
		c5.73,8.08,10.51,16.68,14.56,25.91c3.67-2.71,3.8-6.87,4.65-10.32c2.43-9.81,2.32-19.58-2.39-28.97
		C270.1,66.56,261.81,60.03,252.36,53.69z"/>
	<path class="st0" d="M176.6,219.77c-2.24-3.15-1.28-6.4-1.3-9.54c0-0.28,0.1-0.6,0.25-0.83c2.21-3.21,5.48-1.97,8.38-1.82
		c2.4,0.12,3.31,1.74,3.41,4.18C187.73,220.32,186.73,221.17,176.6,219.77z"/>
	<path class="st0" d="M185.62,196.12c-1.5,0.3-2.65,0.51-3.81,0.53c-6.19,0.1-6.61-0.33-6.62-6.68c0-2-0.66-4.59,1.6-5.49
		c2.84-1.14,6-0.91,8.94,0.19c0.57,0.21,1.26,1.08,1.26,1.64C187.02,189.54,188.43,192.96,185.62,196.12z"/>
	<path class="st0" d="M187.27,166.79c-0.12,5.96-0.49,6.26-6.92,6.24c-4.78-0.02-5.19-0.51-5.2-6.23c-0.01-5.59,0.43-6.16,4.77-6.19
		C187.05,160.55,187.14,160.62,187.27,166.79z"/>
	<path class="st0" d="M124.64,216.55c-0.02-1.41-0.01-2.43,0.01-3.44c0.08-5,0.77-5.68,5.87-5.77c2.35-0.05,5.23-0.34,5.91,2.4
		c0.74,3.01,1.23,6.49-0.53,9.31C134.11,221.89,126.16,220.24,124.64,216.55z"/>
	<path class="st0" d="M124.63,192.88c-0.01-0.83,0-1.27,0-1.71c0.01-6.94,2.8-9.02,9.57-7.08c0.55,0.16,1.14,0.37,1.56,0.74
		c1.52,1.32,1.43,9.4-0.08,10.8C133.1,198.03,126.04,196.52,124.63,192.88z"/>
	<path class="st0" d="M125.61,161.43c1.12-0.46,1.96-0.77,2.81-0.81c8.15-0.35,9.72,1.49,8.33,9.59c-0.22,1.27-0.64,2.27-2.02,2.49
		c-2.61,0.43-5.24,0.43-7.85,0.02c-1.55-0.24-2.22-1.35-2.21-2.82C124.68,167.17,124.12,164.36,125.61,161.43z"/>
	<path class="st0" d="M136.59,139.35c0.1,0.93,0.13,1.51,0.13,2.1c0.05,8.6,1.04,8.12-8.87,8.02c-2.21-0.02-3.16-1.16-3.18-3.26
		c-0.01-0.73-0.14-1.48-0.01-2.18c0.39-2.14-1.22-5.29,1.71-6.16C129.69,136.86,133.45,135.91,136.59,139.35z"/>
	<path class="st0" d="M90.94,225.47c-1.69,0.13-3,0.2-4.31,0.2c-5.47,0.01-5.73-0.24-5.79-5.59c-0.07-6.12,4.72-9.08,10.4-6.39
		c0.49,0.23,0.95,0.68,1.25,1.14C93.78,216.82,93.02,223.38,90.94,225.47z"/>
	<path class="st0" d="M81.84,178.21c-0.89-1.5-0.99-2.79-1.03-4.12c-0.22-6.9,0.3-7.45,7.25-7.34c4.77,0.08,5.09,0.52,5.07,7.24
		c-0.01,4.3-0.75,5.12-5.08,5.07C86.06,179.04,83.97,179.72,81.84,178.21z"/>
	<path class="st0" d="M85.85,190.08c1.78,0.05,3.25,0.02,4.69,0.18c1.49,0.16,2.37,1.05,2.45,2.6c0.04,0.88,0.03,1.75,0.05,2.63
		c0.12,6.92-0.01,7-7.02,6.93c-2.9-0.03-5.25-0.3-5.18-4.14C80.95,192.42,80.3,189.93,85.85,190.08z"/>
</g>
</svg>
