<?xml version="1.0" encoding="utf-8"?>
<!-- Generator: Adobe Adobe Illustrator 24.2.0, SVG Export Plug-In . SVG Version: 6.00 Build 0)  -->
<svg version="1.1" xmlns="http://www.w3.org/2000/svg" xmlns:xlink="http://www.w3.org/1999/xlink" x="0px" y="0px"
	 viewBox="0 0 298 273" style="enable-background:new 0 0 298 273;" xml:space="preserve">
<style type="text/css">
	.st0{fill:#636363;}
</style>
<g id="Layer_1">
	<path class="st0" d="M13.4,262.19c0-58.89,0-117.78,0.32-177.08c0.58-0.55,0.97-0.62,1.08-0.84c3.96-7.62,10.06-11.47,18.78-11.08
		c3.66,0.16,4.26-0.32,4.75-4.4c0.77-6.44,2.95-12.51,5.18-18.44c4.96-13.18,11.76-25.42,20.84-36.29c4.81-5.75,10.8-6.2,15.83-0.05
		c4.44,5.43,8.57,11.11,11.88,17.34c0.8,1.51,1.48,3.2,3.44,4.13c3.86-8.49,8.26-16.4,13.46-23.86c2.64-3.78,6.06-6.89,8.61-10.72
		c2.43,0,4.85,0,7.88,0.22c6.79,5.76,11.29,12.62,15.48,19.69c5.79,9.77,10.3,20.08,13.16,31.12c1.61,6.2,3.24,12.37,3.62,18.8
		c0.04,0.75,0.17,1.49,0.89,2.07c1.16,0.7,2.54,0.42,3.86,0.42c21.1,0.01,42.2,0,63.3-0.01c1.05,0,2.1,0,3.14-0.05
		c1.52-0.07,2.54-0.76,2.8-2.37c0.14-0.89,0.17-1.84,0.52-2.64c6.78-15.34,23.99-22.9,39.36-13.7c8.55,5.12,13.94,12.83,13.92,23.69
		c-0.12,56.15-0.04,112.31-0.05,168.46c0,3.34-0.31,6.34-1.99,9.66c-3.54,7.01-8.08,12.42-15.42,15.3
		c-1.07,0.42-1.88,0.98-1.39,2.33c-80.25,0-160.5,0-241.27-0.28c-0.77-0.65-0.91-1.19-1.25-1.37c-4.12-2.19-7.42-5.12-9.2-9.58
		C14.67,262.05,14,262.04,13.4,262.19z M171.62,177.04c-0.02-28.52-0.18-57.05,0.02-85.57c0.07-9.93,0.15-8.36-9.29-8.5
		c-3.32-0.05-3.82,0.56-3.94,3.95c-0.32,9.15-1.39,18.17-4.79,26.75c-3.28,8.26-8.09,15.19-16.11,19.66
		c-3.4,1.9-7.44,2.28-10.52,4.81c-0.1,0.49-0.26,0.92-0.26,1.36c0.02,13.21,0.05,26.42,0.08,39.63c0,1.65,0.07,3.32-0.48,4.9
		c-1.13,3.26-4.44,4.22-7.2,2.18c-2-1.48-1.91-3.59-1.91-5.7c-0.01-13.36-0.02-26.72-0.01-40.08c0-1.05,0.21-2.11-0.79-3.16
		c-5.25-1.4-10.42-3.53-15.56-7.75c-5.47,9.13-13.4,14.52-23.27,16.74c-0.65,1.58-0.42,2.94-0.42,4.27
		c-0.01,12.76,0.01,25.52,0.01,38.28c0,1.2,0.09,2.43-0.14,3.59c-0.44,2.28-2.08,3.73-4.18,4.2c-2.17,0.49-3.62-1.05-4.64-2.82
		c-0.94-1.62-0.93-3.42-0.92-5.25c0.04-13.06,0.03-26.12,0.05-39.18c0-1.03,0.28-2.11-0.61-2.96c-12.14-3.65-16.9-7.36-22.91-17.23
		c-4.47-7.33-6.74-15.59-7.33-24.22c-0.41-5.99-0.82-11.97-0.42-17.99c0.23-3.39-0.84-4.24-4.24-3.97
		c-5.91,0.46-9.17,4.21-9.18,10.56c-0.02,18.31-0.05,36.63-0.04,54.94c0.03,35.13,0.12,70.25,0.09,105.38
		c0,5.27,3.01,10.27,10.43,10.3c14.66,0.06,29.33,0.01,43.99,0c1.17,0,2.4,0.37,3.44-0.53c0.96-1.51,0.57-3.18,0.59-4.82
		c0.05-5.55-0.76-11.2,0.47-16.62c2.33-10.28,7.17-19.32,15.39-26.15c8.12-6.74,17.3-10.94,28.1-10.92
		c11.82,0.02,23.65-0.33,35.46,0.08c6.3,0.22,11.44-4.22,11.08-11.06C171.38,188.77,171.62,183.35,171.62,177.04z M235.34,261.64
		c-3.5-5.27-4.99-11.13-4.99-17.41c-0.05-51.92-0.1-103.84-0.15-155.76c0-1.05,0.06-2.11-0.07-3.14c-0.17-1.3-0.86-2.34-2.3-2.3
		c-4.72,0.1-9.47-0.38-13.95,0.24c-1.21,1.64-0.89,3.18-0.89,4.66c-0.01,35.41-0.1,70.83,0.04,106.24
		c0.04,10.37-2.53,19.81-8.51,28.21c-8.45,11.87-19.86,18.82-34.56,19.25c-12.4,0.36-24.83,0.06-37.24,0.12
		c-6.64,0.03-10.5,4.01-10.51,10.65c0,2.1,0.04,4.2,0.03,6.3c-0.03,5.49-0.04,5.49,5.37,5.53c0.3,0,0.6,0,0.9,0
		c33.35,0.03,66.71,0.07,100.06,0.09c1.94,0,3.89-0.05,5.83-0.18C235.49,264.05,235.95,263.37,235.34,261.64z M257.37,218.48
		c6.54-0.05,12.18,3.01,17.68,5.71c0.92-1.08,0.84-1.84,0.84-2.59c0.01-47.11,0.01-94.21,0.04-141.32c0-3.52-0.59-7.09-2.16-10.03
		c-4.15-7.76-10.56-11.14-19.85-9.45c-6.92,1.26-13.31,7.54-13.45,15.8c-0.12,7.8-0.13,15.6-0.13,23.4
		c-0.02,39.75-0.03,79.51,0,119.26c0,1.52-0.74,3.3,1.11,4.78C246.08,221.09,251.12,219.12,257.37,218.48z M105.93,221.17
		c-3.9,2.86-7.11,6.32-9.75,10.42c-5.95,9.25-5.78,19.58-5.63,29.93c0.02,1.55,0.91,2.61,2.5,2.63c6.39,0.05,12.78,0.02,18.79,0.02
		c1.34-1.85,1-3.38,1.01-4.86c0.04-3.3,0.08-6.6,0.11-9.91c0.05-5.16,2.57-9.11,6.14-12.53c3.83-3.67,8.6-4.46,13.65-4.45
		c11.22,0.02,22.45,0.2,33.67-0.08c11.21-0.28,21-4.19,28.43-12.96c6.19-7.3,8.43-15.97,8.42-25.41
		c-0.04-31.38-0.01-62.76-0.02-94.15c0-4.35-0.07-8.71-0.02-13.06c0.02-2.31-0.76-3.82-3.28-3.82c-5.96-0.02-11.91-0.01-17.53-0.01
		c-1.58,1.55-1.26,3.13-1.27,4.59c-0.04,6.31-0.03,12.61-0.03,18.92c0.01,29.43-0.03,58.86,0.07,88.29
		c0.01,4.19-0.8,8.05-3.04,11.53c-3.93,6.11-9.8,8.37-16.84,8.32c-10.18-0.07-20.36,0.09-30.53-0.08
		C122.06,214.36,113.89,216.02,105.93,221.17z M50.81,121.45c3.35,6.78,7.19,12.97,15.87,13.91c1.13-3.72,0.28-7.05,0.69-10.28
		c0.38-3.01-0.8-5.1-2.88-7.1c-3.23-3.11-6.41-6.3-9.35-9.67c-2.08-2.38-1.85-3.68,0.16-5.88c1.75-1.91,4.35-2.31,6.38-0.68
		c1.74,1.4,3.19,3.16,4.86,4.66c1.95,1.76,3.47,4.06,6.39,5.51c2.85-2.95,5.58-5.91,8.45-8.72c2.88-2.81,5.43-3.18,7.44-1.3
		c2.35,2.18,2.07,5.07-0.89,8.22c-1.94,2.07-3.8,4.28-6.02,6.02c-3.72,2.94-5.61,6.4-4.75,11.24c0.46,2.57-0.76,5.35,0.71,7.82
		c4.38-0.27,6.05-1.07,9.46-4.41c7.12-6.99,9.87-16.06,10.73-25.48c1.12-12.38,1.19-24.82-1.84-37.13
		c-1.43-5.81-3.21-11.5-5.25-17.06c-3.02-8.24-7.4-15.91-12.38-23.14c-1.87-2.71-3.41-5.93-6.82-7.58c-0.9,1.07-1.73,1.91-2.41,2.87
		C64,30.82,59.3,38.7,55.47,47.22c-5.08,11.29-8,23.1-9.51,35.21C44.32,95.5,45.52,108.46,50.81,121.45z M139.74,119.05
		c0.83-1.92,2.23-3.48,3.23-5.33c3.64-6.76,4.69-14.21,5.64-21.56c0.89-6.96,1.03-14.14-0.55-21.05c-1.1-4.78-1.32-9.67-2.75-14.46
		c-1.09-3.65-2.1-7.47-3.34-11.06c-3.41-9.88-8.21-19.15-14.26-27.72c-1.61-2.29-3.08-4.71-5.27-6.23c-1.72,0.21-2.21,1.37-2.94,2.3
		c-8.07,10.15-13.62,21.66-18.22,33.7c-0.39,1.01-0.59,1.97-0.19,3.04c1.76,4.75,3.02,9.64,4.38,14.52
		c1.7,6.11,2.46,12.33,3.15,18.51c1.33,11.98,0.25,23.89-3.68,35.55c3.06,3.82,6.49,6.83,11.39,7.26c1.19-1.43,0.77-2.65,0.78-3.83
		c0.03-4.35-0.02-8.71,0.24-13.05c0.16-2.65,2.4-4.57,4.68-4.54c2.26,0.03,4.04,1.56,4.52,4.19c0.27,1.46,0.18,2.98,0.28,4.48
		c0.27,4-0.47,8.05,0.44,11.93c1.81,0.95,3.25,0.74,4.82-0.19C134.84,123.9,137.22,121.91,139.74,119.05z M242.97,236.31
		c-0.45,0.94-0.99,1.85-1.32,2.83c-1.64,4.8-1.82,9.57,0.07,14.4c2.8,7.14,13.3,12.03,21.18,9.73c10.73-3.13,16.71-16.97,9.56-27.36
		C266.1,226.67,250.31,225.61,242.97,236.31z"/>
	<path class="st0" d="M41.01,235.37c0,3.39,0,6.36,0,9.05c1.75,1.84,3.63,1.22,5.35,1.27c2.38,0.06,4.78-0.08,7.15,0.06
		c2.98,0.18,4.97,2.02,5.21,4.55c0.25,2.6-1.34,4.67-4.36,5.33c-1.29,0.28-2.67,0.18-4,0.19c-4.03,0.02-8.05,0.09-12.08-0.01
		c-5.08-0.14-7.06-2.11-7.21-7.08c-0.13-4.34-0.16-8.67-0.19-13.01c-0.01-1.04,0.01-2.11,0.25-3.12c0.74-3.15,2.63-4.78,5.16-4.59
		c2.45,0.18,4.23,2.12,4.68,5.16C41.06,233.75,41,234.36,41.01,235.37z"/>
</g>
</svg>
