<?xml version="1.0" encoding="utf-8"?>
<!-- Generator: Adobe Adobe Illustrator 24.2.0, SVG Export Plug-In . SVG Version: 6.00 Build 0)  -->
<svg version="1.1" xmlns="http://www.w3.org/2000/svg" xmlns:xlink="http://www.w3.org/1999/xlink" x="0px" y="0px"
	 viewBox="0 0 298 273" style="enable-background:new 0 0 298 273;" xml:space="preserve">
	<style type="text/css">
	.st0{fill:#636363;}
	</style>
<g id="Layer_1">
	<g>
		<path class="st0" d="M104.12,273.88c-0.4-3.22-0.53-6.45-0.53-9.67c-0.03-21.72-0.03-43.43-0.04-65.15c0-5.52,0.02-5.5,5.37-7.19
			c53.1-16.74,106.2-33.48,159.29-50.23c4.6-1.45,9.17-2.99,13.77-4.42c1.22-0.38,2.42-1.14,3.85-0.63
			c1.14,1.01,0.76,2.41,0.77,3.66c0.02,23.92,0.03,47.84,0.01,71.75c0,4.09-0.89,5.33-5.39,6.8c-9.72,3.17-19.48,6.21-29.24,9.27
			c-26.9,8.41-53.81,16.79-80.7,25.2c-20.35,6.36-40.68,12.74-61.02,19.12c-1.11,0.35-2.21,0.76-3.57,1.31
			C105.77,273.88,105.11,273.88,104.12,273.88z"/>
		<path class="st0" d="M271.93,0.88c3.58,1.47,6.85,2.74,9.37,5.35c9.76,10.11,6.18,26.66-7.46,31.47c-4.95,1.75-10.07,3.01-15.13,4.46
			c-9.83,2.81-19.67,5.55-29.48,8.4c-2.34,0.68-4.53,0.71-6.87-0.04c-3.27-1.06-4.69-0.4-6.08,2.94
			c-2.98,7.17-5.94,14.35-8.68,21.61c-1.16,3.07-3.01,5.17-5.79,6.83c-17.46,10.42-34.87,20.93-52.28,31.44
			c-1.24,0.75-2.5,1.57-3.5,2.6c-1.89,1.96-1.98,4.28-0.5,6.41c1.38,1.99,3.86,2.85,6.17,1.8c2.12-0.96,4.11-2.22,6.12-3.43
			c16.3-9.81,32.53-19.73,48.91-29.4c5.31-3.14,9.01-7.27,11-13.12c1.16-3.43,2.45-6.85,4.15-9.81c1.05-0.44,1.74-0.11,2.38,0.2
			c9.94,4.97,19.94,9.83,29.78,15c11.94,6.28,13.54,21.98,3.31,30.62c-2.53,2.14-5.53,3.22-8.67,4.01
			c-36.25,9.09-72.5,18.18-108.76,27.27c-19.97,5.01-39.94,10-59.9,15.06c-3.55,0.9-6.96,1.68-9.5-1.92
			c-1.95-2.77-1.4-5.13,2.12-9.38c11.86-14.33,23.73-28.66,35.61-42.97c13.1-15.78,26.23-31.53,39.3-47.33
			c10.47-12.65,24.95-15.91,39.74-8.84c4.59,2.19,9.14,4.46,13.76,6.71c2.32-3.07,3.05-6.41,4.31-9.49
			c1.32-3.23,2.96-6.04,6.45-7.32c1.62-0.6,2.57-1.83,2.89-3.57c0.48-2.6,2.06-4.53,4.02-6.12c10.71-8.65,21.42-17.28,32.19-25.84
			c1.59-1.26,3.5-2.11,5.44-3.38C261.53,0.88,266.53,0.88,271.93,0.88z"/>
		<path class="st0" d="M12.5,145.71c5.06,4.87,11.81,7.56,17.94,11.14C50,168.3,69.68,179.53,89.41,190.68c2.79,1.58,3.9,3.35,3.88,6.56
			c-0.12,23.76-0.08,47.51-0.11,71.27c0,1.41,0.4,2.94-0.78,4.2c-1.65,0.39-2.71-0.85-3.91-1.53
			c-22.98-13.13-45.93-26.3-68.91-39.42c-2.29-1.31-4.51-2.69-6.8-4.48C12.5,200.18,12.5,173.15,12.5,145.71z"/>
		<path class="st0" d="M167.68,149.46c27.96-7.03,55.55-14.03,83.18-20.91c4.91-1.22,9.46-3.09,13.33-6.34c3.29-2.76,6.57-2.89,10.03-0.59
			c2.12,1.41,4.72,2.14,6.45,4.09c-0.78,1.77-2.31,1.67-3.46,2.03c-58.19,18.35-116.4,36.64-174.58,55.04
			c-2.8,0.89-4.92,0.63-7.36-0.91c-4.2-2.66-8.63-4.94-12.92-7.44c-0.96-0.56-2.28-0.78-2.63-2.84
			C108.9,164.24,138.11,156.89,167.68,149.46z"/>
		<path class="st0" d="M53.51,157.92c-11.65-6.64-23.01-13.13-34.59-19.74c0.75-1.42,2.23-1.35,3.35-1.65c13.2-3.59,26.43-7.11,39.65-10.64
			c0.56-0.15,1.14-0.24,1.7-0.4c2.83-0.8,5.23-0.16,6.96,2.25c1.75,2.43,1.5,5.4-0.66,8.09c-2.1,2.62-4.22,5.23-6.46,7.74
			c-3.9,4.38-5.04,9.43-3.94,15.09c0.11,0.56,0.36,1.12-0.23,1.99C57.14,160.79,55.66,158.94,53.51,157.92z"/>
	</g>
</g>
</svg>
