<?xml version="1.0" encoding="utf-8"?>
<!-- Generator: Adobe Adobe Illustrator 24.2.0, SVG Export Plug-In . SVG Version: 6.00 Build 0)  -->
<svg version="1.1" id="Layer_1" xmlns="http://www.w3.org/2000/svg" xmlns:xlink="http://www.w3.org/1999/xlink" x="0px" y="0px"
	 viewBox="0 0 295 273" style="enable-background:new 0 0 295 273;" xml:space="preserve">
<style type="text/css">
	.st0{fill:#636363;}
	.st1{fill:#636363;}
	.st2{fill:#636363;}
	.st3{fill:#636363;}
	.st4{fill:RGB(0,0,0,0);}
	.st5{fill:#636363;}
	.st6{fill:#636363;}
	.st7{fill:#636363;}
	.st8{fill:#636363;}
	.st9{fill:#636363;}
	.st10{fill:#636363;}
	.st11{fill:#636363;}
	.st12{fill:#636363;}
	.st13{fill:#636363;}
</style>
<path class="st0" d="M42.42,273c-0.97-0.54-1.62-1.26-2.43-1.58c-7.95-3.13-12.12-8.8-12.15-17.47c-0.1-25.42-0.03-50.84-0.04-76.26
	c0-11.09,7.54-19.09,19.24-18.72c19.57,0.62,39.17,0.14,59.5-0.14c4.57-0.9,8.4-1.54,12.32-1.83c1.27,0.95,2.39,1.82,3.63,2.1
	c10.6,2.36,14.69,7.39,14.83,18.22c0.03,2.33,0.49,4.66,0.72,7.45c-0.05,22.57,0.05,44.67-0.16,66.78
	c-0.04,4.55-1.19,9.09-1.83,13.63c-4.22,2.27-8.44,4.55-13.46,6.84c-25.41,0.03-50.02,0.02-74.64,0.08c-1.61,0-3.22,0.58-4.83,0.89
	C43.14,273,42.66,273,42.42,273z M132.1,196.56c0-6.57,0.04-13.14-0.01-19.71c-0.06-8.33-4.64-13.28-13.02-13.34
	c-24.26-0.15-48.53-0.16-72.8-0.02c-8.48,0.05-12.83,4.79-12.84,13.28c-0.02,25.8-0.02,51.59,0,77.39
	c0.01,8.9,4.3,13.18,13.24,13.18c23.63,0.02,47.25,0.01,70.88,0c10.25,0,14.5-4.25,14.52-14.55
	C132.1,234.38,132.1,215.95,132.1,196.56z"/>
<path class="st1" d="M43.59,273c1.16-0.31,2.77-0.89,4.38-0.89c24.62-0.06,49.23-0.05,74.29,0.02c0.45,0.07,0.39,0.47,0.39,0.67
	C96.45,273,70.24,273,43.59,273z"/>
<path class="st2" d="M118.77,156.65c-3.83,0.64-7.66,1.28-11.92,1.92c-4.67-8.64-8.88-17.3-13.19-25.91
	c-0.55-1.09-1.5-2.13-2.52-2.8c-8.3-5.41-11.35-24.07-7.07-32.53c1.2-2.37,0.93-5.87,0.39-8.67C81.09,71,80.43,53.45,86.95,36.38
	c4.32-11.32,11.38-20.25,23.92-23.34c1.04-0.26,2.13-0.85,2.88-1.61c8.66-8.72,19.69-10.75,31.18-10.45
	c11.78,0.31,23.27,2.28,33.85,8.27c14.26,8.07,21.31,20.64,24.56,36.25c3.31,15.9,0.93,31.34-2.29,46.84
	c-0.28,1.34,0.35,3.04,1,4.36c4.76,9.75,2.88,22.63-4.12,30.87c-2.46,2.9-4.12,6.54-5.9,9.97c-3.36,6.46-6.6,12.98-9.75,19.55
	c-0.91,1.89-1.73,3.99-1.9,6.05c-0.31,3.66,0.39,7.44-0.18,11.03c-1.42,9.02,3.72,13.9,10.7,17.2c10.61,5.02,21.52,9.42,32.27,14.15
	c16.16,7.12,30.81,16.13,38.36,33.18c3.64,8.22,5.85,16.84,3.93,25.97c-1.68,0.14-2.77,0.31-3.87,0.49
	c-17.28,0.05-34.57,0.1-52.38-0.07c-0.78-0.12-1.02-0.03-1.27,0.07c-3.24,0.08-6.47,0.16-10.23,0c-0.77-0.14-1.02-0.04-1.28,0.06
	c-0.44,0.03-0.88,0.06-1.72-0.13c-0.65-0.13-0.9-0.03-1.14,0.06c-18.87,0.05-37.74,0.11-57.06,0.09c0.2-4.62,1.35-9.15,1.39-13.7
	c0.21-22.1,0.12-44.21,0.5-66.68c2.88,0,5.89,1.43,7.82,0.52c6.75-3.16,13.2-7,19.58-10.89c1.28-0.78,2.39-2.84,2.49-4.38
	c0.31-4.62-0.03-9.28,0.15-13.92c0.05-1.43,0.51-3.3,1.49-4.18c7.93-7.12,11.23-16.33,11.98-26.59c0.25-3.36,0.66-5.59,4.72-5.46
	c1.14,0.04,2.74-0.96,3.41-1.96c4.32-6.44,3.03-14.3-3.1-19.39c4.21-16.15,7.19-32.54,4.61-49.4c-1.74-11.39-5.87-21.62-16.12-27.99
	c-12.31-7.65-26.08-8.93-40-7.31c-5.78,0.67-12,2.26-15.16,8.59c-0.43,0.85-2.08,1.35-3.23,1.53c-9,1.4-15.14,6.44-18.14,14.92
	c-6.63,18.7-5.45,37.49,0.25,56.15c0.87,2.85,1.22,4.39-1.91,6.02c-4.32,2.25-3.47,16.48,0.89,18.65c0.54,0.27,1.25,0.33,1.87,0.27
	c3.33-0.31,4.06,1.37,4.61,4.48c1.84,10.41,4.65,20.48,13.05,27.92C118.56,153.27,118.43,155.23,118.77,156.65z M251.77,252.64
	c0-1.64,0.4-3.4-0.06-4.89c-3.66-11.91-11.95-20.06-22.64-25.39c-11.79-5.88-24.09-10.75-36.25-15.85
	c-1.08-0.45-3.33,0.23-4.16,1.16c-4.87,5.49-9.5,11.21-14.18,16.87c-4.7,5.69-8.06,5.68-12.59,0c-3.44-4.31-6.96-8.57-10.3-12.68
	c-4.07,1.63-4.66,3.58-2.49,6.84c2.03,3.03,3.74,6.35,5.09,9.74c3.16,7.94,6.01,16,9.09,24.28c2.27,0,4.82-0.01,7.36,0
	c26.48,0.06,52.96,0.13,79.59,0.48C250.49,253.13,250.74,253.04,251.77,252.64z M162.28,191.16c-2.31,1.34-4.63,2.68-7.34,4.26
	c4.5,5.57,8.73,10.8,13.38,16.55c3.79-4.67,7.14-8.79,10.41-12.82c-3.54-4.1-6.72-7.78-9.99-11.58
	C166.75,188.7,164.84,189.79,162.28,191.16z"/>
<path class="st3" d="M261.95,265.24c0.72-0.24,1.82-0.41,3.14-0.38C264.32,265.15,263.32,265.23,261.95,265.24z"/>
<path class="st3" d="M193.79,265.22c0.02-0.15,0.26-0.24,0.59-0.2C194.47,265.17,194.01,265.28,193.79,265.22z"/>
<path class="st3" d="M196.66,265.3c0.02-0.16,0.28-0.26,0.61-0.21C197.2,265.28,197.04,265.32,196.66,265.3z"/>
<path class="st3" d="M208.16,265.23c0.02-0.15,0.27-0.24,0.6-0.19C208.84,265.17,208.38,265.28,208.16,265.23z"/>
<path class="st4" d="M132.1,197.04c0,18.91,0,37.34-0.02,55.76c-0.01,10.29-4.27,14.54-14.52,14.55c-23.63,0.01-47.25,0.02-70.88,0
	c-8.93-0.01-13.23-4.28-13.24-13.18c-0.02-25.8-0.02-51.59,0-77.39c0.01-8.49,4.35-13.23,12.84-13.28
	c24.27-0.14,48.53-0.14,72.8,0.02c8.37,0.05,12.96,5.01,13.02,13.34C132.14,183.42,132.1,189.99,132.1,197.04z M58.95,251.67
	c11.81,0,23.63,0.09,35.44-0.12c1.43-0.03,2.82-1.69,4.23-2.59c-1.39-0.93-2.77-2.65-4.16-2.67c-16.44-0.19-32.89-0.19-49.33,0.01
	c-1.33,0.02-2.65,1.84-3.97,2.83c1.3,0.85,2.55,2.33,3.91,2.43C49.36,251.87,53.68,251.67,58.95,251.67z M73.32,231.47
	c6.86,0,13.74,0.18,20.59-0.12c1.61-0.07,3.15-1.77,4.72-2.72c-1.56-0.92-3.1-2.62-4.67-2.64c-15.96-0.2-31.92-0.13-47.88-0.12
	c-2.22,0-5.12-0.32-4.67,2.97c0.15,1.07,2.98,2.48,4.62,2.52C54.8,231.61,63.58,231.47,73.32,231.47z M75.23,210.66
	c5.89,0,11.78,0.09,17.66-0.05c2.13-0.05,5.41,1.17,5.41-2.55c0-0.79-3.36-2.25-5.18-2.27c-15.59-0.18-31.19-0.12-46.78-0.08
	c-2.09,0.01-5.07-0.76-4.9,2.64c0.04,0.85,3.01,2.17,4.66,2.21C55.5,210.77,64.89,210.66,75.23,210.66z M83.85,185.33
	c-12.91,0.02-25.82-0.03-38.73,0.16c-1.31,0.02-2.6,1.52-3.91,2.34c1.1,0.86,2.2,2.47,3.32,2.48c16.89,0.19,33.79,0.21,50.69,0.08
	c1.14-0.01,2.27-1.6,3.41-2.45c-1.1-0.86-2.14-2.36-3.31-2.48C91.83,185.13,88.31,185.34,83.85,185.33z M118.97,183.19
	c-1.83,1.74-3.66,3.48-5.65,5.38c-1.56-1.37-2.74-2.69-4.19-3.58c-0.9-0.55-2.2-0.45-3.32-0.64c0.13,1.14-0.15,2.66,0.48,3.34
	c2.1,2.31,4.53,4.33,6.9,6.52c3.78-3.44,7.31-6.44,10.55-9.73c0.88-0.89,0.9-2.65,1.31-4.01c-1.38,0.32-2.8,0.55-4.14,1
	C120.36,181.66,119.95,182.29,118.97,183.19z M117.09,246.77c-1.28,1.12-2.56,2.25-3.99,3.51c-1.43-1.29-2.46-2.56-3.79-3.32
	c-1-0.57-2.37-0.48-3.57-0.69c0.25,1.11,0.14,2.54,0.81,3.26c2.02,2.18,4.33,4.09,6.71,6.26c3.8-3.49,7.39-6.61,10.73-9.98
	c0.73-0.74,0.6-2.34,0.86-3.54c-1.11,0.19-2.39,0.09-3.28,0.64C120.11,243.82,118.9,245.15,117.09,246.77z M123.29,225.94
	c0.49-1.4,0.99-2.79,1.48-4.19c-1.36,0.38-3.01,0.4-4.02,1.21c-2.57,2.06-4.85,4.47-7.32,6.8c-1.68-1.39-2.91-2.69-4.4-3.55
	c-0.9-0.52-2.19-0.34-3.31-0.47c0.25,1.12,0.15,2.58,0.83,3.3c2.05,2.16,4.4,4.03,6.84,6.19
	C116.75,232.07,119.77,229.24,123.29,225.94z M118.51,209.71c1.76-1.61,3.67-3.1,5.22-4.89c0.75-0.87,0.84-2.32,1.23-3.5
	c-1.28,0.26-2.84,0.13-3.78,0.84c-2.75,2.08-5.25,4.5-7.99,6.9c-1.62-1.41-2.78-2.78-4.26-3.59c-0.87-0.47-2.22-0.05-3.35-0.03
	c0.3,0.98,0.31,2.23,0.94,2.9c2.05,2.16,4.33,4.1,6.71,6.31C115.02,212.96,116.51,211.55,118.51,209.71z"/>
<path class="st5" d="M250.16,253.07c-0.08-0.14,0.38-0.24,0.6-0.17C250.74,253.04,250.49,253.13,250.16,253.07z"/>
<path class="st6" d="M58.47,251.67c-4.79,0-9.11,0.2-13.4-0.12c-1.35-0.1-2.61-1.58-3.91-2.43c1.32-0.98,2.64-2.81,3.97-2.83
	c16.44-0.2,32.89-0.2,49.33-0.01c1.4,0.02,2.78,1.74,4.16,2.67c-1.41,0.9-2.81,2.57-4.23,2.59
	C82.58,251.76,70.76,251.67,58.47,251.67z"/>
<path class="st7" d="M72.84,231.47c-9.26,0-18.04,0.14-26.81-0.11c-1.64-0.05-4.48-1.45-4.62-2.52c-0.45-3.29,2.45-2.97,4.67-2.97
	c15.96-0.01,31.92-0.08,47.88,0.12c1.57,0.02,3.11,1.72,4.67,2.64c-1.57,0.95-3.11,2.65-4.72,2.72
	C87.05,231.65,80.18,231.47,72.84,231.47z"/>
<path class="st8" d="M74.75,210.66c-9.87,0-19.26,0.11-28.64-0.1c-1.65-0.04-4.62-1.36-4.66-2.21c-0.18-3.4,2.81-2.63,4.9-2.64
	c15.59-0.04,31.19-0.1,46.78,0.08c1.82,0.02,5.18,1.48,5.18,2.27c0,3.72-3.28,2.5-5.41,2.55C87.01,210.76,81.12,210.66,74.75,210.66
	z"/>
<path class="st9" d="M84.32,185.33c3.98,0,7.51-0.2,10.99,0.13c1.17,0.11,2.21,1.61,3.31,2.48c-1.14,0.85-2.27,2.44-3.41,2.45
	c-16.89,0.13-33.79,0.11-50.69-0.08c-1.11-0.01-2.21-1.62-3.32-2.48c1.3-0.81,2.59-2.32,3.91-2.34
	C58.02,185.3,70.94,185.35,84.32,185.33z"/>
<path class="st10" d="M119.23,182.95c0.73-0.66,1.14-1.29,1.69-1.48c1.34-0.44,2.75-0.68,4.14-1c-0.41,1.36-0.43,3.11-1.31,4.01
	c-3.24,3.29-6.77,6.29-10.55,9.73c-2.37-2.19-4.8-4.21-6.9-6.52c-0.63-0.69-0.34-2.21-0.48-3.34c1.12,0.19,2.42,0.09,3.32,0.64
	c1.45,0.89,2.63,2.21,4.19,3.58C115.32,186.67,117.15,184.93,119.23,182.95z"/>
<path class="st11" d="M117.34,246.54c1.56-1.39,2.77-2.71,4.24-3.62c0.89-0.55,2.17-0.45,3.28-0.64c-0.26,1.2-0.13,2.8-0.86,3.54
	c-3.35,3.37-6.93,6.49-10.73,9.98c-2.37-2.18-4.69-4.08-6.71-6.26c-0.66-0.72-0.56-2.15-0.81-3.26c1.2,0.21,2.57,0.12,3.57,0.69
	c1.33,0.76,2.36,2.03,3.79,3.32C114.53,249.02,115.81,247.9,117.34,246.54z"/>
<path class="st12" d="M123.04,226.17c-3.27,3.07-6.29,5.9-9.65,9.05c-2.43-2.16-4.79-4.03-6.84-6.19c-0.68-0.71-0.57-2.18-0.83-3.3
	c1.12,0.13,2.41-0.05,3.31,0.47c1.49,0.86,2.73,2.16,4.4,3.55c2.47-2.34,4.75-4.75,7.32-6.8c1.02-0.81,2.66-0.83,4.02-1.21
	C124.28,223.14,123.79,224.54,123.04,226.17z"/>
<path class="st13" d="M118.25,209.93c-1.75,1.63-3.24,3.04-5.02,4.72c-2.38-2.21-4.66-4.15-6.71-6.31c-0.63-0.66-0.65-1.91-0.94-2.9
	c1.13-0.02,2.49-0.45,3.35,0.03c1.48,0.81,2.65,2.18,4.26,3.59c2.74-2.41,5.24-4.82,7.99-6.9c0.94-0.71,2.5-0.59,3.78-0.84
	c-0.39,1.19-0.48,2.63-1.23,3.5C122.18,206.61,120.27,208.09,118.25,209.93z"/>
</svg>
