<?xml version="1.0" encoding="utf-8"?>
<!-- Generator: Adobe Adobe Illustrator 24.2.0, SVG Export Plug-In . SVG Version: 6.00 Build 0)  -->
<svg version="1.1" id="Layer_1" xmlns="http://www.w3.org/2000/svg" xmlns:xlink="http://www.w3.org/1999/xlink" x="0px" y="0px"
	 viewBox="0 0 298 273" style="enable-background:new 0 0 298 273;" xml:space="preserve">
<style type="text/css">
	.st0{fill:636363;}
	.st1{fill:#636363;}
	.st2{fill:#636363;}
	.st3{fill:#636363;}
	.st4{fill:#636363;}
	.st5{fill:#636363;}
	.st6{fill:#636363;}
	.st7{fill:#636363;}
	.st8{fill:#636363;}
	.st9{fill:#636363;}
	.st10{fill:#636363;}
	.st11{fill:#636363;}
	.st12{fill:#636363;}
	.st13{fill:#636363;}
	.st14{fill:#636363;}
	.st15{fill:#636363;}
	.st16{fill:#636363;}
	.st17{fill:#636363;}
	.st18{fill:#636363;}
	.st19{fill:#636363;}
</style>
<path class="st0" d="M295,266.78c-0.19,0.51-0.37,0.54-0.81,0.25c-0.25-0.31-0.24-0.8-0.23-1.29
	c-0.01-87.02-0.03-173.56-0.05-260.32c0-0.22-0.04-0.65,0.24-0.7c0.47-0.06,0.65-0.08,0.84-0.09C295,91.85,295,179.07,295,266.78z"
	/>
<path class="st1" d="M295,4.11c-0.19,0.53-0.38,0.55-1.07,0.56c-0.51,0-0.97,0.08-1.45,0.01C228.6,4.61,165.21,4.59,101.82,4.6
	c-1.38,0-2.75,0.18-4.13,0.28c-0.03-0.21-0.06-0.42-0.11-0.96C163.38,3.59,229.19,3.59,295,4.11z"/>
<path class="st2" d="M151.85,201.74c-2.42-2.99-4.57-5.71-6.01-7.53c-11.17,4.58-20.65,8.46-30.69,12.57c0,2.74,0.1,6.34-0.02,9.94
	c-0.19,5.24-2.53,7.5-7.72,7.56c-5.37,0.06-10.74,0.07-16.1,0.01c-5.27-0.06-7.18-1.96-7.3-7.15c-0.05-1.9,0-3.81,0-5.71
	c0-1.72,0-3.43,0-4.54c-9.99-4.09-19.51-7.98-30.03-12.29c-2.11,2.04-5.1,4.84-7.98,7.75c-3.34,3.39-6.47,3.33-9.8-0.07
	c-3.75-3.83-7.7-7.47-11.51-11.24c-3.41-3.38-3.39-6.23,0.03-9.76c2.64-2.73,5.33-5.4,7.42-7.52c-3.62-9.06-7.06-17.86-10.72-26.56
	c-0.43-1.03-2.08-2.07-3.25-2.18c-3.26-0.3-6.57-0.14-9.86-0.1c-4.26,0.04-6.5-2.1-6.58-6.27c-0.11-5.53-0.07-11.07,0.01-16.6
	c0.06-4.16,2.31-7.06,6.43-6.28c10.53,1.99,14.82-2.78,16.91-12.55c1.19-5.54,4.94-10.54,7.6-15.89c-2.6-2.61-5.28-5.27-7.92-7.97
	c-3.43-3.51-3.53-6.45-0.15-9.81c4.05-4.02,8.22-7.93,12.35-11.87c2.7-2.57,6.02-3.01,8.13-0.05c6.07,8.49,12.34,8.84,20.9,3.12
	c4.96-3.32,11.56-4.2,18.03-6.38c0-3.11-0.04-6.71,0.01-10.31c0.07-5.76,2.12-7.88,7.7-7.93c5.19-0.05,10.39-0.06,15.58-0.01
	c5.19,0.05,7.45,2.26,7.76,7.56c0.11,1.9,0.02,3.8,0.02,5.7c0,1.71,0,3.42,0,4.09c9.43,4.16,18.16,8.1,26.99,11.8
	c1.03,0.43,2.93-0.08,3.88-0.84c2.43-1.93,4.44-4.37,6.82-6.37c3.33-2.8,6.76-3.11,10.12,0.17c3.84,3.74,7.78,7.38,11.64,11.1
	c3.15,3.04,3.59,5.99,0.04,9.24c-3.02,2.76-7.42,5.62-7.99,8.98c-0.53,3.07,3.5,6.77,5.08,10.39c2.06,4.73,3.5,9.74,5.63,14.43
	c0.64,1.42,2.58,2.83,4.13,3.13c2.67,0.51,5.53,0.33,8.28,0.08c4.81-0.43,7.43,2.14,7.7,6.39c0.38,5.81,0.13,11.69-0.32,17.51
	c-0.29,3.77-2.78,5.59-6.78,5.48c-3.95-0.11-8.79-1.14-11.61,0.72c-2.51,1.65-2.55,6.79-4.09,10.2c-2.19,4.87-4.59,9.67-7.23,14.31
	c-1.32,2.32-1.74,3.95,0.7,5.66c1.26,0.88,2.26,2.14,3.39,3.21c7.66,7.29,7.66,7.81,0.14,14.91c-2.64,2.49-5.17,5.1-7.82,7.58
	C159.16,205.86,157.38,205.9,151.85,201.74z M55.03,174.32c16.69,15.36,36.47,20.19,58.32,15.91c31.56-6.17,52.91-34.77,49.54-66.62
	c-2.55-24.12-19.23-44.86-45.51-52.31c-42.91-12.16-88.37,21.84-80.91,69.08C38.57,153.6,45.07,164.53,55.03,174.32z"/>
<path class="st3" d="M97.63,5.34c1.43-0.56,2.81-0.74,4.19-0.74c63.39,0,126.78,0.01,190.76,0.29c0.78,0.51,1.03,0.68,1.33,0.75
	c0.02,86.54,0.04,173.08-0.17,260.2c-0.52,0.78-0.71,1.04-0.81,1.37c-1.03,0.07-2.06,0.2-3.09,0.2c-62.04,0-124.08-0.01-186.82-0.38
	c-1.92-0.2-3.14-0.05-4.36,0.1c-0.36-0.5-1.03-1-1.03-1.51c-0.06-12.25-0.05-24.5-0.05-37.08c3.87,0,7.41,0,11.42,0
	c0,9.07,0,17.99,0,27.29c58.33,0,116.2,0,174.85,0c0-1.75,0-3.58,0-5.4c0-76.42,0-152.85-0.03-229.27c0-1.86-0.4-3.71-0.84-6.07
	c-1.69-0.35-3.15-0.19-4.61-0.04c-1.03,0.09-2.05,0.26-3.08,0.26c-54.73,0-109.46-0.01-164.74-0.27c-0.64-0.31-0.72-0.37-0.81-0.43
	c0.12,0.16,0.24,0.33,0.36,0.49c-0.51,5.55-1.03,11.1-1.57,16.99c-3.33,0-6.84,0-10.94,0C97.58,23.23,97.58,14.52,97.63,5.34z"/>
<path class="st4" d="M196.86,154.12c2.46,1.51,4.61,2.89,7.12,4.49c5.1-6.99,10.04-13.76,15.19-20.81c1.75,1.11,3.44,2.18,5.69,3.6
	c-6.45,8.96-12.71,17.67-19.13,26.6c-4.8-3.23-9.16-6.16-14.16-9.51C193.51,156.72,195.03,155.35,196.86,154.12z"/>
<path class="st4" d="M221.12,42.39c1.26,0.89,2.23,1.58,3.63,2.58c-6.3,8.77-12.49,17.39-18.97,26.41
	c-4.61-3.04-9.01-5.93-13.72-9.04c1.26-1.86,2.37-3.5,3.68-5.43c2.69,1.67,5.26,3.27,8.26,5.13c4.43-6.1,8.68-12.1,13.14-17.94
	C217.9,43.12,219.57,42.82,221.12,42.39z"/>
<path class="st5" d="M208.65,94.79c3.54-4.91,6.87-9.51,10.46-14.48c1.8,1.11,3.48,2.15,5.73,3.53c-6.34,8.9-12.48,17.53-19,26.68
	c-4.64-3.02-9.14-5.94-14-9.1c1.46-2.03,2.63-3.66,3.92-5.46c2.74,1.74,5.19,3.29,8.12,5.15C205.42,99.08,206.93,97.08,208.65,94.79
	z"/>
<path class="st4" d="M219.17,194.65c-4.51,6.31-8.81,12.3-13.39,18.68c-4.66-3.07-9.06-5.96-13.82-9.1
	c1.31-1.88,2.46-3.52,3.76-5.37c2.73,1.71,5.19,3.26,8.2,5.15c5.01-6.87,10.02-13.75,15.24-20.92c1.86,1.15,3.55,2.19,5.65,3.49
	C222.86,189.37,221.12,191.85,219.17,194.65z"/>
<path class="st6" d="M244.09,92.16c8.99,0,17.47,0.12,25.94-0.06c3.52-0.07,4.81,1.05,3.61,4.8c-15.05,0-30.17,0-45.56,0
	c0-1.49,0-2.79,0-4.74C233.31,92.16,238.44,92.16,244.09,92.16z"/>
<path class="st7" d="M271.57,48.89c-13.59,0-26.72-0.09-39.85,0.05c-3.63,0.04-4.69-1.18-3.43-4.74c15.03,0,30,0,46.52,0
	C273.64,46.18,272.84,47.53,271.57,48.89z"/>
<path class="st8" d="M231.99,145.59c-3.81,0.37-4.89-1.09-3.85-4.61c15.05,0,30.17,0,45.28,0c0.71,4.52,0.71,4.58-3.62,4.59
	C257.36,145.61,244.91,145.59,231.99,145.59z"/>
<path class="st9" d="M263.79,193.85c-11.02,0-21.54-0.05-32.05,0.03c-2.89,0.02-4.76-0.43-3.43-4.35c14.31,0,28.58-0.06,42.84,0.12
	c1.12,0.01,2.21,1.79,3.31,2.75c-0.32,0.48-0.64,0.97-0.96,1.45C270.43,193.85,267.37,193.85,263.79,193.85z"/>
<path class="st10" d="M248.22,108.69c3.8,0,7.09-0.16,10.35,0.11c0.97,0.08,1.83,1.36,2.75,2.1c-0.96,0.85-1.91,2.41-2.9,2.43
	c-9.15,0.19-18.31,0.04-27.46,0.14c-3.36,0.04-3.8-1.49-2.65-4.77C234.67,108.69,241.19,108.69,248.22,108.69z"/>
<path class="st11" d="M257.12,162.14c-8.76,0.01-17.06-0.1-25.34,0.08c-3.59,0.08-4.76-1.14-3.51-4.85c10.73,0,21.52,0,32.49,0
	C261.65,160.26,261.73,162.52,257.12,162.14z"/>
<path class="st12" d="M227.88,208.25c1.03-1.19,2.07-2.59,3.13-2.61c8.95-0.18,17.9-0.22,26.85,0.02c1.33,0.04,2.6,1.77,3.91,2.73
	c-0.3,0.59-0.6,1.18-0.91,1.77c-10.6,0-21.2,0.02-31.8-0.06C228.67,210.1,228.28,209.18,227.88,208.25z"/>
<path class="st13" d="M242.02,60.23c5.71-0.01,10.91-0.19,16.08,0.1c1.25,0.07,2.42,1.7,3.62,2.62c-0.28,0.47-0.56,0.94-0.85,1.41
	c-10.8,0-21.61,0-32.51,0c-1.14-2.84-0.54-4.29,2.76-4.18C234.58,60.29,238.05,60.22,242.02,60.23z"/>
<path class="st14" d="M278.77,15.15c1.06-0.25,2.52-0.4,3.84-0.32C281.37,15.12,280.27,15.18,278.77,15.15z"/>
<path class="st15" d="M99.05,267.24c0.82-0.26,2.04-0.41,3.48-0.3C101.65,267.25,100.55,267.3,99.05,267.24z"/>
<path class="st15" d="M293.17,267.27c-0.14-0.39,0.05-0.65,0.56-0.95c0.22-0.1,0.22,0.39,0.19,0.63S293.41,267.34,293.17,267.27z"/>
<path class="st16" d="M293.91,5.42c-0.31,0.14-0.56-0.02-0.85-0.47c-0.1-0.2,0.36-0.28,0.59-0.23
	C293.88,4.77,293.92,5.2,293.91,5.42z"/>
<path class="st14" d="M110.09,15.05c-0.12-0.12-0.24-0.29-0.36-0.45c0.09,0.06,0.17,0.13,0.34,0.33
	C110.15,15.08,110.1,15.01,110.09,15.05z"/>
<path class="st17" d="M59.18,171.56c-0.37-1.34-1.04-2.68-1.05-4.03c-0.08-13.82-0.14-27.64,0.07-41.45
	c0.03-1.9,1.07-4.29,2.47-5.56c6.36-5.79,13.14-11.13,19.51-16.9c3.17-2.87,6.2-3.49,9.69-1.09c2.83,1.94,5.21,1.59,7.76-0.62
	c5.99-5.18,12.01-10.34,18.28-15.19c1.4-1.08,4.06-1.58,5.75-1.06c5.2,1.6,10.17,3.89,15.29,5.77c3.11,1.14,3.16,3.53,3.15,6.24
	c-0.06,21.76-0.06,43.53-0.04,65.29c0,1.89,0.19,3.78-0.03,6.21c-0.85,1.17-1.39,1.81-1.92,2.44c-1.12,0.05-2.23,0.11-3.78-0.33
	c-1.4-1.19-2.49-2.6-3.31-2.46c-4.25,0.72-8.42,1.83-12.63,2.8c-5.24,0.05-10.49,0.1-16.4-0.16c-2.26-0.8-3.86-1.28-5.32-1.82
	c0.05-0.02-0.05,0.02-0.56,0.05c-6.38-2.49-11.58,1.58-17.21,1.93c-0.19,0.04-0.37,0.09-1.05-0.16c-0.91-0.37-1.32-0.44-1.72-0.52
	c-2.52,0.22-5.04,0.45-8.39,0.28c-1.2-0.37-1.58-0.36-1.95-0.34c-0.57,0.12-1.14,0.24-1.53-0.2c0.81-0.77,1.45-0.99,2.09-1.2
	c-0.21-0.34-0.43-0.68-0.64-1.02c-0.77,0.67-1.54,1.33-2.3,2c0.02,0.21-0.08,0.36-0.8,0.39C61.1,171.05,60.14,171.3,59.18,171.56z
	 M82.44,136.26c0.06-0.1,0.18-0.26,0.15-0.31c-0.12-0.19-0.3-0.34-0.59-1.48c0-7.96,0-15.92,0-25.3c-4.56,3.87-7.67,6.85-11.12,9.35
	c-4.76,3.46-7.91,7.3-7.68,13.79c0.42,11.67,0.12,23.37,0.12,35.09c6.51,0,12.44,0,18.53,0c0-8.11,0-15.86,0.75-23.76
	c2.3-1.83,2.23-3.23-0.63-4.89C82.02,137.99,82.07,137.22,82.44,136.26z M135.29,167.3c-0.16-0.6-0.32-1.21-0.73-2.75
	c-0.02-18.64-0.61-37.31,0.19-55.92c0.38-8.99-1.38-14.8-10.88-16.41c-0.33-0.06-0.67-0.01-1.16-0.01
	c-0.37,0.85-0.77,1.77-1.82,3.29c-0.16,0.84-0.45,1.67-0.45,2.51c-0.03,19.52-0.04,39.05,0.03,58.57c0,1.26,0.69,2.53,1.32,4.54
	c0.24,2.17,0.47,4.33,0.7,6.39C126.83,167.51,130.78,167.51,135.29,167.3z M92.89,109.43c-1.76-0.57-3.52-1.15-5.46-1.78
	c0,20.13,0,39.9,0,59.77c4.27,0,8.29,0,12.54,0c0-16.25-0.3-32.13,0.16-47.98C100.3,114,98.69,111.07,92.89,109.43z M78.02,168.94
	c-0.16,0.12-0.32,0.23-0.49,0.35C77.76,169.26,77.98,169.24,78.02,168.94z"/>
<path class="st18" d="M96.12,169.67c2.01,0.49,3.61,0.98,5.39,1.7c-7.1,0.28-14.37,0.32-22.13,0.3
	C84.54,171.25,89.74,167.19,96.12,169.67z"/>
<path class="st18" d="M118.87,171.68c3.72-1.04,7.9-2.16,12.15-2.87c0.83-0.14,1.92,1.27,2.9,2.39
	C129.07,171.65,124.21,171.7,118.87,171.68z"/>
<path class="st18" d="M138.41,171.67c0.24-0.7,0.78-1.34,1.65-2.03C139.84,170.3,139.27,171.02,138.41,171.67z"/>
<path class="st18" d="M63.44,170.45c0.73-0.67,1.5-1.34,2.26-2c0.21,0.34,0.43,0.68,0.64,1.02c-0.64,0.22-1.28,0.43-2.34,0.8
	C63.59,170.42,63.48,170.45,63.44,170.45z"/>
<path class="st18" d="M59.59,171.65c0.55-0.34,1.51-0.6,2.87-0.82C61.9,171.16,60.95,171.45,59.59,171.65z"/>
<path class="st18" d="M76.24,171.27c0.3-0.27,0.71-0.19,1.33,0.11C77.31,171.61,76.83,171.61,76.24,171.27z"/>
<path class="st18" d="M65.95,171.24c0.22-0.39,0.59-0.41,1.54-0.4C67.4,171.11,66.76,171.36,65.95,171.24z"/>
<path class="st19" d="M121.22,95.2c0.38,21.2,0.43,42.71,0.4,64.69c-0.46-0.78-1.14-2.04-1.14-3.31
	c-0.07-19.52-0.05-39.05-0.03-58.57C120.45,97.17,120.74,96.34,121.22,95.2z"/>
<path class="st2" d="M82.21,143.72c-2.77,0.98-5.17,1.88-7.57,2.79c-0.5-0.44-1-0.89-1.5-1.33c0.79-2.11,1.1-4.71,2.56-6.14
	c0.84-0.82,3.55,0.28,5.78,0.5C84.82,140.42,84.89,141.82,82.21,143.72z M76.68,140.33c-0.09-0.05-0.18-0.1-0.26-0.15
	c0.12,0.15,0.25,0.29,0.46,1.09c0.97,0.15,1.93,0.3,2.9,0.44c0.02-0.36,0.04-0.73,0.06-1.09C78.83,140.62,77.81,140.62,76.68,140.33
	z"/>
<path class="st16" d="M135.02,167.41c-0.31-0.35-0.34-0.8-0.29-1.59C134.97,166.09,135.13,166.69,135.02,167.41z"/>
<path class="st18" d="M78.12,169.08c-0.13,0.16-0.36,0.18-0.58,0.21C77.69,169.17,77.86,169.05,78.12,169.08z"/>
<path class="st2" d="M82.28,136.36c-0.15,0.09-0.27-0.41-0.21-0.66c0.22-0.08,0.39,0.07,0.52,0.26
	C82.62,136,82.49,136.16,82.28,136.36z"/>
<path class="st12" d="M66.68,125.13c1.69-0.45,2.97-0.82,4.89-1.4c0.14,2.9,0.25,5.38,0.39,8.22c-1.98,0-3.59,0-5.7,0
	C66.26,129.67,66.26,127.43,66.68,125.13z"/>
<path class="st17" d="M76.79,140.62c1.02,0,2.03,0,3.05,0c-0.02,0.36-0.04,0.73-0.06,1.09c-0.97-0.15-1.93-0.3-2.94-0.77
	C76.79,140.62,76.79,140.62,76.79,140.62z"/>
<path class="st17" d="M76.79,140.62c-0.13-0.15-0.25-0.29-0.37-0.44c0.09,0.05,0.18,0.1,0.32,0.29
	C76.79,140.62,76.79,140.62,76.79,140.62z"/>
</svg>
