<?xml version="1.0" encoding="utf-8"?>
<!-- Generator: Adobe Adobe Illustrator 24.2.0, SVG Export Plug-In . SVG Version: 6.00 Build 0)  -->
<svg version="1.1" xmlns="http://www.w3.org/2000/svg" xmlns:xlink="http://www.w3.org/1999/xlink" x="0px" y="0px"
	 viewBox="0 0 298 273" style="enable-background:new 0 0 298 273;" xml:space="preserve">
<style type="text/css">
	.st0{fill:#636363;}
</style>
<g id="Layer_1">
	<g>
		<g>
			<path class="st0" d="M167.35,273.9c-10.76,0-21.52,0-32.91-0.22c-1.29-0.8-1.88-1.56-2.65-1.95c-5.12-2.61-7.01-7.13-7.24-12.48
				c-0.48-11.19-6.71-18.04-16.38-22.43c-1.5-0.68-2.84-0.85-4.55,1.21c0,4.4,0.17,9.45-0.04,14.5c-0.36,8.53-3.8,15.25-11.92,18.89
				c-1.28,0.57-2.27,1.39-3.08,2.49c-2.71,0-5.43,0-8.77-0.21c-1.62-1.11-2.73-1.82-3.95-2.44c-7.25-3.7-11.29-9.49-11.26-17.84
				c0.01-1.79-0.16-3.6,0.02-5.38c0.33-3.28-0.96-5.64-3.28-7.89c-5.36-5.19-10.58-10.53-15.72-15.94
				c-4.97-5.23-5.16-11.43-0.58-16.91c2.32-2.77,4.27-5.74,5.93-8.93c1.49-2.87,1.69-5.76,0.58-8.97c-1.75,1.1-2.08,2.62-2.42,4.02
				c-1.36,5.65-6.65,8.32-11.85,8.24c-5.55-0.09-10.17-4.11-11.42-9.65c-0.73-3.25-0.35-6.56-0.51-9.84
				c-0.14-2.95,0.48-5.96-0.47-8.67c-1.49-1.49-3.2-1.16-4.81-1.29c-3.75-0.3-4.93-1.49-5.1-5.3c-0.15-3.44-0.11-6.88-0.31-10.31
				c-0.3-4.96,0.05-9.49,6.04-10.49c1.15-4.42,0.52-8.48,0.75-12.48c0.1-1.78-0.17-3.72,1.55-4.91c2.29-1.59,2.46-3.84,2.44-6.34
				c-0.08-10.62-0.12-21.24-0.04-31.86c0.05-6.79,3.51-11.61,9.58-13.65c2.74-0.92,5.61-0.49,8.43-0.68
				c1.99-0.13,4.19,0.39,5.91-1.47c-0.16-2.32-1.72-3.85-3.08-5.31c-6.34-6.86-5.89-14.23,1.08-20.74
				c5.12-4.79,9.99-9.85,14.84-14.92c6.45-6.75,13.38-7.23,20.29-0.84c4.54,4.2,9.99,5.99,16.26,6.28
				c14.88,0.7,26.38-12.72,25.89-24.07c-0.21-4.89,2.07-8.95,6.29-11.67c1.05-0.67,1.82-1.52,2.44-2.55c10.76,0,21.52,0,32.89,0.24
				c0.91,0.56,1.16,1.01,1.54,1.19c6.26,3.02,8.69,8.12,8.48,14.92c-0.13,4.2,1.96,7.78,4.19,11.14
				c8.44,12.73,26.89,14.22,38.13,4.37c7.2-6.31,12.8-5.96,19.57,0.69c5.01,4.91,9.84,10.02,14.95,14.82
				c6.83,6.41,8.01,13.78,1.09,21.47c-7.13,7.92-7.94,17.57-3.64,27.22c4.11,9.23,11.42,14.28,21.7,14.55
				c4.8,0.13,8.62,2.09,11.34,6.08c0.76,1.12,1.41,2.31,2.81,2.75c0,11.1,0,22.19-0.29,33.81c-0.74,0.9-1.37,1.19-1.62,1.67
				c-2.92,5.56-7.75,7.52-13.69,7.49c-1.8-0.01-3.54,0.22-5.26,0.83c-18.18,6.46-22.56,28.58-11.09,41.42
				c0.79,0.89,1.57,1.81,2.24,2.8c3.07,4.52,3.05,10.46-0.56,14.55c-6.32,7.16-13.06,13.94-20.17,20.31
				c-3.69,3.3-7.99,4.2-12.82,1.97c-2.66-1.23-4.52-3.36-6.82-4.97c-8.68-6.08-17.9-6.51-26.99-1.76
				c-8.31,4.34-12.95,11.56-13.21,21.29c-0.13,4.71-1.91,8.72-6.06,11.33C168.89,271.8,167.77,272.49,167.35,273.9z M58.7,101.39
				c-2.6,0.16-5.44-0.66-7.81,2.1c-0.5,6.08-0.36,12.5-0.28,18.91c0.07,5.17,2.74,6.46,7.7,3.61c0.58-2.99,0.39-6.13,0.39-9.25
				c-0.01-5.56,1.3-6.98,6.76-7c10.14-0.04,20.28-0.02,30.43-0.01c6.64,0,7.73,1.12,7.74,7.84c0.01,34.57,0.02,69.13,0.04,103.7
				c0,6.44,0.04,6.44,6.16,8.48c12.69,4.22,21.69,16.05,22.47,29.53c0.25,4.31,1.76,6.3,5.84,6.41c8.2,0.21,16.41,0.19,24.6-0.01
				c3.63-0.09,5.46-2.09,5.59-5.7c0.11-3.05,0.96-5.86,1.75-8.74c4.55-16.67,23.26-27.36,41.15-21.73c4.79,1.51,8.83,4.18,12.62,7.4
				c3.34,2.83,5.24,2.95,8.23,0.06c6.12-5.91,12.02-12.05,17.97-18.14c2.12-2.18,2-4.52,0.12-6.83c-0.75-0.93-1.51-1.85-2.27-2.77
				c-6.78-8.18-8.93-17.89-6.55-27.81c3.55-14.82,14.31-24.48,30.46-25.93c4.75-0.43,6.37-1.86,6.44-6.72
				c0.11-7.63,0.08-15.26-0.08-22.89c-0.1-4.92-1.56-6.32-6.52-6.56c-4.25-0.21-8.21-1.48-12-3.19
				c-19.59-8.87-25.58-35.2-10.74-51.69c3.84-4.26,3.64-6.04-0.51-10.25c-4.71-4.79-9.46-9.54-14.21-14.3
				c-5.31-5.32-6.2-5.45-11.79-0.63c-10.37,8.95-26.11,9.78-37.18,3.32c-10.35-6.05-15.72-15.13-16.81-26.92
				c-0.37-4.07-1.46-6.03-4.96-6.28c-8.77-0.62-17.57-0.67-26.35,0.02c-3,0.23-4.57,2.15-4.64,5.07c-0.07,3.19-0.9,6.15-1.75,9.2
				c-4.68,16.61-23.22,27.48-41.63,21.56c-4.79-1.54-8.78-4.34-12.55-7.54c-2.15-1.82-4.44-2.78-6.79-0.63
				c-6.72,6.15-13.32,12.43-19.23,19.37c-1.81,2.13-1.68,4.48,0.18,6.51c3.46,3.76,5.93,8.17,8.11,12.5
				c2.4,1.03,4.66,0.83,6.88,0.84c7.9,0.03,15.81-0.04,23.71,0.07c6.89,0.1,11.95,4.06,13.85,10.59c0.72,2.49,0.42,5.06,0.4,7.59
				c-0.04,5.58-1.28,6.8-6.92,6.82C84.33,101.39,71.95,101.38,58.7,101.39z M46.07,134.79c-5.68,0.54-11.54-1.12-16.69,0.94
				c-1.08,1.62-0.86,2.85-0.88,4.03c-0.12,6.6,0.15,6.85,6.66,6.85c6.86,0,13.72-0.04,20.58,0.09c3.72,0.07,5.57,1.81,5.7,5.46
				c0.18,4.93,0.17,9.88,0.02,14.81c-0.11,3.7-1.58,4.99-5.23,5.26c-1.75,0.13-3.63-0.32-5.06,1.14c-0.95,4.48-0.78,5.02,2.95,6.58
				c3.7,1.55,7.46,2.97,11.25,4.31c5.52,1.95,6.04,2.59,6.04,8.32c0,8.98,0,17.96,0.01,26.94c0.01,10.77-0.03,21.55,0.05,32.32
				c0.05,6.59,3.67,11.79,9.15,13.51c7.75,2.44,15.36-4.65,15.32-11.78c-0.2-38.01-0.04-76.02-0.02-114.03
				c0-1.31,0.26-2.72-0.83-4.31C79.06,134.44,63,134.86,46.07,134.79z M43.13,104.84c0.02-2.09-0.04-4.13,1.28-6
				c2.54-3.61,5.97-5.17,10.3-5.16c11.76,0.03,23.52,0,35.29-0.05c1.74-0.01,3.59,0.44,5.12-0.78c1.67-5.81-0.27-8.73-6.23-8.76
				c-16.23-0.1-32.46-0.06-48.68,0.04c-5.46,0.03-7.29,1.84-7.36,7.32c-0.15,10.45-0.1,20.91-0.08,31.37
				c0.01,3.78,0.98,4.7,4.79,4.72c1.61,0.01,3.3,0.19,5.57-0.97C43.13,119.6,43.13,112.64,43.13,104.84z M64.61,206.1
				c0-3.58,0.02-7.15-0.01-10.73c-0.03-2.47-0.71-4.39-4.21-4.17c-1.53,8.17-4.96,15.44-10.46,21.73c-1.42,1.62-0.94,3.77,0.35,5.4
				c3.34,4.2,7.25,7.86,11.24,11.43c0.54,0.48,1.33,0.65,2.65-0.15C65.09,222.35,64.32,214.65,64.61,206.1z M54.01,159.4
				c-0.08-1.31,0.37-2.7-1.16-4.74c-9.45-0.13-19.53-0.79-29.4,0.23c-2.34,8.03-1.18,9.68,6.1,9.65c5.36-0.02,10.71,0.03,16.06-0.05
				c2.49-0.04,5.05,0.46,7.23-0.51C54.26,162.78,54.06,161.4,54.01,159.4z M70.62,127.49c6.84,0.01,13.69,0.07,20.53,0
				c4.01-0.04,4.71-0.79,4.73-4.72c0.01-1.59,0.43-3.31-1.49-5.37c-8.76,0.03-18.12-0.35-27.25,0.19
				C65.39,124.16,65.92,125.8,70.62,127.49z M34.15,192.37c3.85,2.85,7.89,2.11,8.56-2.06c0.91-5.65,0.72-11.45-0.02-17.19
				c-3.41-1.16-6.36-1.39-9.67,0.45C32.96,179.61,31.67,185.75,34.15,192.37z"/>
			<path class="st0" d="M158.05,196.76c11.41-2.1,21.58-5.99,30.26-13.32c3.45-2.91,6.44-6.2,9.26-9.69c1.89-2.34,1.63-4.26-0.39-6.29
				c-2.58-2.59-5.77-3.82-9.27-3.86c-12.23-0.13-24.46-0.08-36.68-0.07c-1.35,0-2.67,0.23-4.38,1.39c0.14,4.66-4.14,5.91-7.41,8.48
				c-7.53,5.92-16.05,5.45-24.69,5.16c-2.7-0.09-4.09-1.57-4.46-4.1c-0.17-1.18-0.16-2.39-0.16-3.58c0-15.11-0.01-30.22,0.02-45.33
				c0.02-6.42,1.22-6.91,7.6-7.68c9.81-1.19,17.57,3.04,25.43,7.76c2.72,1.63,2.83,4.37,3.89,6.76c2.35,1.14,4.6,1.04,6.84,0.05
				c1.67-2.77-0.11-6.19,1.88-8.7c2.13-2.69,5.93-0.23,8.67-2.91c0.47-4.16,0.43-8.77,0.1-13.35c-0.22-3.05-2.62-3.6-5.25-3.58
				c-5.82,0.04-11.63,0.05-17.45,0c-5.42-0.05-6.52-1.18-6.61-6.6c-0.03-1.94-0.05-3.89,0-5.83c0.1-4.77,1.11-5.87,5.79-5.95
				c5.81-0.1,11.63-0.01,17.45-0.09c4.36-0.06,5.8-0.85,8.81-4.63c-3.25-1.67-6.66-2.5-10.15-2.78c-12.92-1.06-25.2,1.08-36.51,7.78
				c-1.15,0.68-2.4,1.2-3.65,1.69c-1.8,0.71-3.2,0.07-4.21-1.5c-0.97-1.51-0.51-2.91,0.54-4.11c1.5-1.71,3.52-2.78,5.5-3.78
				c12.95-6.57,26.49-9.28,41.05-7.07c11.01,1.68,20.91,5.71,29.85,12.19c2.21,1.6,4.44,2.27,7.05,2.24
				c3.28-0.05,6.56-0.06,9.84,0.03c4.35,0.11,5.87,1.55,6,6c0.14,4.9,0.84,9.99-3.42,13.66c1.72,4.37,3.74,8.16,4.92,12.36
				c2,7.1,3.21,14.27,3.14,21.61c-0.03,3.21,0.79,5.78,2.94,8.13c7.4,8.09,10.78,17.73,10.66,28.65c-0.04,3.78,0.54,7.36,1.95,10.93
				c2.04,5.16,0.19,7.66-5.41,7.72c-7.75,0.1-15.51,0.08-23.26,0.05c-6.07-0.02-6.87-1.05-5.92-7.16c0.06-0.37-0.26-0.8-0.42-1.25
				c-2.15-0.14-3.19,1.57-4.49,2.65c-12.78,10.67-27.58,15.92-44.08,15.74c-11.77-0.13-22.98-3.07-33.04-9.55
				c-0.75-0.48-1.58-0.89-2.19-1.52c-1.16-1.19-1.36-2.66-0.56-4.13c0.73-1.33,2.04-1.78,3.45-1.53c1.16,0.21,2.36,0.54,3.37,1.12
				C131.89,195.62,144.39,198,158.05,196.76z M222.01,176.92c1.32-0.93,1.06-2.31,1.1-3.65c0.22-7.04-2.39-13.2-6.37-18.7
				c-6.31-8.73-14.99-13.51-25.81-13.73c-11.76-0.25-23.52-0.15-35.28-0.22c-9.15-0.05-9.15-0.06-9.13,9.03
				c0.02,6.53,0.39,6.92,6.76,6.91c11.76-0.01,23.52,0,35.28-0.03c8.34-0.02,14.05,4.02,17.69,11.35c1.35,2.72,0.63,5.91,2.03,9.02
				C212.53,178.13,216.95,177.6,222.01,176.92z M196.96,103.93c-4.38,0.2-8.86-0.74-13.46,0.86c-0.82,5.73-1.11,11.24-0.26,16.42
				c2.96,2.12,6.52-0.16,8.77,2.69c2.04,2.59,0.32,5.91,1.92,8.75c4.91,1.6,9.89,3.23,14.6,4.77c1.24-0.9,1.31-1.8,1.27-2.7
				c-0.42-10.34-3.58-19.83-8.8-28.69C200.25,104.76,199.17,104.12,196.96,103.93z M122.39,126.11c-1.47,0.02-2.99-0.27-4.35,0.54
				c-1.42,3.93-1.32,39.84,0.16,43.65c2.42,0.83,4.8,1.13,7.3-1.23c0-13.07,0-26.37,0-39.66
				C125.5,127.69,124.83,126.53,122.39,126.11z M132.69,138.49c-0.03,9.58-0.39,19.18,0.19,29.04c4.07-0.86,6.6-2.13,6.63-5.87
				c0.06-8.8,0.18-17.61,0.02-26.41c-0.07-3.82-1.93-5.08-6.17-4.98C132.04,132.65,133,135.25,132.69,138.49z M167.77,97.55
				c0.47,1.58,1.73,2.33,3.08,3.03c2.69,1.39,5.39,1.16,7.42-0.89c1.73-1.75,3.19-3.98,2.17-6.83c-1.06-2.96-3.09-4.71-6.2-5
				C169.43,87.41,166.82,90.94,167.77,97.55z M175,129.86c-4.25,0.65-8.93-1.54-13.34,1.52c3.96,2.72,20.94,2.56,24.06-0.15
				C182.57,128.83,179.04,130.34,175,129.86z M201.31,92.78c-10.57-0.49-10.57-0.49-12.85,1.83c2.92,2.44,13.32,2.47,16.34,0
				C204.5,93.1,203.25,93.05,201.31,92.78z M157.37,96.2c1.33-0.42,2.08-1.12,0.97-3.11c-5.06-0.41-10.39-1.51-15.56,1.53
				C147.16,97.34,152,95.89,157.37,96.2z M171.79,116.21c0.34,1.99-0.77,4.53,1.98,5.71c2.69-3.35,2.55-9.93-0.37-12.92
				C171.02,110.69,172.02,113.23,171.79,116.21z M214.53,187.69c2.57-0.1,5.21,0.32,8.19-0.65c-4.02-1.8-9.36-1.76-12.77-0.13
				C211.08,187.91,212.47,187.51,214.53,187.69z"/>
			<path class="st0" d="M81.51,256.92c-1.7-1.59-2.92-3.15-1.97-5.26c0.95-2.13,2.44-3.95,5.05-3.4c2.37,0.49,3.86,2.12,3.76,4.75
				c-0.09,2.58-1.59,4.04-4.01,4.57C83.47,257.76,82.59,257.54,81.51,256.92z"/>
		</g>
	</g>
</g>
</svg>
