<?xml version="1.0" encoding="utf-8"?>
<!-- Generator: Adobe Adobe Illustrator 24.2.0, SVG Export Plug-In . SVG Version: 6.00 Build 0)  -->
<svg version="1.1" id="Layer_1" xmlns="http://www.w3.org/2000/svg" xmlns:xlink="http://www.w3.org/1999/xlink" x="0px" y="0px"
	 viewBox="0 0 298 273" style="enable-background:new 0 0 298 273;" xml:space="preserve">
<style type="text/css">
	.st0{fill:#636363;}
</style>
<path class="st0" d="M186.46,270c-33.63,0-43.73-10.81-45.84-45.65c-2.25,0-6.71,0-8.7,0c-27.52,0-55.05,0.02-82.57-0.02
	c-10.95-0.02-12.88-1.98-12.88-12.95c-0.01-34.01,0.02-68.02,0.03-102.03c0-2.03,0.21-4.14-2.17-5.7c-6.15,2.3-12.86,7.3-18.32-1.42
	c0-10.41,0-20.83,0.14-31.98c3.58-8.18,11.71-9.2,17.78-12.22C69,40.57,104.55,24.05,139.89,7.12c4.72-2.26,9.44-3.98,14.44-1.67
	c7.81,3.61,15.4,7.7,23.19,11.34c7.46,3.49,14.55,7.9,22.82,9.93c2.92-7.98-2.23-17.02,4.59-23.73c13.31,0,26.62,0,40.58,0.26
	c4.02,2.92,5.04,6.34,4.92,10.61c-0.29,10.85-0.15,21.72-0.19,32.58c-0.01,2.57,0.02,5.06,2.86,6.43
	c6.92,3.35,13.68,7.07,20.77,10.03c4.22,1.76,7.26,4.13,7.52,8.66c0.46,8.15,0.61,16.32,0.62,24.49c0.01,9.95-4.77,13.05-13.81,9.22
	c-1.7-0.72-3.47-1.28-4.83-1.78c-2.44,1.34-2.12,3.19-2.18,4.89c-0.42,11.76-0.22,23.51-0.88,35.3c-1.31,23.38-1.25,46.85-1.4,70.29
	c-0.05,7.33-3.45,10.31-10.31,10.37c-4.82,0.04-9.64,0.01-14.69,0.01C233.9,263.27,209.05,270,186.46,270 M126.08,86.45
	c7.69-2.3,11.37,0.41,11.74,8.34c0.28,6.03-0.96,12.17,0.84,18.58c5.87,0.28,11.44,0.84,17.64-0.57c0-6.2-0.04-12.12,0.01-18.05
	c0.04-5.11,1.78-9.26,7.65-9.27c5.81-0.01,7.78,4.17,7.95,9.21c0.2,6.09,0.05,12.2,0.05,18.9c10.1,0.05,19.43,2.38,21.53,13.8
	c1.9,10.34-3.75,17.01-14.14,20.73c1.88,21.93,0.44,42.63-24.83,50.51c0,41.34-0.49,58.59,32.85,58.59
	c1.07-0.35,31.62,4.31,31.62-34.96c0-13.23-0.19-26.46,0.02-39.68c0.1-5.94,1.79-6.33,8.37-6.33c3.69,0,6.43,0.06,6.43,4.72
	c0,8,0.21,19.74,0.21,29.55c5.16,0,8.4,0.11,11.84,0.11c0.13-1.23-0.64-4.42-0.62-5.66c0.64-35.21,0.76-70.43,1.4-105.64
	c0.03-1.88,0.05-3.78,0.39-5.62c1.29-6.98,4.7-9.96,12.01-6.63c2.26,1.03,4.84,2.45,8.06,1.37V75.13c-3.97-2-7.81-4.74-12.09-5.94
	c-16.12-4.53-21.73-14.72-19.25-30.95c1-6.58,1.21-13.67-0.51-20.48h-19.6c0,6.61,0.13,12.67-0.03,18.72
	c-0.17,6.42-5.56,10.7-10.59,8.49c-4.9-2.15-9.7-4.51-14.53-6.81c-14.03-6.68-28.06-13.38-41.75-19.92
	c-14.84,7.2-29.08,14.18-43.37,21.04c-22.77,10.92-45.4,22.14-68.45,32.44c-9.3,4.15-6.04,10.61-6.17,17.57
	c2.59-0.68,4.38-1.1,6.15-1.63c11.61-3.49,13.6-2.02,13.59,10.16c-0.01,34.96-0.04,69.91-0.01,104.87c0,2.13-0.64,4.46,1.44,6.53
	h86.5c1.19-3.01-0.04-4.62-0.04-10.93c-25.67-7.58-26.06-28.46-24.51-49.98c-10.01-2.82-16.99-8.46-16.04-18.4
	c1.3-13.57,11.93-16.55,24.24-16.34c0-5.87-0.08-11.02,0.03-16.17C122.18,93.59,121.02,89.32,126.08,86.45z M128.34,164.81
	c0.14,13.4,9.99,22.11,21.67,19.68c15.52-3.23,16.76-20.43,13.52-36.23c-11.3,0-22.69,0-34.26,0
	C127.53,153.62,128.73,158.83,128.34,164.81z M134.2,128.92c-6.8,0-13.6,0-20.88,0c0.3,0.53-0.03,1.99,0.03,2.41
	c0.47,2.93,0.84,2.22,0.97,2.22c22.58,0,43.78-0.46,64.31-0.46c-0.02-1.39-0.04-2.78-0.06-4.17
	C164.1,128.92,149.62,128.92,134.2,128.92z"/>
<path class="st0" d="M179.29,212.12c8.32-0.03,16.16,0.06,24-0.12c4.6-0.1,8.38,2,8.38,6.74c0,6.65-1.22,8.06-7.66,8.01
	c-13.66,0-22.71,0.06-34.07,0.06c-8.78-0.07-8.02-4.54-8.02-8.27c0-6.08,2.57-6.46,8.74-6.46
	C173.37,212.06,176.09,212.11,179.29,212.12z"/>
</svg>
