{"asset":{"copyright":"Copyright 2020 Trimble Inc. All Rights Reserved.","generator":"SketchUp GLTF Exporter","version":"2.0"},"accessors":[{"bufferView":0,"componentType":5123,"count":18,"type":"SCALAR"},{"bufferView":1,"componentType":5126,"count":18,"type":"VEC3","max":[195.0,120.0,185.0],"min":[10.0,60.0,142.0]},{"bufferView":2,"componentType":5126,"count":18,"type":"VEC3","max":[1.645450041454246e-16,0.5825189352035523,0.8128170967102051],"min":[1.645450041454246e-16,0.5825189352035523,0.8128170967102051]},{"bufferView":3,"componentType":5123,"count":6,"type":"SCALAR"},{"bufferView":4,"componentType":5126,"count":6,"type":"VEC3","max":[195.0,120.0,142.0],"min":[10.0,60.0,10.0]},{"bufferView":5,"componentType":5126,"count":6,"type":"VEC3","max":[0.0,0.9103664755821228,-0.41380295157432558],"min":[0.0,0.9103664755821228,-0.41380295157432558]},{"bufferView":6,"componentType":5123,"count":3,"type":"SCALAR"},{"bufferView":7,"componentType":5126,"count":3,"type":"VEC3","max":[195.0,120.0,185.0],"min":[152.5,60.0,10.0]},{"bufferView":8,"componentType":5126,"count":3,"type":"VEC3","max":[0.8160244822502136,0.5780173540115356,2.067978332034416e-17],"min":[0.8160244822502136,0.5780173540115356,2.067978332034416e-17]},{"bufferView":9,"componentType":5123,"count":3,"type":"SCALAR"},{"bufferView":10,"componentType":5126,"count":3,"type":"VEC3","max":[52.5,120.0,185.0],"min":[10.0,60.0,10.0]},{"bufferView":11,"componentType":5126,"count":3,"type":"VEC3","max":[-0.8160244822502136,0.5780173540115356,1.033989166017208e-17],"min":[-0.8160244822502136,0.5780173540115356,1.033989166017208e-17]},{"bufferView":12,"componentType":5123,"count":3,"type":"SCALAR"},{"bufferView":13,"componentType":5126,"count":3,"type":"VEC3","max":[183.4610137939453,111.871826171875,185.0],"min":[146.7184600830078,60.0,20.0]},{"bufferView":14,"componentType":5126,"count":3,"type":"VEC3","max":[-0.8160244226455689,-0.5780174136161804,0.0],"min":[-0.8160244226455689,-0.5780174136161804,0.0]},{"bufferView":15,"componentType":5123,"count":3,"type":"SCALAR"},{"bufferView":16,"componentType":5126,"count":3,"type":"VEC3","max":[58.28153991699219,111.871826171875,185.0],"min":[21.538986206054689,60.0,20.0]},{"bufferView":17,"componentType":5126,"count":3,"type":"VEC3","max":[0.8160244226455689,-0.5780174732208252,-7.78096707620866e-18],"min":[0.8160244226455689,-0.5780174732208252,-7.78096707620866e-18]},{"bufferView":18,"componentType":5123,"count":6,"type":"SCALAR"},{"bufferView":19,"componentType":5126,"count":6,"type":"VEC3","max":[205.0,60.0,205.0],"min":[0.0,0.0,205.0]},{"bufferView":20,"componentType":5126,"count":6,"type":"VEC3","max":[0.0,0.0,1.0],"min":[0.0,0.0,1.0]},{"bufferView":21,"componentType":5123,"count":6,"type":"SCALAR"},{"bufferView":22,"componentType":5126,"count":6,"type":"VEC3","max":[183.4610137939453,60.0,185.0],"min":[183.4610137939453,0.0,20.0]},{"bufferView":23,"componentType":5126,"count":6,"type":"VEC3","max":[-1.0,0.0,0.0],"min":[-1.0,0.0,0.0]},{"bufferView":24,"componentType":5123,"count":6,"type":"SCALAR"},{"bufferView":25,"componentType":5126,"count":6,"type":"VEC3","max":[205.0,60.0,0.0],"min":[0.0,0.0,0.0]},{"bufferView":26,"componentType":5126,"count":6,"type":"VEC3","max":[0.0,0.0,-1.0],"min":[0.0,0.0,-1.0]},{"bufferView":27,"componentType":5123,"count":6,"type":"SCALAR"},{"bufferView":28,"componentType":5126,"count":6,"type":"VEC3","max":[205.0,60.0,205.0],"min":[205.0,0.0,0.0]},{"bufferView":29,"componentType":5126,"count":6,"type":"VEC3","max":[1.0,0.0,0.0],"min":[1.0,0.0,0.0]},{"bufferView":30,"componentType":5123,"count":6,"type":"SCALAR"},{"bufferView":31,"componentType":5126,"count":6,"type":"VEC3","max":[183.4610137939453,60.0,185.0],"min":[21.538986206054689,0.0,185.0]},{"bufferView":32,"componentType":5126,"count":6,"type":"VEC3","max":[0.0,0.0,-1.0],"min":[0.0,0.0,-1.0]},{"bufferView":33,"componentType":5123,"count":6,"type":"SCALAR"},{"bufferView":34,"componentType":5126,"count":6,"type":"VEC3","max":[21.538986206054689,60.0,185.0],"min":[21.538986206054689,0.0,20.0]},{"bufferView":35,"componentType":5126,"count":6,"type":"VEC3","max":[1.0,0.0,0.0],"min":[1.0,0.0,0.0]},{"bufferView":36,"componentType":5123,"count":6,"type":"SCALAR"},{"bufferView":37,"componentType":5126,"count":6,"type":"VEC3","max":[183.4610137939453,111.871826171875,147.8251953125],"min":[21.538986206054689,60.0,20.0]},{"bufferView":38,"componentType":5126,"count":6,"type":"VEC3","max":[0.0,-0.9266110062599182,0.3760213851928711],"min":[0.0,-0.9266110062599182,0.3760213851928711]},{"bufferView":39,"componentType":5123,"count":24,"type":"SCALAR"},{"bufferView":40,"componentType":5126,"count":24,"type":"VEC3","max":[205.0,0.0,205.0],"min":[0.0,0.0,0.0]},{"bufferView":41,"componentType":5126,"count":24,"type":"VEC3","max":[0.0,-1.0,0.0],"min":[0.0,-1.0,0.0]},{"bufferView":42,"componentType":5123,"count":30,"type":"SCALAR"},{"bufferView":43,"componentType":5126,"count":30,"type":"VEC3","max":[205.0,60.0,205.0],"min":[0.0,60.0,0.0]},{"bufferView":44,"componentType":5126,"count":30,"type":"VEC3","max":[-0.0,1.0,-0.0],"min":[-0.0,1.0,-0.0]},{"bufferView":45,"componentType":5123,"count":6,"type":"SCALAR"},{"bufferView":46,"componentType":5126,"count":6,"type":"VEC3","max":[183.4610137939453,60.0,20.0],"min":[21.538986206054689,0.0,20.0]},{"bufferView":47,"componentType":5126,"count":6,"type":"VEC3","max":[0.0,0.0,1.0],"min":[0.0,0.0,1.0]},{"bufferView":48,"componentType":5123,"count":6,"type":"SCALAR"},{"bufferView":49,"componentType":5126,"count":6,"type":"VEC3","max":[0.0,60.0,205.0],"min":[0.0,0.0,0.0]},{"bufferView":50,"componentType":5126,"count":6,"type":"VEC3","max":[-1.0,0.0,0.0],"min":[-1.0,0.0,0.0]},{"bufferView":51,"componentType":5126,"count":2,"type":"VEC3","max":[0.0,55.03544616699219,185.16795349121095],"min":[0.0,55.033714294433597,185.16102600097657]}],"bufferViews":[{"buffer":0,"byteOffset":0,"byteLength":36,"target":34963},{"buffer":0,"byteOffset":36,"byteLength":216,"target":34962},{"buffer":0,"byteOffset":252,"byteLength":216,"target":34962},{"buffer":0,"byteOffset":468,"byteLength":12,"target":34963},{"buffer":0,"byteOffset":480,"byteLength":72,"target":34962},{"buffer":0,"byteOffset":552,"byteLength":72,"target":34962},{"buffer":0,"byteOffset":624,"byteLength":6,"target":34963},{"buffer":0,"byteOffset":632,"byteLength":36,"target":34962},{"buffer":0,"byteOffset":668,"byteLength":36,"target":34962},{"buffer":0,"byteOffset":704,"byteLength":6,"target":34963},{"buffer":0,"byteOffset":712,"byteLength":36,"target":34962},{"buffer":0,"byteOffset":748,"byteLength":36,"target":34962},{"buffer":0,"byteOffset":784,"byteLength":6,"target":34963},{"buffer":0,"byteOffset":792,"byteLength":36,"target":34962},{"buffer":0,"byteOffset":828,"byteLength":36,"target":34962},{"buffer":0,"byteOffset":864,"byteLength":6,"target":34963},{"buffer":0,"byteOffset":872,"byteLength":36,"target":34962},{"buffer":0,"byteOffset":908,"byteLength":36,"target":34962},{"buffer":0,"byteOffset":944,"byteLength":12,"target":34963},{"buffer":0,"byteOffset":956,"byteLength":72,"target":34962},{"buffer":0,"byteOffset":1028,"byteLength":72,"target":34962},{"buffer":0,"byteOffset":1100,"byteLength":12,"target":34963},{"buffer":0,"byteOffset":1112,"byteLength":72,"target":34962},{"buffer":0,"byteOffset":1184,"byteLength":72,"target":34962},{"buffer":0,"byteOffset":1256,"byteLength":12,"target":34963},{"buffer":0,"byteOffset":1268,"byteLength":72,"target":34962},{"buffer":0,"byteOffset":1340,"byteLength":72,"target":34962},{"buffer":0,"byteOffset":1412,"byteLength":12,"target":34963},{"buffer":0,"byteOffset":1424,"byteLength":72,"target":34962},{"buffer":0,"byteOffset":1496,"byteLength":72,"target":34962},{"buffer":0,"byteOffset":1568,"byteLength":12,"target":34963},{"buffer":0,"byteOffset":1580,"byteLength":72,"target":34962},{"buffer":0,"byteOffset":1652,"byteLength":72,"target":34962},{"buffer":0,"byteOffset":1724,"byteLength":12,"target":34963},{"buffer":0,"byteOffset":1736,"byteLength":72,"target":34962},{"buffer":0,"byteOffset":1808,"byteLength":72,"target":34962},{"buffer":0,"byteOffset":1880,"byteLength":12,"target":34963},{"buffer":0,"byteOffset":1892,"byteLength":72,"target":34962},{"buffer":0,"byteOffset":1964,"byteLength":72,"target":34962},{"buffer":0,"byteOffset":2036,"byteLength":48,"target":34963},{"buffer":0,"byteOffset":2084,"byteLength":288,"target":34962},{"buffer":0,"byteOffset":2372,"byteLength":288,"target":34962},{"buffer":0,"byteOffset":2660,"byteLength":60,"target":34963},{"buffer":0,"byteOffset":2720,"byteLength":360,"target":34962},{"buffer":0,"byteOffset":3080,"byteLength":360,"target":34962},{"buffer":0,"byteOffset":3440,"byteLength":12,"target":34963},{"buffer":0,"byteOffset":3452,"byteLength":72,"target":34962},{"buffer":0,"byteOffset":3524,"byteLength":72,"target":34962},{"buffer":0,"byteOffset":3596,"byteLength":12,"target":34963},{"buffer":0,"byteOffset":3608,"byteLength":72,"target":34962},{"buffer":0,"byteOffset":3680,"byteLength":72,"target":34962},{"buffer":0,"byteOffset":3752,"byteLength":24,"target":34962}],"buffers":[{"byteLength":3776,"uri":"Camp.bin"}],"materials":[{"pbrMetallicRoughness":{"baseColorFactor":[0.9803921580314636,0.9803921580314636,0.9803921580314636,1.0]},"name":"default_face_material","doubleSided":true},{"pbrMetallicRoughness":{"baseColorFactor":[0.9803921580314636,0.9803921580314636,0.9803921580314636,1.0]},"name":"default_face_material1","doubleSided":true},{"pbrMetallicRoughness":{"baseColorFactor":[0.9803921580314636,0.9803921580314636,0.9803921580314636,1.0]},"name":"default_face_material2","doubleSided":true},{"pbrMetallicRoughness":{"baseColorFactor":[0.9803921580314636,0.9803921580314636,0.9803921580314636,1.0]},"name":"default_face_material3","doubleSided":true},{"pbrMetallicRoughness":{"baseColorFactor":[0.9803921580314636,0.9803921580314636,0.9803921580314636,1.0]},"name":"default_face_material4","doubleSided":true},{"pbrMetallicRoughness":{"baseColorFactor":[0.9803921580314636,0.9803921580314636,0.9803921580314636,1.0]},"name":"default_face_material5","doubleSided":true},{"pbrMetallicRoughness":{"baseColorFactor":[0.9803921580314636,0.9803921580314636,0.9803921580314636,1.0]},"name":"default_face_material6","doubleSided":true},{"pbrMetallicRoughness":{"baseColorFactor":[0.9803921580314636,0.9803921580314636,0.9803921580314636,1.0]},"name":"default_face_material7","doubleSided":true},{"pbrMetallicRoughness":{"baseColorFactor":[0.9803921580314636,0.9803921580314636,0.9803921580314636,1.0]},"name":"default_face_material8","doubleSided":true},{"pbrMetallicRoughness":{"baseColorFactor":[0.9803921580314636,0.9803921580314636,0.9803921580314636,1.0]},"name":"default_face_material9","doubleSided":true},{"pbrMetallicRoughness":{"baseColorFactor":[0.9803921580314636,0.9803921580314636,0.9803921580314636,1.0]},"name":"default_face_material10","doubleSided":true},{"pbrMetallicRoughness":{"baseColorFactor":[0.9803921580314636,0.9803921580314636,0.9803921580314636,1.0]},"name":"default_face_material11","doubleSided":true},{"pbrMetallicRoughness":{"baseColorFactor":[0.9803921580314636,0.9803921580314636,0.9803921580314636,1.0]},"name":"default_face_material12","doubleSided":true},{"pbrMetallicRoughness":{"baseColorFactor":[0.9803921580314636,0.9803921580314636,0.9803921580314636,1.0]},"name":"default_face_material13","doubleSided":true},{"pbrMetallicRoughness":{"baseColorFactor":[0.9803921580314636,0.9803921580314636,0.9803921580314636,1.0]},"name":"default_face_material14","doubleSided":true},{"pbrMetallicRoughness":{"baseColorFactor":[0.9803921580314636,0.9803921580314636,0.9803921580314636,1.0]},"name":"default_face_material15","doubleSided":true},{"pbrMetallicRoughness":{"baseColorFactor":[0.9803921580314636,0.9803921580314636,0.9803921580314636,1.0]},"name":"default_face_material16","doubleSided":true},{"pbrMetallicRoughness":{"baseColorFactor":[0.0,0.0,0.0,1.0],"metallicFactor":0.20000000298023225,"roughnessFactor":0.4000000059604645},"doubleSided":true}],"meshes":[{"primitives":[{"attributes":{"POSITION":1,"NORMAL":2},"indices":0,"material":0},{"attributes":{"NORMAL":5,"POSITION":4},"indices":3,"material":1},{"attributes":{"POSITION":7,"NORMAL":8},"indices":6,"material":2},{"attributes":{"NORMAL":11,"POSITION":10},"indices":9,"material":3},{"attributes":{"POSITION":13,"NORMAL":14},"indices":12,"material":4},{"attributes":{"POSITION":16,"NORMAL":17},"indices":15,"material":5},{"attributes":{"NORMAL":20,"POSITION":19},"indices":18,"material":6},{"attributes":{"NORMAL":23,"POSITION":22},"indices":21,"material":7},{"attributes":{"NORMAL":26,"POSITION":25},"indices":24,"material":8},{"attributes":{"POSITION":28,"NORMAL":29},"indices":27,"material":9},{"attributes":{"POSITION":31,"NORMAL":32},"indices":30,"material":10},{"attributes":{"POSITION":34,"NORMAL":35},"indices":33,"material":11},{"attributes":{"POSITION":37,"NORMAL":38},"indices":36,"material":12},{"attributes":{"NORMAL":41,"POSITION":40},"indices":39,"material":13},{"attributes":{"NORMAL":44,"POSITION":43},"indices":42,"material":14},{"attributes":{"NORMAL":47,"POSITION":46},"indices":45,"material":15},{"attributes":{"NORMAL":50,"POSITION":49},"indices":48,"material":16}]},{"name":"Edge","primitives":[{"attributes":{"POSITION":51},"material":17,"mode":1}]}],"nodes":[{"mesh":1,"name":"Edge"},{"children":[0],"matrix":[-0.039596039801836017,-4.65020283361311e-15,0.0,0.0,4.65020283361311e-15,-0.039596039801836017,0.0,0.0,0.0,0.0,0.039596039801836017,0.0,8.117188453674317,2.375762462615967,0.0,1.0],"mesh":0,"name":"15174"},{"children":[1],"matrix":[0.02539999969303608,0.0,0.0,0.0,0.0,0.0,-0.02539999969303608,0.0,0.0,0.02539999969303608,0.0,0.0,0.0,0.0,0.0,1.0],"name":"Root Node"}],"scenes":[{"nodes":[2]}],"scene":0}