{"asset":{"copyright":"Copyright 2020 Trimble Inc. All Rights Reserved.","generator":"SketchUp GLTF Exporter","version":"2.0"},"accessors":[{"bufferView":0,"componentType":5123,"count":6,"type":"SCALAR"},{"bufferView":1,"componentType":5126,"count":6,"type":"VEC3","max":[7885.916015625,709.7324829101563,3937.0078125],"min":[7885.916015625,0.0,0.0]},{"bufferView":2,"componentType":5126,"count":6,"type":"VEC3","max":[1.0,0.0,0.0],"min":[1.0,0.0,0.0]},{"bufferView":3,"componentType":5123,"count":6,"type":"SCALAR"},{"bufferView":4,"componentType":5126,"count":6,"type":"VEC3","max":[0.0,709.7324829101563,3937.0078125],"min":[0.0,0.0,0.0]},{"bufferView":5,"componentType":5126,"count":6,"type":"VEC3","max":[-1.0,0.0,0.0],"min":[-1.0,0.0,0.0]},{"bufferView":6,"componentType":5123,"count":6,"type":"SCALAR"},{"bufferView":7,"componentType":5126,"count":6,"type":"VEC3","max":[1182.887451171875,709.7324829101563,3937.0078125],"min":[0.0,709.7324829101563,0.0]},{"bufferView":8,"componentType":5126,"count":6,"type":"VEC3","max":[0.0,1.0,0.0],"min":[0.0,1.0,0.0]},{"bufferView":9,"componentType":5123,"count":6,"type":"SCALAR"},{"bufferView":10,"componentType":5126,"count":6,"type":"VEC3","max":[3227.44873046875,11119.1416015625,3937.0078125],"min":[789.2407836914063,11119.1416015625,0.0]},{"bufferView":11,"componentType":5126,"count":6,"type":"VEC3","max":[-0.0,-1.0,-0.0],"min":[-0.0,-1.0,-0.0]},{"bufferView":12,"componentType":5123,"count":6,"type":"SCALAR"},{"bufferView":13,"componentType":5126,"count":6,"type":"VEC3","max":[3227.44873046875,11119.1416015625,3937.0078125],"min":[1896.624755859375,709.7324829101563,0.0]},{"bufferView":14,"componentType":5126,"count":6,"type":"VEC3","max":[-0.9919262528419495,0.12681597471237184,0.0],"min":[-0.9919262528419495,0.12681597471237184,0.0]},{"bufferView":15,"componentType":5123,"count":6,"type":"SCALAR"},{"bufferView":16,"componentType":5126,"count":6,"type":"VEC3","max":[5989.29150390625,11119.1416015625,3937.0078125],"min":[4658.46728515625,709.7324829101563,0.0]},{"bufferView":17,"componentType":5126,"count":6,"type":"VEC3","max":[0.9919262528419495,0.12681597471237184,0.0],"min":[0.9919262528419495,0.12681597471237184,0.0]},{"bufferView":18,"componentType":5123,"count":6,"type":"SCALAR"},{"bufferView":19,"componentType":5126,"count":6,"type":"VEC3","max":[5273.7822265625,709.7324829101563,3937.0078125],"min":[2612.134033203125,709.7324829101563,0.0]},{"bufferView":20,"componentType":5126,"count":6,"type":"VEC3","max":[0.0,1.0,0.0],"min":[0.0,1.0,0.0]},{"bufferView":21,"componentType":5123,"count":6,"type":"SCALAR"},{"bufferView":22,"componentType":5126,"count":6,"type":"VEC3","max":[3942.9580078125,11119.1416015625,3937.0078125],"min":[2612.134033203125,709.7324829101563,0.0]},{"bufferView":23,"componentType":5126,"count":6,"type":"VEC3","max":[0.9919262528419495,-0.12681597471237184,0.0],"min":[0.9919262528419495,-0.12681597471237184,0.0]},{"bufferView":24,"componentType":5123,"count":6,"type":"SCALAR"},{"bufferView":25,"componentType":5126,"count":6,"type":"VEC3","max":[1896.624755859375,11119.1416015625,3937.0078125],"min":[789.2407836914063,709.7324829101563,0.0]},{"bufferView":26,"componentType":5126,"count":6,"type":"VEC3","max":[0.9943889379501343,0.10578605532646179,0.0],"min":[0.9943889379501343,0.10578605532646179,0.0]},{"bufferView":27,"componentType":5123,"count":6,"type":"SCALAR"},{"bufferView":28,"componentType":5126,"count":6,"type":"VEC3","max":[5273.7822265625,11119.1416015625,3937.0078125],"min":[3942.9580078125,709.7324829101563,0.0]},{"bufferView":29,"componentType":5126,"count":6,"type":"VEC3","max":[-0.9919262528419495,-0.12681597471237184,-0.0],"min":[-0.9919262528419495,-0.12681597471237184,-0.0]},{"bufferView":30,"componentType":5123,"count":6,"type":"SCALAR"},{"bufferView":31,"componentType":5126,"count":6,"type":"VEC3","max":[1182.887451171875,11828.8740234375,3937.0078125],"min":[0.0,709.7324829101563,0.0]},{"bufferView":32,"componentType":5126,"count":6,"type":"VEC3","max":[-0.9943889379501343,-0.10578605532646179,-0.0],"min":[-0.9943889379501343,-0.10578605532646179,-0.0]},{"bufferView":33,"componentType":5123,"count":63,"type":"SCALAR"},{"bufferView":34,"componentType":5126,"count":63,"type":"VEC3","max":[7885.916015625,11828.8740234375,0.0],"min":[0.0,0.0,0.0]},{"bufferView":35,"componentType":5126,"count":63,"type":"VEC3","max":[0.0,0.0,-1.0],"min":[0.0,0.0,-1.0]},{"bufferView":36,"componentType":5123,"count":6,"type":"SCALAR"},{"bufferView":37,"componentType":5126,"count":6,"type":"VEC3","max":[7885.916015625,709.7324829101563,3937.0078125],"min":[6703.02880859375,709.7324829101563,0.0]},{"bufferView":38,"componentType":5126,"count":6,"type":"VEC3","max":[0.0,1.0,0.0],"min":[0.0,1.0,0.0]},{"bufferView":39,"componentType":5123,"count":6,"type":"SCALAR"},{"bufferView":40,"componentType":5126,"count":6,"type":"VEC3","max":[7885.916015625,0.0,3937.0078125],"min":[0.0,0.0,0.0]},{"bufferView":41,"componentType":5126,"count":6,"type":"VEC3","max":[-0.0,-1.0,-0.0],"min":[-0.0,-1.0,-0.0]},{"bufferView":42,"componentType":5123,"count":63,"type":"SCALAR"},{"bufferView":43,"componentType":5126,"count":63,"type":"VEC3","max":[7885.916015625,11828.8740234375,3937.0078125],"min":[0.0,0.0,3937.0078125]},{"bufferView":44,"componentType":5126,"count":63,"type":"VEC3","max":[0.0,0.0,1.0],"min":[0.0,0.0,1.0]},{"bufferView":45,"componentType":5123,"count":6,"type":"SCALAR"},{"bufferView":46,"componentType":5126,"count":6,"type":"VEC3","max":[7096.67529296875,11119.1416015625,3937.0078125],"min":[5989.29150390625,709.7324829101563,0.0]},{"bufferView":47,"componentType":5126,"count":6,"type":"VEC3","max":[-0.9943889379501343,0.10578605532646179,0.0],"min":[-0.9943889379501343,0.10578605532646179,0.0]},{"bufferView":48,"componentType":5123,"count":6,"type":"SCALAR"},{"bufferView":49,"componentType":5126,"count":6,"type":"VEC3","max":[7096.67529296875,11119.1416015625,3937.0078125],"min":[4658.46728515625,11119.1416015625,0.0]},{"bufferView":50,"componentType":5126,"count":6,"type":"VEC3","max":[-0.0,-1.0,-0.0],"min":[-0.0,-1.0,-0.0]},{"bufferView":51,"componentType":5123,"count":6,"type":"SCALAR"},{"bufferView":52,"componentType":5126,"count":6,"type":"VEC3","max":[7885.916015625,11828.8740234375,3937.0078125],"min":[0.0,11828.8740234375,0.0]},{"bufferView":53,"componentType":5126,"count":6,"type":"VEC3","max":[0.0,1.0,0.0],"min":[0.0,1.0,0.0]},{"bufferView":54,"componentType":5123,"count":6,"type":"SCALAR"},{"bufferView":55,"componentType":5126,"count":6,"type":"VEC3","max":[7885.916015625,11828.8740234375,3937.0078125],"min":[6703.02880859375,709.7324829101563,0.0]},{"bufferView":56,"componentType":5126,"count":6,"type":"VEC3","max":[0.9943889379501343,-0.10578605532646179,0.0],"min":[0.9943889379501343,-0.10578605532646179,0.0]}],"bufferViews":[{"buffer":0,"byteOffset":0,"byteLength":12,"target":34963},{"buffer":0,"byteOffset":12,"byteLength":72,"target":34962},{"buffer":0,"byteOffset":84,"byteLength":72,"target":34962},{"buffer":0,"byteOffset":156,"byteLength":12,"target":34963},{"buffer":0,"byteOffset":168,"byteLength":72,"target":34962},{"buffer":0,"byteOffset":240,"byteLength":72,"target":34962},{"buffer":0,"byteOffset":312,"byteLength":12,"target":34963},{"buffer":0,"byteOffset":324,"byteLength":72,"target":34962},{"buffer":0,"byteOffset":396,"byteLength":72,"target":34962},{"buffer":0,"byteOffset":468,"byteLength":12,"target":34963},{"buffer":0,"byteOffset":480,"byteLength":72,"target":34962},{"buffer":0,"byteOffset":552,"byteLength":72,"target":34962},{"buffer":0,"byteOffset":624,"byteLength":12,"target":34963},{"buffer":0,"byteOffset":636,"byteLength":72,"target":34962},{"buffer":0,"byteOffset":708,"byteLength":72,"target":34962},{"buffer":0,"byteOffset":780,"byteLength":12,"target":34963},{"buffer":0,"byteOffset":792,"byteLength":72,"target":34962},{"buffer":0,"byteOffset":864,"byteLength":72,"target":34962},{"buffer":0,"byteOffset":936,"byteLength":12,"target":34963},{"buffer":0,"byteOffset":948,"byteLength":72,"target":34962},{"buffer":0,"byteOffset":1020,"byteLength":72,"target":34962},{"buffer":0,"byteOffset":1092,"byteLength":12,"target":34963},{"buffer":0,"byteOffset":1104,"byteLength":72,"target":34962},{"buffer":0,"byteOffset":1176,"byteLength":72,"target":34962},{"buffer":0,"byteOffset":1248,"byteLength":12,"target":34963},{"buffer":0,"byteOffset":1260,"byteLength":72,"target":34962},{"buffer":0,"byteOffset":1332,"byteLength":72,"target":34962},{"buffer":0,"byteOffset":1404,"byteLength":12,"target":34963},{"buffer":0,"byteOffset":1416,"byteLength":72,"target":34962},{"buffer":0,"byteOffset":1488,"byteLength":72,"target":34962},{"buffer":0,"byteOffset":1560,"byteLength":12,"target":34963},{"buffer":0,"byteOffset":1572,"byteLength":72,"target":34962},{"buffer":0,"byteOffset":1644,"byteLength":72,"target":34962},{"buffer":0,"byteOffset":1716,"byteLength":126,"target":34963},{"buffer":0,"byteOffset":1844,"byteLength":756,"target":34962},{"buffer":0,"byteOffset":2600,"byteLength":756,"target":34962},{"buffer":0,"byteOffset":3356,"byteLength":12,"target":34963},{"buffer":0,"byteOffset":3368,"byteLength":72,"target":34962},{"buffer":0,"byteOffset":3440,"byteLength":72,"target":34962},{"buffer":0,"byteOffset":3512,"byteLength":12,"target":34963},{"buffer":0,"byteOffset":3524,"byteLength":72,"target":34962},{"buffer":0,"byteOffset":3596,"byteLength":72,"target":34962},{"buffer":0,"byteOffset":3668,"byteLength":126,"target":34963},{"buffer":0,"byteOffset":3796,"byteLength":756,"target":34962},{"buffer":0,"byteOffset":4552,"byteLength":756,"target":34962},{"buffer":0,"byteOffset":5308,"byteLength":12,"target":34963},{"buffer":0,"byteOffset":5320,"byteLength":72,"target":34962},{"buffer":0,"byteOffset":5392,"byteLength":72,"target":34962},{"buffer":0,"byteOffset":5464,"byteLength":12,"target":34963},{"buffer":0,"byteOffset":5476,"byteLength":72,"target":34962},{"buffer":0,"byteOffset":5548,"byteLength":72,"target":34962},{"buffer":0,"byteOffset":5620,"byteLength":12,"target":34963},{"buffer":0,"byteOffset":5632,"byteLength":72,"target":34962},{"buffer":0,"byteOffset":5704,"byteLength":72,"target":34962},{"buffer":0,"byteOffset":5776,"byteLength":12,"target":34963},{"buffer":0,"byteOffset":5788,"byteLength":72,"target":34962},{"buffer":0,"byteOffset":5860,"byteLength":72,"target":34962}],"buffers":[{"byteLength":5932,"uri":"0.bin"}],"materials":[{"pbrMetallicRoughness":{"baseColorFactor":[0.6000000238418579,0.26274511218070986,0.0784313753247261,1.0]},"name":"Color C07","doubleSided":true},{"pbrMetallicRoughness":{"baseColorFactor":[0.6000000238418579,0.26274511218070986,0.0784313753247261,1.0]},"name":"Color C07","doubleSided":true},{"pbrMetallicRoughness":{"baseColorFactor":[0.6000000238418579,0.26274511218070986,0.0784313753247261,1.0]},"name":"Color C07","doubleSided":true},{"pbrMetallicRoughness":{"baseColorFactor":[0.6000000238418579,0.26274511218070986,0.0784313753247261,1.0]},"name":"Color C07","doubleSided":true},{"pbrMetallicRoughness":{"baseColorFactor":[0.6000000238418579,0.26274511218070986,0.0784313753247261,1.0]},"name":"Color C07","doubleSided":true},{"pbrMetallicRoughness":{"baseColorFactor":[0.6000000238418579,0.26274511218070986,0.0784313753247261,1.0]},"name":"Color C07","doubleSided":true},{"pbrMetallicRoughness":{"baseColorFactor":[0.6000000238418579,0.26274511218070986,0.0784313753247261,1.0]},"name":"Color C07","doubleSided":true},{"pbrMetallicRoughness":{"baseColorFactor":[0.6000000238418579,0.26274511218070986,0.0784313753247261,1.0]},"name":"Color C07","doubleSided":true},{"pbrMetallicRoughness":{"baseColorFactor":[0.6000000238418579,0.26274511218070986,0.0784313753247261,1.0]},"name":"Color C07","doubleSided":true},{"pbrMetallicRoughness":{"baseColorFactor":[0.6000000238418579,0.26274511218070986,0.0784313753247261,1.0]},"name":"Color C07","doubleSided":true},{"pbrMetallicRoughness":{"baseColorFactor":[0.6000000238418579,0.26274511218070986,0.0784313753247261,1.0]},"name":"Color C07","doubleSided":true},{"pbrMetallicRoughness":{"baseColorFactor":[0.6000000238418579,0.26274511218070986,0.0784313753247261,1.0]},"name":"Color C07","doubleSided":true},{"pbrMetallicRoughness":{"baseColorFactor":[0.6000000238418579,0.26274511218070986,0.0784313753247261,1.0]},"name":"Color C07","doubleSided":true},{"pbrMetallicRoughness":{"baseColorFactor":[0.6000000238418579,0.26274511218070986,0.0784313753247261,1.0]},"name":"Color C07","doubleSided":true},{"pbrMetallicRoughness":{"baseColorFactor":[0.6000000238418579,0.26274511218070986,0.0784313753247261,1.0]},"name":"Color C07","doubleSided":true},{"pbrMetallicRoughness":{"baseColorFactor":[0.6000000238418579,0.26274511218070986,0.0784313753247261,1.0]},"name":"Color C07","doubleSided":true},{"pbrMetallicRoughness":{"baseColorFactor":[0.6000000238418579,0.26274511218070986,0.0784313753247261,1.0]},"name":"Color C07","doubleSided":true},{"pbrMetallicRoughness":{"baseColorFactor":[0.6000000238418579,0.26274511218070986,0.0784313753247261,1.0]},"name":"Color C07","doubleSided":true},{"pbrMetallicRoughness":{"baseColorFactor":[0.6000000238418579,0.26274511218070986,0.0784313753247261,1.0]},"name":"Color C07","doubleSided":true}],"meshes":[{"primitives":[{"attributes":{"POSITION":1,"NORMAL":2},"indices":0,"material":0},{"attributes":{"NORMAL":5,"POSITION":4},"indices":3,"material":1},{"attributes":{"POSITION":7,"NORMAL":8},"indices":6,"material":2},{"attributes":{"NORMAL":11,"POSITION":10},"indices":9,"material":3},{"attributes":{"POSITION":13,"NORMAL":14},"indices":12,"material":4},{"attributes":{"POSITION":16,"NORMAL":17},"indices":15,"material":5},{"attributes":{"NORMAL":20,"POSITION":19},"indices":18,"material":6},{"attributes":{"NORMAL":23,"POSITION":22},"indices":21,"material":7},{"attributes":{"NORMAL":26,"POSITION":25},"indices":24,"material":8},{"attributes":{"POSITION":28,"NORMAL":29},"indices":27,"material":9},{"attributes":{"POSITION":31,"NORMAL":32},"indices":30,"material":10},{"attributes":{"POSITION":34,"NORMAL":35},"indices":33,"material":11},{"attributes":{"POSITION":37,"NORMAL":38},"indices":36,"material":12},{"attributes":{"NORMAL":41,"POSITION":40},"indices":39,"material":13}]},{"primitives":[{"attributes":{"POSITION":43,"NORMAL":44},"indices":42,"material":14},{"attributes":{"NORMAL":47,"POSITION":46},"indices":45,"material":15},{"attributes":{"POSITION":49,"NORMAL":50},"indices":48,"material":16},{"attributes":{"NORMAL":53,"POSITION":52},"indices":51,"material":17},{"attributes":{"POSITION":55,"NORMAL":56},"indices":54,"material":18}]}],"nodes":[{"mesh":0,"name":"2975"},{"children":[0],"matrix":[1.0,0.0,0.0,0.0,0.0,-6.106226635438361e-16,1.0,0.0,0.0,-1.0,-6.106226635438361e-16,0.0,0.0,3937.0078125,1.9757563640698805e-12,1.0],"mesh":1,"name":"2976"},{"children":[1],"matrix":[0.02539999969303608,0.0,0.0,0.0,0.0,0.0,-0.02539999969303608,0.0,0.0,0.02539999969303608,0.0,0.0,0.0,0.0,0.0,1.0],"name":"Root Node"}],"scenes":[{"nodes":[2]}],"scene":0}