{"asset":{"copyright":"Copyright 2020 Trimble Inc. All Rights Reserved.","generator":"SketchUp GLTF Exporter","version":"2.0"},"accessors":[{"bufferView":0,"componentType":5123,"count":6,"type":"SCALAR"},{"bufferView":1,"componentType":5126,"count":6,"type":"VEC3","max":[7692.29931640625,0.0,2362.204833984375],"min":[0.0,0.0,0.0]},{"bufferView":2,"componentType":5126,"count":6,"type":"VEC3","max":[-0.0,-1.0,-0.0],"min":[-0.0,-1.0,-0.0]},{"bufferView":3,"componentType":5123,"count":6,"type":"SCALAR"},{"bufferView":4,"componentType":5126,"count":6,"type":"VEC3","max":[7692.29931640625,7692.29931640625,2362.204833984375],"min":[0.0,7692.29931640625,0.0]},{"bufferView":5,"componentType":5126,"count":6,"type":"VEC3","max":[0.0,1.0,0.0],"min":[0.0,1.0,0.0]},{"bufferView":6,"componentType":5123,"count":6,"type":"SCALAR"},{"bufferView":7,"componentType":5126,"count":6,"type":"VEC3","max":[0.0,7692.29931640625,2362.204833984375],"min":[0.0,0.0,0.0]},{"bufferView":8,"componentType":5126,"count":6,"type":"VEC3","max":[-1.0,0.0,0.0],"min":[-1.0,0.0,0.0]},{"bufferView":9,"componentType":5123,"count":24,"type":"SCALAR"},{"bufferView":10,"componentType":5126,"count":24,"type":"VEC3","max":[7692.29931640625,7692.29931640625,2362.204833984375],"min":[0.0,0.0,2362.204833984375]},{"bufferView":11,"componentType":5126,"count":24,"type":"VEC3","max":[0.0,0.0,1.0],"min":[0.0,0.0,1.0]},{"bufferView":12,"componentType":5123,"count":6,"type":"SCALAR"},{"bufferView":13,"componentType":5126,"count":6,"type":"VEC3","max":[788.9537353515625,6903.34521484375,2362.204833984375],"min":[788.9537353515625,788.9537353515625,0.0]},{"bufferView":14,"componentType":5126,"count":6,"type":"VEC3","max":[1.0,0.0,0.0],"min":[1.0,0.0,0.0]},{"bufferView":15,"componentType":5123,"count":6,"type":"SCALAR"},{"bufferView":16,"componentType":5126,"count":6,"type":"VEC3","max":[6903.34521484375,788.9537353515625,2362.204833984375],"min":[788.9537353515625,788.9537353515625,0.0]},{"bufferView":17,"componentType":5126,"count":6,"type":"VEC3","max":[0.0,1.0,0.0],"min":[0.0,1.0,0.0]},{"bufferView":18,"componentType":5123,"count":24,"type":"SCALAR"},{"bufferView":19,"componentType":5126,"count":24,"type":"VEC3","max":[7692.29931640625,7692.29931640625,0.0],"min":[0.0,0.0,0.0]},{"bufferView":20,"componentType":5126,"count":24,"type":"VEC3","max":[0.0,0.0,-1.0],"min":[0.0,0.0,-1.0]},{"bufferView":21,"componentType":5123,"count":6,"type":"SCALAR"},{"bufferView":22,"componentType":5126,"count":6,"type":"VEC3","max":[7692.29931640625,7692.29931640625,2362.204833984375],"min":[7692.29931640625,0.0,0.0]},{"bufferView":23,"componentType":5126,"count":6,"type":"VEC3","max":[1.0,0.0,0.0],"min":[1.0,0.0,0.0]},{"bufferView":24,"componentType":5123,"count":6,"type":"SCALAR"},{"bufferView":25,"componentType":5126,"count":6,"type":"VEC3","max":[6903.34521484375,6903.34521484375,2362.204833984375],"min":[6903.34521484375,788.9537353515625,0.0]},{"bufferView":26,"componentType":5126,"count":6,"type":"VEC3","max":[-1.0,0.0,0.0],"min":[-1.0,0.0,0.0]},{"bufferView":27,"componentType":5123,"count":6,"type":"SCALAR"},{"bufferView":28,"componentType":5126,"count":6,"type":"VEC3","max":[6903.34521484375,6903.34521484375,2362.204833984375],"min":[788.9537353515625,6903.34521484375,0.0]},{"bufferView":29,"componentType":5126,"count":6,"type":"VEC3","max":[-0.0,-1.0,-0.0],"min":[-0.0,-1.0,-0.0]}],"bufferViews":[{"buffer":0,"byteOffset":0,"byteLength":12,"target":34963},{"buffer":0,"byteOffset":12,"byteLength":72,"target":34962},{"buffer":0,"byteOffset":84,"byteLength":72,"target":34962},{"buffer":0,"byteOffset":156,"byteLength":12,"target":34963},{"buffer":0,"byteOffset":168,"byteLength":72,"target":34962},{"buffer":0,"byteOffset":240,"byteLength":72,"target":34962},{"buffer":0,"byteOffset":312,"byteLength":12,"target":34963},{"buffer":0,"byteOffset":324,"byteLength":72,"target":34962},{"buffer":0,"byteOffset":396,"byteLength":72,"target":34962},{"buffer":0,"byteOffset":468,"byteLength":48,"target":34963},{"buffer":0,"byteOffset":516,"byteLength":288,"target":34962},{"buffer":0,"byteOffset":804,"byteLength":288,"target":34962},{"buffer":0,"byteOffset":1092,"byteLength":12,"target":34963},{"buffer":0,"byteOffset":1104,"byteLength":72,"target":34962},{"buffer":0,"byteOffset":1176,"byteLength":72,"target":34962},{"buffer":0,"byteOffset":1248,"byteLength":12,"target":34963},{"buffer":0,"byteOffset":1260,"byteLength":72,"target":34962},{"buffer":0,"byteOffset":1332,"byteLength":72,"target":34962},{"buffer":0,"byteOffset":1404,"byteLength":48,"target":34963},{"buffer":0,"byteOffset":1452,"byteLength":288,"target":34962},{"buffer":0,"byteOffset":1740,"byteLength":288,"target":34962},{"buffer":0,"byteOffset":2028,"byteLength":12,"target":34963},{"buffer":0,"byteOffset":2040,"byteLength":72,"target":34962},{"buffer":0,"byteOffset":2112,"byteLength":72,"target":34962},{"buffer":0,"byteOffset":2184,"byteLength":12,"target":34963},{"buffer":0,"byteOffset":2196,"byteLength":72,"target":34962},{"buffer":0,"byteOffset":2268,"byteLength":72,"target":34962},{"buffer":0,"byteOffset":2340,"byteLength":12,"target":34963},{"buffer":0,"byteOffset":2352,"byteLength":72,"target":34962},{"buffer":0,"byteOffset":2424,"byteLength":72,"target":34962}],"buffers":[{"byteLength":2496,"uri":"0.bin"}],"materials":[{"pbrMetallicRoughness":{"baseColorFactor":[0.5607843399047852,0.22745098173618318,0.0784313753247261,1.0]},"name":"Color C07","doubleSided":true},{"pbrMetallicRoughness":{"baseColorFactor":[0.5607843399047852,0.22745098173618318,0.0784313753247261,1.0]},"name":"Color C07","doubleSided":true},{"pbrMetallicRoughness":{"baseColorFactor":[0.5607843399047852,0.22745098173618318,0.0784313753247261,1.0]},"name":"Color C07","doubleSided":true},{"pbrMetallicRoughness":{"baseColorFactor":[0.5607843399047852,0.22745098173618318,0.0784313753247261,1.0]},"name":"Color C07","doubleSided":true},{"pbrMetallicRoughness":{"baseColorFactor":[0.5607843399047852,0.22745098173618318,0.0784313753247261,1.0]},"name":"Color C07","doubleSided":true},{"pbrMetallicRoughness":{"baseColorFactor":[0.5607843399047852,0.22745098173618318,0.0784313753247261,1.0]},"name":"Color C07","doubleSided":true},{"pbrMetallicRoughness":{"baseColorFactor":[0.5607843399047852,0.22745098173618318,0.0784313753247261,1.0]},"name":"Color C07","doubleSided":true},{"pbrMetallicRoughness":{"baseColorFactor":[0.5607843399047852,0.22745098173618318,0.0784313753247261,1.0]},"name":"Color C07","doubleSided":true},{"pbrMetallicRoughness":{"baseColorFactor":[0.5607843399047852,0.22745098173618318,0.0784313753247261,1.0]},"name":"Color C07","doubleSided":true},{"pbrMetallicRoughness":{"baseColorFactor":[0.5607843399047852,0.22745098173618318,0.0784313753247261,1.0]},"name":"Color C07","doubleSided":true}],"meshes":[{"primitives":[{"attributes":{"POSITION":1,"NORMAL":2},"indices":0,"material":0},{"attributes":{"NORMAL":5,"POSITION":4},"indices":3,"material":1},{"attributes":{"POSITION":7,"NORMAL":8},"indices":6,"material":2},{"attributes":{"NORMAL":11,"POSITION":10},"indices":9,"material":3},{"attributes":{"POSITION":13,"NORMAL":14},"indices":12,"material":4},{"attributes":{"POSITION":16,"NORMAL":17},"indices":15,"material":5},{"attributes":{"NORMAL":20,"POSITION":19},"indices":18,"material":6},{"attributes":{"NORMAL":23,"POSITION":22},"indices":21,"material":7},{"attributes":{"NORMAL":26,"POSITION":25},"indices":24,"material":8},{"attributes":{"POSITION":28,"NORMAL":29},"indices":27,"material":9}]}],"nodes":[{"matrix":[1.0,0.0,0.0,0.0,0.0,-3.191891195797325e-16,1.0,0.0,0.0,-1.0,-3.191891195797325e-16,0.0,0.0,2362.204833984375,1.1368683772161604e-13,1.0],"mesh":0,"name":"2873"},{"children":[0],"matrix":[0.02539999969303608,0.0,0.0,0.0,0.0,0.0,-0.02539999969303608,0.0,0.0,0.02539999969303608,0.0,0.0,0.0,0.0,0.0,1.0],"name":"Root Node"}],"scenes":[{"nodes":[1]}],"scene":0}