<svg xmlns="http://www.w3.org/2000/svg" viewBox="0 0 273.37 365.74">
  <g/>
  <path style="fill:none;stroke:#fff;stroke-linecap:round;stroke-linejoin:round;stroke-width:.85px" d="M40.67 43.03h185m0 250h-185m185-250v3.79m-13.27 14.9-55.96 6.51m0 0c-7.56.88-13.27 7.29-13.27 14.9m69.23-21.41c7.56-.88 13.27-7.29 13.27-14.9m0 246.21v-3.8m0 0a15 15 0 0 0-13.27-14.9m0 0-55.96-6.51m-13.27-14.9a15 15 0 0 0 13.27 14.9M40.67 43.03v3.79m0 0a15 15 0 0 0 13.27 14.9m0 0 55.96 6.51m13.27 14.9a15 15 0 0 0-13.27-14.9m-69.23 224.8v-3.8m13.27-14.9c-7.56.88-13.27 7.29-13.27 14.9m13.27-14.9 55.96-6.51m0 0c7.56-.88 13.27-7.29 13.27-14.9m0-169.79v169.79m20-169.79v169.79"/>
  <path style="fill:none;stroke:#fff;stroke-dasharray:0 0 12 3;stroke-linecap:round;stroke-linejoin:round;stroke-width:.60px" d="M133.17 24.3v285.67m43.2-142.83H89.98"/>
  <path style="fill:none;stroke:#fff;stroke-linecap:round;stroke-linejoin:round;stroke-width:.18px" d="M30.67 43.03H.42m30.25 250H.42m10-225v80m0 120v-80"/>
  <path style="fill:#fff" d="M6.26 68.03h8.33l-4.17-25zm0 200h8.33l-4.17 25zm-4.08-90v-20.22h6.97c1.57 0 2.77.1 3.6.29 1.16.27 2.15.75 2.97 1.45 1.07.9 1.86 2.05 2.39 3.46s.79 3 .79 4.81q0 2.31-.54 4.08-.54 1.785-1.38 2.94c-.56.78-1.17 1.39-1.84 1.83-.67.45-1.47.78-2.41 1.01s-2.03.34-3.25.34h-7.3Zm2.68-2.39h4.32c1.33 0 2.38-.12 3.14-.37s1.36-.6 1.81-1.05c.63-.63 1.13-1.49 1.48-2.56s.53-2.37.53-3.9c0-2.12-.35-3.74-1.04-4.88s-1.54-1.9-2.53-2.28c-.72-.28-1.87-.41-3.46-.41H4.86z"/>
  <path style="fill:none;stroke:#fff;stroke-linecap:round;stroke-linejoin:round;stroke-width:.18px" d="M40.67 303.03v53.53m185-53.53v53.53m-160-10h49.95m85.05 0h-49.95"/>
  <path style="fill:#fff" d="M65.67 342.4v8.33l-25-4.17zm135 0v8.33l25-4.17zm-75.03 14.16v-20.22h7.59c1.54 0 2.78.2 3.72.61q1.395.615 2.19 1.89c.53.85.79 1.74.79 2.67 0 .87-.23 1.68-.7 2.44s-1.18 1.38-2.12 1.85q1.83.54 2.82 1.83t.99 3.06q0 1.425-.6 2.64c-.4.81-.89 1.44-1.48 1.88s-1.33.77-2.21 1c-.89.23-1.97.34-3.26.34h-7.71Zm2.68-11.72h4.37c1.19 0 2.04-.08 2.55-.23.68-.2 1.19-.54 1.54-1.01s.52-1.06.52-1.77q0-1.005-.48-1.77t-1.38-1.05c-.6-.19-1.62-.28-3.08-.28h-4.04zm0 9.34h5.03c.86 0 1.47-.03 1.82-.1.62-.11 1.13-.29 1.54-.55s.75-.63 1.02-1.12.4-1.06.4-1.7c0-.75-.19-1.41-.58-1.97s-.92-.95-1.61-1.17-1.67-.34-2.96-.34h-4.68v6.95Z"/>
  <path style="fill:none;stroke:#fff;stroke-linecap:round;stroke-linejoin:round;stroke-width:.18px" d="m190.41 64.28 1.4-.16m-43.65 44.3c6.02-.78 11.78-2.95 16.81-6.35m15.6-21.35c.99-3.4 1.52-6.91 1.57-10.45"/>
  <path style="fill:#fff" d="m148.22 109.25-.11-1.66-4.94 1.15zm33.09-38.94 1.66-.09-1.09-4.95zm-3.38 19.03h1.72c-.44 1.37-.84 3.02-1.2 4.96.44 2.4.84 4.06 1.2 4.96h-1.67c-.27-.62-.47-1.23-.61-1.81q-.78 2.04-3.24 2.04c-1.25 0-2.25-.47-3.01-1.4s-1.14-2.2-1.14-3.8.38-2.92 1.14-3.82q1.14-1.35 3.03-1.35c.78 0 1.41.16 1.91.47.49.31.95.79 1.37 1.43.04-.22.21-.78.5-1.68m-3.49 1.17c-.8 0-1.44.32-1.9.97-.47.65-.7 1.58-.7 2.8s.22 2.12.66 2.8 1.06 1.02 1.85 1.02 1.42-.33 1.93-1c.52-.67.78-1.63.78-2.89s-.24-2.14-.72-2.76q-.72-.93-1.89-.93Z"/>
  <path style="fill:none;stroke:#fff;stroke-linecap:round;stroke-linejoin:round;stroke-width:.18px" d="M154.11 185.57h10m-50 0H95.74m48.37 0h-20"/>
  <path style="fill:#fff" d="M154.11 183.9v3.33l-10-1.66zm-40 0v3.33l10-1.66zm-23.58 7.43.27 1.65c-.52.11-.99.17-1.41.17-.68 0-1.2-.11-1.57-.32s-.63-.5-.79-.84c-.15-.35-.23-1.08-.23-2.2v-6.32h-1.37v-1.45h1.37v-2.72l1.85-1.12v3.84h1.87v1.45h-1.87v6.42c0 .53.03.87.1 1.02s.17.27.32.36.36.13.64.13c.21 0 .48-.02.82-.07"/>
  <path style="fill:none;stroke:#fff;stroke-linecap:round;stroke-linejoin:round;stroke-width:.18px" d="M40.67 53.03v51.6m41.25-29.65v29.65m-51.25-10h-10m71.25 0h10m-61.25 0h3.08m38.17 0h-3.08"/>
  <path style="fill:#fff" d="M30.67 92.96v3.34l10-1.67zm61.25 0v3.34l-10-1.67zm-43.15-3.33V74.46h5.69c1.16 0 2.09.15 2.79.46s1.25.78 1.65 1.42.59 1.31.59 2c0 .65-.18 1.26-.53 1.83s-.88 1.03-1.59 1.39c.92.27 1.62.73 2.12 1.38.49.65.74 1.41.74 2.3q0 1.065-.45 1.98t-1.11 1.41c-.66.495-.99.58-1.66.75s-1.48.25-2.45.25h-5.78Zm2.01-8.79h3.28c.89 0 1.53-.06 1.91-.18.51-.15.89-.4 1.15-.76q.39-.525.39-1.32c0-.5-.12-.95-.36-1.33s-.59-.64-1.03-.79-1.22-.21-2.31-.21h-3.03v4.58Zm0 7h3.78c.65 0 1.1-.02 1.37-.07.46-.08.85-.22 1.16-.41s.57-.47.77-.84.3-.79.3-1.28c0-.57-.15-1.06-.43-1.47-.29-.42-.69-.71-1.21-.88-.51-.17-1.25-.25-2.22-.25h-3.51v5.21Zm11.24-2.76v-1.87h5.72v1.87zm11.85 2.89.27 1.65c-.52.11-.99.17-1.41.17-.68 0-1.2-.11-1.57-.32s-.63-.5-.79-.84c-.15-.35-.23-1.08-.23-2.2v-6.32h-1.37v-1.45h1.37v-2.72l1.85-1.12v3.84h1.87v1.45h-1.87v6.42c0 .53.03.87.1 1.02s.17.27.32.36.36.13.64.13c.21 0 .48-.02.82-.07m-11.18 26.66V111h-6.58v-1.71l6.92-9.83h1.52v9.83h2.05V111h-2.05v3.63zm0-5.34v-6.84l-4.75 6.84z"/>
  <path style="fill:none;stroke:#fff;stroke-linecap:round;stroke-linejoin:round;stroke-width:.28px" d="M43.75 96.1h35.09"/>
  <path style="fill:none;stroke:#fff;stroke-linecap:round;stroke-linejoin:round;stroke-width:.18px" d="M72.45 65.04h-.56m.56-22.01h-.56m10 32.01v10m0-52.01v-10m-10 0h10"/>
  <path d="M60.01 30.53V17.15h-5v-1.79h12.02v1.79h-5.02v13.38H60Z" style="fill:#fff"/>
  <path style="fill:none;stroke:#fff;stroke-linecap:round;stroke-linejoin:round;stroke-width:.18px" d="M81.89 65.04V43.03"/>
  <path style="fill:#fff" d="M80.23 75.04h3.33l-1.67-10zm0-42.01h3.33l-1.67 10z"/>
  <path style="fill:none;stroke:#fff;stroke-linecap:round;stroke-linejoin:round;stroke-width:.18px" d="M247.07 257.15h-10m0 0-10.51 12.77"/>
  <path d="M252.08 264.65v-15.17h6.72c1.35 0 2.38.14 3.08.41s1.27.75 1.69 1.44.63 1.45.63 2.29c0 1.08-.35 1.98-1.04 2.72-.7.74-1.77 1.21-3.23 1.41.53.26.93.51 1.21.76.59.54 1.14 1.21 1.67 2.02l2.64 4.13h-2.52l-2.01-3.16c-.59-.91-1.07-1.61-1.45-2.09s-.72-.82-1.02-1.01-.6-.33-.92-.4c-.23-.05-.6-.07-1.12-.07h-2.33v6.73h-2.01Zm2.01-8.47h4.31c.92 0 1.63-.09 2.15-.28s.91-.49 1.18-.91.4-.87.4-1.36q0-1.08-.78-1.77c-.52-.46-1.34-.69-2.47-.69h-4.8v5.02Zm18.5 7.22v1.25h-7.02c0-.31.04-.62.15-.91.18-.48.46-.95.86-1.41.39-.46.96-1 1.71-1.61q1.725-1.425 2.34-2.25c.41-.55.61-1.08.61-1.57 0-.52-.18-.95-.55-1.31s-.85-.53-1.44-.53c-.63 0-1.13.19-1.51.56s-.57.9-.57 1.56l-1.34-.14c.09-1 .44-1.76 1.04-2.29.6-.52 1.4-.79 2.41-.79s1.82.28 2.42.85c.59.57.89 1.27.89 2.1 0 .42-.09.84-.26 1.25s-.46.84-.87 1.3c-.4.45-1.07 1.08-2.01 1.87-.78.66-1.28 1.1-1.51 1.34s-.41.47-.55.71h5.21Z" style="fill:#fff"/>
  <path style="fill:none;stroke:#fff;stroke-linecap:round;stroke-linejoin:round;stroke-width:.18px" d="m210.67 289.23 9.53-11.59"/>
  <path style="fill:#fff" d="m225.27 268.86 2.57 2.12-7.64 6.66zM129.16 22.41l-.21-1.75c.41.11.76.17 1.07.17.41 0 .75-.07.99-.21.25-.14.45-.33.61-.58.12-.19.31-.65.57-1.39.03-.1.09-.25.17-.46l-4.17-11.01h2.01l2.29 6.36c.3.81.56 1.66.8 2.54.21-.86.47-1.69.77-2.5l2.35-6.4h1.86l-4.18 11.17c-.45 1.21-.8 2.04-1.04 2.49q-.495.915-1.14 1.35c-.43.29-.94.43-1.53.43-.36 0-.76-.08-1.2-.23Zm0 307.68-.21-1.75c.41.11.76.17 1.07.17.41 0 .75-.07.99-.21.25-.14.45-.33.61-.58.12-.19.31-.65.57-1.39.03-.1.09-.25.17-.46l-4.17-11.01h2.01l2.29 6.36c.3.81.56 1.66.8 2.54.21-.86.47-1.69.77-2.5l2.35-6.4h1.86l-4.18 11.17c-.45 1.21-.8 2.04-1.04 2.49q-.495.915-1.14 1.35c-.43.29-.94.43-1.53.43-.36 0-.76-.08-1.2-.23Zm49.04-158.2v-1.51l6.99-8.03q-1.185.06-2.1.06h-4.48v-1.51h8.98v1.23l-5.95 6.97-1.15 1.27c.83-.06 1.62-.09 2.35-.09h5.08v1.6h-9.72Zm-100.3 0v-1.51l6.99-8.03q-1.185.06-2.1.06h-4.48v-1.51h8.98v1.23l-5.95 6.97-1.15 1.27c.83-.06 1.62-.09 2.35-.09h5.08v1.6H77.9Z"/>
  <path style="fill:none;stroke:#fff;stroke-linecap:round;stroke-linejoin:round;stroke-width:.18px" d="M197.58 228.56h-11.54m0 0-31.56 27.74"/>
  <path d="M202.6 236.06v-15.17h6.72c1.35 0 2.38.14 3.08.41s1.27.75 1.69 1.44.63 1.45.63 2.29c0 1.08-.35 1.98-1.04 2.72-.7.74-1.77 1.21-3.23 1.41.53.26.93.51 1.21.76.59.54 1.14 1.21 1.67 2.02l2.64 4.13h-2.52l-2.01-3.16c-.59-.91-1.07-1.61-1.45-2.09s-.72-.82-1.02-1.01-.6-.33-.92-.4c-.23-.05-.6-.07-1.12-.07h-2.33v6.73h-2.01Zm2.01-8.47h4.31c.92 0 1.63-.09 2.15-.28s.91-.49 1.18-.91.4-.87.4-1.36q0-1.08-.78-1.77c-.52-.46-1.34-.69-2.47-.69h-4.8v5.02Zm15.39 8.47h-1.3v-8.31c-.31.3-.73.6-1.23.9-.51.3-.97.52-1.37.67v-1.26c.73-.34 1.37-.76 1.91-1.25.55-.49.93-.96 1.16-1.42h.84v10.66Z" style="fill:#fff"/>
  <path style="fill:none;stroke:#fff;stroke-linecap:round;stroke-linejoin:round;stroke-width:.18px" d="m139.46 269.5 7.51-6.6"/>
  <path style="fill:#fff" d="m153.38 255.05 2.2 2.5-8.61 5.35z"/>
</svg>
