<?xml version="1.0" encoding="UTF-8"?><svg xmlns="http://www.w3.org/2000/svg" viewBox="0 0 232.87 243.5"><g id="a"/><g id="b"><g id="c"><g><g id="d"><line x1="57.66" y1="22.23" x2="57.66" y2="197.23" style="fill:none; stroke:#000; stroke-linecap:round; stroke-linejoin:round; stroke-width:.43px;"/></g><g id="e"><line x1="57.66" y1="197.23" x2="232.66" y2="197.23" style="fill:none; stroke:#000; stroke-linecap:round; stroke-linejoin:round; stroke-width:.43px;"/></g><g id="f"><line x1="232.66" y1="197.23" x2="232.66" y2="192.23" style="fill:none; stroke:#000; stroke-linecap:round; stroke-linejoin:round; stroke-width:.43px;"/></g><g id="g"><line x1="57.66" y1="22.23" x2="62.66" y2="22.23" style="fill:none; stroke:#000; stroke-linecap:round; stroke-linejoin:round; stroke-width:.43px;"/></g><g id="h"><line x1="72.66" y1="32.23" x2="72.66" y2="157.23" style="fill:none; stroke:#000; stroke-linecap:round; stroke-linejoin:round; stroke-width:.43px;"/></g><g id="i"><line x1="222.66" y1="182.23" x2="97.66" y2="182.23" style="fill:none; stroke:#000; stroke-linecap:round; stroke-linejoin:round; stroke-width:.43px;"/></g><g id="j"><path d="M72.66,157.23c0,13.81,11.19,25,25,25" style="fill:none; stroke:#000; stroke-linecap:round; stroke-linejoin:round; stroke-width:.43px;"/></g><g id="k"><path d="M232.66,192.23c0-5.52-4.48-10-10-10" style="fill:none; stroke:#000; stroke-linecap:round; stroke-linejoin:round; stroke-width:.43px;"/></g><g id="l"><path d="M72.66,32.23c0-5.52-4.48-10-10-10" style="fill:none; stroke:#000; stroke-linecap:round; stroke-linejoin:round; stroke-width:.43px;"/></g><g id="m"><g id="n"><line x1="47.66" y1="22.23" x2=".09" y2="22.23" style="fill:none; stroke:gray; stroke-linecap:round; stroke-linejoin:round; stroke-width:.18px;"/></g><g id="o"><line x1="47.66" y1="197.23" x2=".09" y2="197.23" style="fill:none; stroke:gray; stroke-linecap:round; stroke-linejoin:round; stroke-width:.18px;"/></g><g id="p"><line x1="10.09" y1="47.23" x2="10.09" y2="89.57" style="fill:none; stroke:gray; stroke-linecap:round; stroke-linejoin:round; stroke-width:.18px;"/></g><g id="q"><line x1="10.09" y1="172.23" x2="10.09" y2="129.9" style="fill:none; stroke:gray; stroke-linecap:round; stroke-linejoin:round; stroke-width:.18px;"/></g><g id="r"><polygon points="5.93 47.23 14.26 47.23 10.09 22.23 10.09 22.23 5.93 47.23" style="fill:gray;"/></g><g id="s"><polygon points="5.93 172.23 14.26 172.23 10.09 197.23 10.09 197.23 5.93 172.23" style="fill:gray;"/></g><g id="t"><path d="M13.83,117.76c-.92,.78-1.8,1.33-2.66,1.66-.85,.32-1.76,.48-2.74,.48-1.61,0-2.85-.39-3.71-1.18-.86-.79-1.3-1.79-1.3-3.01,0-.72,.16-1.37,.49-1.97,.33-.59,.75-1.07,1.28-1.43,.53-.36,1.12-.63,1.79-.81,.49-.13,1.22-.25,2.21-.37,2-.24,3.48-.52,4.43-.86,0-.34,.01-.56,.01-.65,0-1.01-.23-1.72-.7-2.14-.63-.56-1.58-.84-2.83-.84-1.17,0-2.03,.2-2.59,.61-.56,.41-.97,1.13-1.23,2.17l-2.43-.33c.22-1.04,.58-1.88,1.09-2.52,.51-.64,1.24-1.13,2.19-1.48s2.06-.52,3.32-.52,2.27,.15,3.05,.44,1.36,.66,1.72,1.11,.63,1.01,.77,1.69c.08,.42,.12,1.19,.12,2.29v3.31c0,2.31,.05,3.77,.16,4.38,.11,.61,.31,1.2,.63,1.76h-2.59c-.26-.51-.42-1.12-.5-1.81Zm-.21-5.54c-.9,.37-2.25,.68-4.06,.94-1.02,.15-1.74,.31-2.17,.5-.42,.18-.75,.45-.98,.81-.23,.35-.34,.75-.34,1.18,0,.66,.25,1.21,.75,1.65,.5,.44,1.23,.66,2.2,.66s1.81-.21,2.55-.63c.75-.42,1.29-.99,1.64-1.72,.27-.56,.4-1.39,.4-2.48v-.91Z" style="fill:gray;"/></g></g><g id="u"><g id="v"><line x1="57.66" y1="207.23" x2="57.66" y2="234.49" style="fill:none; stroke:gray; stroke-linecap:round; stroke-linejoin:round; stroke-width:.18px;"/></g><g id="w"><line x1="232.66" y1="207.23" x2="232.66" y2="234.49" style="fill:none; stroke:gray; stroke-linecap:round; stroke-linejoin:round; stroke-width:.18px;"/></g><g id="x"><line x1="82.66" y1="224.49" x2="128.88" y2="224.49" style="fill:none; stroke:gray; stroke-linecap:round; stroke-linejoin:round; stroke-width:.18px;"/></g><g id="y"><line x1="207.66" y1="224.49" x2="161.44" y2="224.49" style="fill:none; stroke:gray; stroke-linecap:round; stroke-linejoin:round; stroke-width:.18px;"/></g><g id="a`"><polygon points="82.66 220.33 82.66 228.66 57.66 224.49 57.66 224.49 82.66 220.33" style="fill:gray;"/></g><g id="aa"><polygon points="207.66 220.33 207.66 228.66 232.66 224.49 232.66 224.49 207.66 220.33" style="fill:gray;"/></g><g id="ab"><path d="M141.2,234.33h-2.3v-20.22h2.48v7.21c1.05-1.32,2.39-1.97,4.01-1.97,.9,0,1.75,.18,2.56,.54,.8,.36,1.47,.87,1.99,1.53s.93,1.45,1.22,2.38,.44,1.92,.44,2.98c0,2.51-.62,4.45-1.86,5.82-1.24,1.37-2.73,2.06-4.47,2.06s-3.08-.72-4.07-2.17v1.83Zm-.03-7.43c0,1.76,.24,3.03,.72,3.81,.78,1.28,1.84,1.92,3.17,1.92,1.08,0,2.02-.47,2.81-1.41s1.19-2.35,1.19-4.21-.38-3.32-1.14-4.23-1.68-1.37-2.75-1.37-2.02,.47-2.81,1.41c-.79,.94-1.19,2.31-1.19,4.09Z" style="fill:gray;"/></g></g><g id="ac"><g id="ad"><line x1="57.66" y1="87.59" x2="57.66" y2="86.05" style="fill:none; stroke:gray; stroke-linecap:round; stroke-linejoin:round; stroke-width:.18px;"/></g><g id="ae"><line x1="72.66" y1="87.59" x2="72.66" y2="86.05" style="fill:none; stroke:gray; stroke-linecap:round; stroke-linejoin:round; stroke-width:.18px;"/></g><g id="af"><line x1="47.66" y1="96.05" x2="37.66" y2="96.05" style="fill:none; stroke:gray; stroke-linecap:round; stroke-linejoin:round; stroke-width:.18px;"/></g><g id="ag"><line x1="82.66" y1="96.05" x2="92.66" y2="96.05" style="fill:none; stroke:gray; stroke-linecap:round; stroke-linejoin:round; stroke-width:.18px;"/></g><g id="ah"><line x1="57.66" y1="96.05" x2="72.66" y2="96.05" style="fill:none; stroke:gray; stroke-linecap:round; stroke-linejoin:round; stroke-width:.18px;"/></g><g id="ai"><polygon points="47.66 94.38 47.66 97.71 57.66 96.05 57.66 96.05 47.66 94.38" style="fill:gray;"/></g><g id="aj"><polygon points="82.66 94.38 82.66 97.71 72.66 96.05 72.66 96.05 82.66 94.38" style="fill:gray;"/></g><g id="ak"><path d="M102.75,101.81l.27,1.65c-.52,.11-.99,.17-1.41,.17-.68,0-1.2-.11-1.57-.32-.37-.21-.63-.5-.79-.84-.15-.35-.23-1.08-.23-2.2v-6.32h-1.37v-1.45h1.37v-2.72l1.85-1.12v3.84h1.87v1.45h-1.87v6.42c0,.53,.03,.87,.1,1.02,.07,.15,.17,.27,.32,.36,.15,.09,.36,.13,.64,.13,.21,0,.48-.02,.82-.07Z" style="fill:gray;"/></g></g><g id="al"><g id="am"><line x1="93.53" y1="10.68" x2="83.53" y2="10.68" style="fill:none; stroke:gray; stroke-linecap:round; stroke-linejoin:round; stroke-width:.18px;"/></g><g id="an"><line x1="83.53" y1="10.68" x2="76.57" y2="17.87" style="fill:none; stroke:gray; stroke-linecap:round; stroke-linejoin:round; stroke-width:.18px;"/></g><g id="ao"><path d="M98.55,18.18V3.02h6.72c1.35,0,2.38,.14,3.08,.41,.7,.27,1.27,.75,1.69,1.44,.42,.69,.63,1.45,.63,2.29,0,1.08-.35,1.98-1.04,2.72-.7,.74-1.77,1.21-3.23,1.41,.53,.26,.93,.51,1.21,.76,.59,.54,1.14,1.21,1.67,2.02l2.64,4.13h-2.52l-2.01-3.16c-.59-.91-1.07-1.61-1.45-2.09-.38-.48-.72-.82-1.02-1.01-.3-.19-.6-.33-.92-.4-.23-.05-.6-.07-1.12-.07h-2.33v6.73h-2.01Zm2.01-8.47h4.31c.92,0,1.63-.09,2.15-.28,.52-.19,.91-.49,1.18-.91,.27-.42,.4-.87,.4-1.36,0-.72-.26-1.31-.78-1.77-.52-.46-1.34-.69-2.47-.69h-4.8v5.02Z" style="fill:gray;"/><path d="M119.05,16.93v1.25h-7.02c0-.31,.04-.62,.15-.91,.18-.48,.46-.95,.86-1.41,.39-.46,.96-1,1.71-1.61,1.15-.95,1.93-1.7,2.34-2.25,.41-.55,.61-1.08,.61-1.57,0-.52-.18-.95-.55-1.31-.37-.36-.85-.53-1.44-.53-.63,0-1.13,.19-1.51,.56s-.57,.9-.57,1.56l-1.34-.14c.09-1,.44-1.76,1.04-2.29,.6-.52,1.4-.79,2.41-.79s1.82,.28,2.42,.85c.59,.57,.89,1.27,.89,2.1,0,.42-.09,.84-.26,1.25-.17,.41-.46,.84-.87,1.3-.4,.45-1.07,1.08-2.01,1.87-.78,.66-1.28,1.1-1.51,1.34s-.41,.47-.55,.71h5.21Z" style="fill:gray;"/></g><g id="ap"><line x1="62.66" y1="32.23" x2="69.62" y2="25.05" style="fill:none; stroke:gray; stroke-linecap:round; stroke-linejoin:round; stroke-width:.18px;"/></g><g id="aq"><polygon points="75.38 16.71 77.77 19.02 69.62 25.05 69.62 25.05 75.38 16.71" style="fill:gray;"/></g></g><g id="ar"><g id="as"><line x1="131.03" y1="141.03" x2="119.49" y2="141.03" style="fill:none; stroke:gray; stroke-linecap:round; stroke-linejoin:round; stroke-width:.18px;"/></g><g id="at"><line x1="119.49" y1="141.03" x2="87.93" y2="168.78" style="fill:none; stroke:gray; stroke-linecap:round; stroke-linejoin:round; stroke-width:.18px;"/></g><g id="au"><path d="M136.05,148.53v-15.17h6.72c1.35,0,2.38,.14,3.08,.41,.7,.27,1.27,.75,1.69,1.44,.42,.69,.63,1.45,.63,2.29,0,1.08-.35,1.98-1.04,2.72-.7,.74-1.77,1.21-3.23,1.41,.53,.26,.93,.51,1.21,.76,.59,.54,1.14,1.21,1.67,2.02l2.64,4.13h-2.52l-2.01-3.16c-.59-.91-1.07-1.61-1.45-2.09-.38-.48-.72-.82-1.02-1.01-.3-.19-.6-.33-.92-.4-.23-.05-.6-.07-1.12-.07h-2.33v6.73h-2.01Zm2.01-8.47h4.31c.92,0,1.63-.09,2.15-.28,.52-.19,.91-.49,1.18-.91,.27-.42,.4-.87,.4-1.36,0-.72-.26-1.31-.78-1.77-.52-.46-1.34-.69-2.47-.69h-4.8v5.02Z" style="fill:gray;"/><path d="M153.44,148.53h-1.3v-8.31c-.31,.3-.73,.6-1.23,.9-.51,.3-.97,.52-1.37,.67v-1.26c.73-.34,1.37-.76,1.91-1.25,.55-.49,.93-.96,1.16-1.42h.84v10.66Z" style="fill:gray;"/></g><g id="av"><line x1="72.91" y1="181.98" x2="80.42" y2="175.38" style="fill:none; stroke:gray; stroke-linecap:round; stroke-linejoin:round; stroke-width:.18px;"/></g><g id="aw"><polygon points="86.83 167.52 89.03 170.03 80.42 175.38 80.42 175.38 86.83 167.52" style="fill:gray;"/></g></g></g></g></g></svg>