<svg xmlns="http://www.w3.org/2000/svg" viewBox="0 0 229.28 270.63">
  <g/>
  <circle cx="100.21" cy="100.21" r="100" style="fill:none;stroke:#fff;stroke-linecap:round;stroke-linejoin:round;stroke-width:2px"/>
  <circle cx="100.21" cy="100.21" r="90" style="fill:none;stroke:#fff;stroke-linecap:round;stroke-linejoin:round;stroke-width:2px"/>
  <path style="fill:none;stroke:white;stroke-linecap:round;stroke-linejoin:round;stroke-width:.18px" d="M.21 110.21v151.38m200-151.38v151.38m-175-10h42.54m107.46 0h-42.53"/>
  <path style="fill:white" d="M25.21 247.42v8.34l-25-4.17zm150 0v8.34l25-4.17zm-72.75 14.04v-1.85c-.93 1.45-2.29 2.18-4.1 2.18-1.17 0-2.24-.32-3.22-.97s-1.74-1.54-2.28-2.7-.81-2.48-.81-3.98.24-2.79.73-3.98 1.22-2.1 2.19-2.74c.97-.63 2.06-.95 3.27-.95.88 0 1.67.19 2.36.56s1.25.86 1.68 1.46v-7.25h2.47v20.22h-2.3Zm-7.85-7.31c0 1.88.4 3.28 1.19 4.21s1.72 1.39 2.8 1.39 2.01-.44 2.77-1.33 1.14-2.24 1.14-4.06c0-2-.39-3.48-1.16-4.41-.77-.94-1.72-1.41-2.86-1.41s-2.03.45-2.77 1.35-1.11 2.32-1.11 4.26"/>
  <path style="fill:none;stroke:white;stroke-linecap:round;stroke-linejoin:round;stroke-width:.18px" d="M180.01 100.21h-9.8m39.2 0h9.8m-29.4 0h9.8"/>
  <path style="fill:white" d="M180.01 98.55v3.33l9.8-1.67zm29.4 0v3.33l-9.8-1.67zm19.45 7.4.26 1.65c-.51.11-.97.17-1.38.17-.66 0-1.18-.11-1.54-.32s-.62-.5-.77-.84c-.15-.35-.22-1.08-.22-2.2v-6.32h-1.34v-1.45h1.34v-2.72l1.81-1.12v3.84h1.83v1.45h-1.83v6.42c0 .53.03.87.1 1.02.06.15.17.27.31.36s.35.13.62.13c.2 0 .47-.02.8-.07Z"/>
</svg>
