<svg xmlns="http://www.w3.org/2000/svg" viewBox="0 0 223.24 308.05">
  <g/>
  <rect x="85.57" y="46.89" width="90" height="190" rx="10" ry="10" style="fill:none;stroke:#fff;stroke-linecap:round;stroke-linejoin:round;stroke-width:1px"/>
  <rect x="78.07" y="39.39" width="105" height="205" rx="17.5" ry="17.5" style="fill:none;stroke:#fff;stroke-linecap:round;stroke-linejoin:round;stroke-width:1px"/>
  <path style="fill:none;stroke:#fff;stroke-dasharray:0 0 12 3;stroke-linecap:round;stroke-linejoin:round;stroke-width:.35px" d="M130.57 20.66v229.37m71.67-107.74H58.9"/>
  <path style="fill:none;stroke:white;stroke-linecap:round;stroke-linejoin:round;stroke-width:.18px" d="M78.07 236.89v61.99m105-61.99v61.99m-80-10h9.95m45.05 0h-9.95"/>
  <path style="fill:white" d="M103.07 284.71v8.33l-25-4.16zm55 0v8.33l25-4.16zm-35.03 14.17v-20.22h7.59c1.54 0 2.78.2 3.72.61s1.66 1.04 2.19 1.89.79 1.74.79 2.67c0 .87-.23 1.68-.7 2.44s-1.18 1.38-2.12 1.85q1.83.54 2.82 1.83t.99 3.06q0 1.425-.6 2.64c-.4.81-.89 1.44-1.48 1.88s-1.33.77-2.21 1c-.89.23-1.97.34-3.26.34h-7.71Zm2.68-11.72h4.37c1.19 0 2.04-.08 2.55-.23.68-.2 1.19-.54 1.54-1.01s.52-1.06.52-1.77q0-1.005-.48-1.77t-1.38-1.05c-.9-.285-1.62-.28-3.08-.28h-4.04zm0 9.34h5.03c.86 0 1.47-.03 1.82-.1.62-.11 1.13-.29 1.54-.55s.75-.63 1.02-1.12.4-1.06.4-1.7c0-.75-.19-1.41-.58-1.97s-.92-.95-1.61-1.17c-.69-.23-1.67-.34-2.96-.34h-4.68v6.95Z"/>
  <path style="fill:none;stroke:white;stroke-linecap:round;stroke-linejoin:round;stroke-width:.18px" d="M70.57 41.89H.42m70.15 200H.42m10-175v55m0 95v-55"/>
  <path style="fill:white" d="M6.26 66.89h8.33l-4.17-25zm0 150h8.33l-4.17 25zm-4.08-65v-20.22h6.97c1.57 0 2.77.1 3.6.29 1.16.27 2.15.75 2.96 1.45 1.07.9 1.86 2.05 2.39 3.46.53 1.4.79 3 .79 4.81q0 2.31-.54 4.08-.54 1.785-1.38 2.94c-.56.78-1.17 1.39-1.84 1.83s-1.47.78-2.41 1.01-2.03.34-3.25.34H2.18Zm2.68-2.39h4.32c1.33 0 2.38-.12 3.14-.37s1.36-.6 1.81-1.05c.63-.63 1.13-1.49 1.48-2.56s.53-2.37.53-3.9c0-2.12-.35-3.74-1.04-4.88s-1.54-1.9-2.53-2.28c-.72-.28-1.87-.41-3.46-.41H4.86z"/>
  <path style="fill:none;stroke:white;stroke-linecap:round;stroke-linejoin:round;stroke-width:.18px" d="M181.12 41.89h42.03m-42.03 5h42.03m-10-15v-10m0 35v10m0-25v5"/>
  <path style="fill:white" d="M211.49 31.89h3.33l-1.67 10zm0 25h3.33l-1.67-10zm-8.47 15.76.27 1.65c-.52.11-.99.17-1.41.17-.68 0-1.2-.11-1.57-.32s-.63-.5-.79-.84c-.15-.35-.23-1.08-.23-2.2v-6.32h-1.37v-1.45h1.37v-2.72l1.85-1.12v3.84h1.87v1.45h-1.87v6.42c0 .53.03.87.1 1.02s.17.27.32.36.36.13.64.13c.21 0 .48-.02.82-.07m-159.8 78.37 5.87-7.9-5.17-7.26h2.39l2.75 3.89c.57.81.98 1.43 1.22 1.86.34-.55.74-1.13 1.2-1.73l3.05-4.02h2.18l-5.33 7.15 5.74 8.02h-2.48l-3.82-5.41c-.21-.31-.43-.65-.66-1.01q-.51.825-.72 1.14l-3.81 5.29h-2.41Zm163.62-.56 5.87-7.9-5.17-7.26h2.39l2.75 3.89c.57.81.98 1.43 1.22 1.86.34-.55.74-1.13 1.2-1.73l3.05-4.02h2.18l-5.33 7.15 5.74 8.02h-2.48l-3.82-5.41c-.21-.31-.43-.65-.66-1.01q-.51.825-.72 1.14l-3.81 5.29h-2.41Zm-76.4-132.28v-6.42l-5.84-8.74h2.44l2.99 4.57c.55.85 1.07 1.71 1.54 2.57.46-.79 1.01-1.69 1.66-2.68l2.94-4.46h2.34l-6.05 8.74v6.42h-2.01Zm-.52 247.65v-6.42l-5.84-8.74h2.44l2.99 4.57c.55.85 1.07 1.71 1.54 2.57.46-.79 1.01-1.69 1.66-2.68l2.94-4.46h2.34l-6.05 8.74v6.42h-2.01Z"/>
</svg>
