<?xml version="1.0" encoding="UTF-8"?><svg xmlns="http://www.w3.org/2000/svg" viewBox="0 0 251.88 312.76"><g id="a"/><g id="b"><g id="c"><g><g id="d"><line x1="40.59" y1="56.51" x2="40.59" y2="231.51" style="fill:none; stroke:#000; stroke-linecap:round; stroke-linejoin:round; stroke-width:.43px;"/></g><g id="e"><line x1="40.59" y1="231.51" x2="215.59" y2="231.51" style="fill:none; stroke:#000; stroke-linecap:round; stroke-linejoin:round; stroke-width:.43px;"/></g><g id="f"><line x1="215.59" y1="231.51" x2="215.59" y2="226.51" style="fill:none; stroke:#000; stroke-linecap:round; stroke-linejoin:round; stroke-width:.43px;"/></g><g id="g"><line x1="40.59" y1="56.51" x2="45.59" y2="56.51" style="fill:none; stroke:#000; stroke-linecap:round; stroke-linejoin:round; stroke-width:.43px;"/></g><g id="h"><line x1="55.59" y1="66.51" x2="55.59" y2="191.51" style="fill:none; stroke:#000; stroke-linecap:round; stroke-linejoin:round; stroke-width:.43px;"/></g><g id="i"><line x1="205.59" y1="216.51" x2="80.59" y2="216.51" style="fill:none; stroke:#000; stroke-linecap:round; stroke-linejoin:round; stroke-width:.43px;"/></g><g id="j"><path d="M55.59,191.51c0,13.81,11.19,25,25,25" style="fill:none; stroke:#000; stroke-linecap:round; stroke-linejoin:round; stroke-width:.43px;"/></g><g id="k"><line x1="128.09" y1="29.34" x2="128.09" y2="290" style="fill:none; stroke:#636466; stroke-dasharray:0 0 12 3; stroke-linecap:round; stroke-linejoin:round; stroke-width:.35px;"/></g><g id="l"><line x1="238.78" y1="147.17" x2="17.41" y2="147.17" style="fill:none; stroke:#636466; stroke-dasharray:0 0 12 3; stroke-linecap:round; stroke-linejoin:round; stroke-width:.35px;"/></g><g id="m"><line x1="23.77" y1="251.19" x2="232.42" y2="43.14" style="fill:none; stroke:#636466; stroke-dasharray:0 0 12 3; stroke-linecap:round; stroke-linejoin:round; stroke-width:.35px;"/></g><g id="n"><line x1="232.42" y1="251.19" x2="23.77" y2="43.14" style="fill:none; stroke:#636466; stroke-dasharray:0 0 12 3; stroke-linecap:round; stroke-linejoin:round; stroke-width:.35px;"/></g><g id="o"><path d="M55.59,66.51c0-5.52-4.48-10-10-10" style="fill:none; stroke:#000; stroke-linecap:round; stroke-linejoin:round; stroke-width:.43px;"/></g><g id="p"><path d="M215.59,226.51c0-5.52-4.48-10-10-10" style="fill:none; stroke:#000; stroke-linecap:round; stroke-linejoin:round; stroke-width:.43px;"/></g><g id="q"><path d="M124.08,22.41l-.21-1.75c.41,.11,.76,.17,1.07,.17,.41,0,.75-.07,.99-.21,.25-.14,.45-.33,.61-.58,.12-.19,.31-.65,.57-1.39,.03-.1,.09-.25,.17-.46l-4.17-11.01h2.01l2.29,6.36c.3,.81,.56,1.66,.8,2.54,.21-.86,.47-1.69,.77-2.5l2.35-6.4h1.86l-4.18,11.17c-.45,1.21-.8,2.04-1.04,2.49-.33,.61-.71,1.06-1.14,1.35-.43,.29-.94,.43-1.53,.43-.36,0-.76-.08-1.2-.23Z" style="fill:gray;"/></g><g id="r"><path d="M124.08,310.12l-.21-1.75c.41,.11,.76,.17,1.07,.17,.41,0,.75-.07,.99-.21,.25-.14,.45-.33,.61-.58,.12-.19,.31-.65,.57-1.39,.03-.1,.09-.25,.17-.46l-4.17-11.01h2.01l2.29,6.36c.3,.81,.56,1.66,.8,2.54,.21-.86,.47-1.69,.77-2.5l2.35-6.4h1.86l-4.18,11.17c-.45,1.21-.8,2.04-1.04,2.49-.33,.61-.71,1.06-1.14,1.35-.43,.29-.94,.43-1.53,.43-.36,0-.76-.08-1.2-.23Z" style="fill:gray;"/></g><g id="s"><path d="M241.7,151.82v-1.51l6.99-8.03c-.79,.04-1.49,.06-2.1,.06h-4.48v-1.51h8.98v1.23l-5.95,6.97-1.15,1.27c.83-.06,1.62-.09,2.35-.09h5.08v1.6h-9.72Z" style="fill:gray;"/></g><g id="t"><path d="M.41,151.82v-1.51l6.99-8.03c-.79,.04-1.49,.06-2.1,.06H.83v-1.51H9.81v1.23l-5.95,6.97-1.15,1.27c.83-.06,1.62-.09,2.35-.09h5.08v1.6H.41Z" style="fill:gray;"/></g><g id="u"><path d="M243.81,40.12v-1.61c-.86,1.24-2.02,1.86-3.49,1.86-.65,0-1.25-.12-1.82-.37s-.98-.56-1.25-.94-.46-.84-.57-1.38c-.08-.37-.11-.94-.11-1.74v-6.81h1.86v6.09c0,.97,.04,1.63,.11,1.97,.12,.49,.37,.87,.74,1.15,.38,.28,.85,.42,1.41,.42s1.08-.14,1.57-.43,.84-.68,1.04-1.17c.2-.49,.31-1.21,.31-2.15v-5.89h1.86v10.99h-1.67Z" style="fill:gray;"/></g><g id="v"><path d="M19.23,264.77v-1.61c-.86,1.24-2.02,1.86-3.49,1.86-.65,0-1.25-.12-1.82-.37s-.98-.56-1.25-.94-.46-.84-.57-1.38c-.08-.37-.11-.94-.11-1.74v-6.81h1.86v6.09c0,.97,.04,1.63,.11,1.97,.12,.49,.37,.87,.74,1.15,.38,.28,.85,.42,1.41,.42s1.08-.14,1.57-.43,.84-.68,1.04-1.17c.2-.49,.31-1.21,.31-2.15v-5.89h1.86v10.99h-1.67Z" style="fill:gray;"/></g><g id="w"><path d="M15.94,45.15l-4.18-10.99h1.97l2.36,6.58c.25,.71,.49,1.45,.7,2.21,.17-.58,.4-1.28,.69-2.09l2.44-6.7h1.91l-4.16,10.99h-1.74Z" style="fill:gray;"/></g><g id="x"><path d="M236.47,267.15l-4.18-10.99h1.97l2.36,6.58c.25,.71,.49,1.45,.7,2.21,.17-.58,.4-1.28,.69-2.09l2.44-6.7h1.91l-4.16,10.99h-1.74Z" style="fill:gray;"/></g><g id="y"><g id="a`"><line x1="30.59" y1="56.51" x2="14.45" y2="56.51" style="fill:none; stroke:gray; stroke-linecap:round; stroke-linejoin:round; stroke-width:.18px;"/></g><g id="aa"><line x1="30.59" y1="147.17" x2="14.45" y2="147.17" style="fill:none; stroke:gray; stroke-linecap:round; stroke-linejoin:round; stroke-width:.18px;"/></g><g id="ab"><line x1="24.45" y1="66.51" x2="24.45" y2="89.21" style="fill:none; stroke:gray; stroke-linecap:round; stroke-linejoin:round; stroke-width:.18px;"/></g><g id="ac"><line x1="24.45" y1="137.17" x2="24.45" y2="114.46" style="fill:none; stroke:gray; stroke-linecap:round; stroke-linejoin:round; stroke-width:.18px;"/></g><g id="ad"><polygon points="22.78 66.51 26.11 66.51 24.45 56.51 24.45 56.51 22.78 66.51" style="fill:gray;"/></g><g id="ae"><polygon points="22.78 137.17 26.11 137.17 24.45 147.17 24.45 147.17 22.78 137.17" style="fill:gray;"/></g><g id="af"><path d="M23.79,105.67l1.92,.24c-.3,1.12-.87,2-1.69,2.62-.82,.62-1.87,.93-3.15,.93-1.61,0-2.88-.49-3.82-1.48-.94-.99-1.41-2.38-1.41-4.16s.48-3.28,1.43-4.3c.95-1.02,2.19-1.53,3.7-1.53s2.67,.5,3.6,1.5c.93,1,1.4,2.41,1.4,4.22,0,.11,0,.28-.01,.5h-8.19c.07,1.21,.41,2.13,1.02,2.77s1.38,.96,2.3,.96c.68,0,1.27-.18,1.75-.54,.48-.36,.87-.93,1.15-1.72Zm-6.11-3.01h6.13c-.08-.92-.32-1.62-.7-2.08-.59-.72-1.36-1.08-2.31-1.08-.86,0-1.57,.29-2.16,.86-.58,.57-.9,1.34-.97,2.3Z" style="fill:gray;"/><path d="M26.53,109.21v-1.06l4.9-5.62c-.56,.03-1.05,.04-1.47,.04h-3.14v-1.06h6.29v.86l-4.16,4.88-.8,.89c.58-.04,1.13-.06,1.64-.06h3.56v1.12h-6.81Z" style="fill:gray;"/></g></g><g id="ag"><g id="ah"><line x1="30.59" y1="147.17" x2="14.45" y2="147.17" style="fill:none; stroke:gray; stroke-linecap:round; stroke-linejoin:round; stroke-width:.18px;"/></g><g id="ai"><line x1="30.59" y1="231.51" x2="14.45" y2="231.51" style="fill:none; stroke:gray; stroke-linecap:round; stroke-linejoin:round; stroke-width:.18px;"/></g><g id="aj"><line x1="24.45" y1="157.17" x2="24.45" y2="176.58" style="fill:none; stroke:gray; stroke-linecap:round; stroke-linejoin:round; stroke-width:.18px;"/></g><g id="ak"><line x1="24.45" y1="221.51" x2="24.45" y2="202.09" style="fill:none; stroke:gray; stroke-linecap:round; stroke-linejoin:round; stroke-width:.18px;"/></g><g id="al"><polygon points="22.78 157.17 26.11 157.17 24.45 147.17 24.45 147.17 22.78 157.17" style="fill:gray;"/></g><g id="am"><polygon points="22.78 221.51 26.11 221.51 24.45 231.51 24.45 231.51 22.78 221.51" style="fill:gray;"/></g><g id="an"><path d="M25.45,191.52l2.01,.51c-.42,1.65-1.18,2.91-2.27,3.77-1.09,.87-2.43,1.3-4.01,1.3s-2.96-.33-3.99-1c-1.02-.67-1.8-1.63-2.34-2.89-.53-1.26-.8-2.62-.8-4.07,0-1.58,.3-2.96,.91-4.13s1.46-2.07,2.58-2.68,2.34-.92,3.68-.92c1.52,0,2.79,.39,3.83,1.16s1.75,1.86,2.16,3.26l-1.98,.47c-.35-1.1-.86-1.91-1.53-2.41-.67-.5-1.51-.75-2.52-.75-1.17,0-2.14,.28-2.92,.84s-1.33,1.31-1.65,2.25c-.32,.94-.48,1.91-.48,2.91,0,1.29,.19,2.42,.56,3.38s.96,1.68,1.75,2.16c.79,.48,1.65,.71,2.58,.71,1.12,0,2.08-.32,2.86-.97,.78-.65,1.31-1.61,1.58-2.89Z" style="fill:gray;"/><path d="M28.13,196.84v-1.06l4.9-5.62c-.56,.03-1.05,.04-1.47,.04h-3.14v-1.06h6.29v.86l-4.16,4.88-.8,.89c.58-.04,1.13-.06,1.64-.06h3.56v1.12h-6.81Z" style="fill:gray;"/></g></g><g id="ao"><g id="ap"><line x1="40.59" y1="241.51" x2="40.59" y2="257.67" style="fill:none; stroke:gray; stroke-linecap:round; stroke-linejoin:round; stroke-width:.18px;"/></g><g id="aq"><line x1="128.09" y1="241.51" x2="128.09" y2="257.67" style="fill:none; stroke:gray; stroke-linecap:round; stroke-linejoin:round; stroke-width:.18px;"/></g><g id="ar"><line x1="50.59" y1="247.67" x2="68.82" y2="247.67" style="fill:none; stroke:gray; stroke-linecap:round; stroke-linejoin:round; stroke-width:.18px;"/></g><g id="as"><line x1="118.09" y1="247.67" x2="99.87" y2="247.67" style="fill:none; stroke:gray; stroke-linecap:round; stroke-linejoin:round; stroke-width:.18px;"/></g><g id="at"><polygon points="50.59 246.01 50.59 249.34 40.59 247.67 40.59 247.67 50.59 246.01" style="fill:gray;"/></g><g id="au"><polygon points="118.09 246.01 118.09 249.34 128.09 247.67 128.09 247.67 118.09 246.01" style="fill:gray;"/></g><g id="av"><path d="M85.23,249.86l2.01,.51c-.42,1.65-1.18,2.91-2.27,3.77-1.09,.87-2.43,1.3-4.01,1.3s-2.96-.33-3.99-1c-1.02-.67-1.8-1.63-2.34-2.89-.53-1.26-.8-2.62-.8-4.07,0-1.58,.3-2.96,.91-4.13s1.46-2.07,2.58-2.68,2.34-.92,3.68-.92c1.52,0,2.79,.39,3.83,1.16s1.75,1.86,2.16,3.26l-1.98,.47c-.35-1.1-.86-1.91-1.53-2.41-.67-.5-1.51-.75-2.52-.75-1.17,0-2.14,.28-2.92,.84s-1.33,1.31-1.65,2.25c-.32,.94-.48,1.91-.48,2.91,0,1.29,.19,2.42,.56,3.38s.96,1.68,1.75,2.16c.79,.48,1.65,.71,2.58,.71,1.12,0,2.08-.32,2.86-.97,.78-.65,1.31-1.61,1.58-2.89Z" style="fill:gray;"/><path d="M88.59,258.14l-.14-1.22c.28,.08,.53,.12,.75,.12,.29,0,.52-.05,.7-.14s.32-.23,.43-.41c.08-.13,.21-.45,.4-.97,.02-.07,.06-.18,.12-.32l-2.92-7.71h1.41l1.6,4.45c.21,.57,.39,1.16,.56,1.78,.15-.6,.33-1.18,.54-1.75l1.64-4.48h1.3l-2.93,7.82c-.31,.85-.56,1.43-.73,1.75-.23,.43-.5,.74-.8,.94s-.66,.3-1.07,.3c-.25,0-.53-.05-.84-.16Z" style="fill:gray;"/></g></g><g id="aw"><g id="ax"><line x1="128.09" y1="241.51" x2="128.09" y2="257.67" style="fill:none; stroke:gray; stroke-linecap:round; stroke-linejoin:round; stroke-width:.18px;"/></g><g id="ay"><line x1="215.59" y1="241.51" x2="215.59" y2="257.67" style="fill:none; stroke:gray; stroke-linecap:round; stroke-linejoin:round; stroke-width:.18px;"/></g><g id="b`"><line x1="138.09" y1="247.67" x2="157.92" y2="247.67" style="fill:none; stroke:gray; stroke-linecap:round; stroke-linejoin:round; stroke-width:.18px;"/></g><g id="ba"><line x1="205.59" y1="247.67" x2="185.77" y2="247.67" style="fill:none; stroke:gray; stroke-linecap:round; stroke-linejoin:round; stroke-width:.18px;"/></g><g id="bb"><polygon points="138.09 246.01 138.09 249.34 128.09 247.67 128.09 247.67 138.09 246.01" style="fill:gray;"/></g><g id="bc"><polygon points="205.59 246.01 205.59 249.34 215.59 247.67 215.59 247.67 205.59 246.01" style="fill:gray;"/></g><g id="bd"><path d="M171.07,251.51l1.92,.24c-.3,1.12-.87,2-1.69,2.62-.82,.62-1.87,.93-3.15,.93-1.61,0-2.88-.49-3.82-1.48-.94-.99-1.41-2.38-1.41-4.16s.48-3.28,1.43-4.3c.95-1.02,2.19-1.53,3.7-1.53s2.67,.5,3.6,1.5c.93,1,1.4,2.41,1.4,4.22,0,.11,0,.28-.01,.5h-8.19c.07,1.21,.41,2.13,1.02,2.77s1.38,.96,2.3,.96c.68,0,1.27-.18,1.75-.54,.48-.36,.87-.93,1.15-1.72Zm-6.11-3.01h6.13c-.08-.92-.32-1.62-.7-2.08-.59-.72-1.36-1.08-2.31-1.08-.86,0-1.57,.29-2.16,.86-.58,.57-.9,1.34-.97,2.3Z" style="fill:gray;"/><path d="M174.49,258.01l-.14-1.22c.28,.08,.53,.12,.75,.12,.29,0,.52-.05,.7-.14s.32-.23,.43-.41c.08-.13,.21-.45,.4-.97,.02-.07,.06-.18,.12-.32l-2.92-7.71h1.41l1.6,4.45c.21,.57,.39,1.16,.56,1.78,.15-.6,.33-1.18,.54-1.75l1.64-4.48h1.3l-2.93,7.82c-.31,.85-.56,1.43-.73,1.75-.23,.43-.5,.74-.8,.94s-.66,.3-1.07,.3c-.25,0-.53-.05-.84-.16Z" style="fill:gray;"/></g></g></g></g></g></svg>