<svg xmlns="http://www.w3.org/2000/svg" viewBox="0 0 211.39 241.75">
  <g/>
  <rect x="61.3" y="50.72" width="100" height="100" rx="14" ry="14" style="fill:none;stroke:#fff;stroke-linecap:round;stroke-linejoin:round;stroke-width:1px"/>
  <rect x="68.8" y="58.22" width="85" height="85" rx="6.5" ry="6.5" style="fill:none;stroke:#fff;stroke-linecap:round;stroke-linejoin:round;stroke-width:1px"/>
  <path style="fill:none;stroke:#fff;stroke-dasharray:0 0 12 3;stroke-linecap:round;stroke-linejoin:round;stroke-width:.35px" d="M111.3 20.66v160.13m71.67-80.07H39.63"/>
  <path style="fill:none;stroke:white;stroke-linecap:round;stroke-linejoin:round;stroke-width:.18px" d="M61.3 146.72v85.86m100-85.86v85.86m-125-10h-25m175 0h25m-150 0h14.2m85.8 0h-14.2"/>
  <path style="fill:white" d="M36.3 218.41v8.33l25-4.16zm150 0v8.33l-25-4.16zM85.52 232.58v-20.22h7.59c1.54 0 2.78.2 3.72.61s1.66 1.04 2.19 1.89.79 1.74.79 2.67c0 .87-.23 1.68-.7 2.44s-1.18 1.38-2.12 1.85q1.83.54 2.82 1.83t.99 3.06q0 1.425-.6 2.64c-.4.81-.89 1.44-1.48 1.88s-1.33.77-2.21 1c-.89.23-1.97.34-3.26.34h-7.71Zm2.68-11.72h4.37c1.19 0 2.04-.08 2.55-.23.68-.2 1.19-.54 1.54-1.01s.52-1.06.52-1.77q0-1.005-.48-1.77t-1.38-1.05c-.9-.285-1.62-.28-3.08-.28H88.2zm0 9.34h5.03c.86 0 1.47-.03 1.82-.1.62-.11 1.13-.29 1.54-.55s.75-.63 1.02-1.12.4-1.06.4-1.7c0-.75-.19-1.41-.58-1.97s-.92-.95-1.61-1.17c-.69-.23-1.67-.34-2.96-.34h-4.68v6.95Zm29.02-9.51h-13.35v-2.32h13.35zm0 6.14h-13.35v-2.32h13.35zm3.75 5.75v-20.22h6.97c1.57 0 2.77.1 3.6.29 1.16.27 2.15.75 2.97 1.45 1.07.9 1.86 2.05 2.39 3.46.53 1.4.79 3 .79 4.81q0 2.31-.54 4.08-.54 1.785-1.38 2.94c-.56.78-1.17 1.39-1.84 1.83s-1.47.78-2.41 1.01-2.03.34-3.25.34h-7.3Zm2.68-2.39h4.32c1.33 0 2.38-.12 3.14-.37s1.36-.6 1.81-1.05c.63-.63 1.13-1.49 1.48-2.56s.53-2.37.53-3.9c0-2.12-.35-3.74-1.04-4.88s-1.54-1.9-2.53-2.28c-.72-.28-1.87-.41-3.46-.41h-4.25z"/>
  <path style="fill:none;stroke:white;stroke-linecap:round;stroke-linejoin:round;stroke-width:.18px" d="M65.3 50.72H.42m64.88 100H.42m10-75v5m0 45v-5"/>
  <path style="fill:white" d="M6.26 75.72h8.33l-4.17-25zm0 50h8.33l-4.17 25zm-4.08-15V90.5h6.97c1.57 0 2.77.1 3.6.29 1.16.27 2.15.75 2.97 1.45 1.07.9 1.86 2.05 2.39 3.46.53 1.4.79 3 .79 4.81q0 2.31-.54 4.08-.54 1.785-1.38 2.94c-.56.78-1.17 1.39-1.84 1.83-.67.45-1.47.78-2.41 1.01s-2.03.34-3.25.34h-7.3Zm2.68-2.39h4.32c1.33 0 2.38-.12 3.14-.37s1.36-.6 1.81-1.05c.63-.63 1.13-1.49 1.48-2.56s.53-2.37.53-3.9c0-2.12-.35-3.74-1.04-4.88s-1.54-1.9-2.53-2.28c-.72-.28-1.87-.41-3.46-.41H4.86z"/>
  <path style="fill:none;stroke:white;stroke-linecap:round;stroke-linejoin:round;stroke-width:.18px" d="M157.3 50.72h52.47m-52.47 7.5h52.47m-10-17.5v-10m0 37.5v10m0-27.5v7.5"/>
  <path style="fill:white" d="M198.11 40.72h3.33l-1.67 10zm0 27.5h3.33l-1.67-10zm-8.47 15.77.27 1.65c-.52.11-.99.17-1.41.17-.68 0-1.2-.11-1.57-.32s-.63-.5-.79-.84c-.15-.35-.23-1.08-.23-2.2v-6.32h-1.37v-1.45h1.37v-2.72l1.85-1.12v3.84h1.87v1.45h-1.87v6.42c0 .53.03.87.1 1.02s.17.27.32.36.36.13.64.13c.21 0 .48-.02.82-.07m-78.47-65.81v-6.42l-5.84-8.74h2.44l2.99 4.57c.55.85 1.07 1.71 1.54 2.57.46-.79 1.01-1.69 1.66-2.68l2.94-4.46h2.34l-6.05 8.74v6.42h-2.01Zm0 182.91v-6.42l-5.84-8.74h2.44l2.99 4.57c.55.85 1.07 1.71 1.54 2.57.46-.79 1.01-1.69 1.66-2.68l2.94-4.46h2.34l-6.05 8.74v6.42h-2.01Zm75.52-91.24 5.87-7.9-5.17-7.26h2.39l2.75 3.89c.57.81.98 1.43 1.22 1.86.34-.55.74-1.13 1.2-1.73l3.05-4.02h2.18l-5.33 7.15 5.74 8.02h-2.48l-3.82-5.41c-.21-.31-.43-.65-.66-1.01q-.51.825-.72 1.14l-3.81 5.29h-2.41Zm-160.24 0 5.87-7.9-5.17-7.26h2.39l2.75 3.89c.57.81.98 1.43 1.22 1.86.34-.55.74-1.13 1.2-1.73l3.05-4.02h2.18l-5.33 7.15 5.74 8.02h-2.48l-3.82-5.41c-.21-.31-.43-.65-.66-1.01q-.51.825-.72 1.14l-3.81 5.29h-2.41Z"/>
</svg>
