<?xml version="1.0" encoding="UTF-8"?><svg xmlns="http://www.w3.org/2000/svg" viewBox="0 0 257.28 363.5"><g id="a"/><g id="b"><g id="c"><g><g id="d"><line x1="58.76" y1="40.79" x2="208.76" y2="40.79" style="fill:none; stroke:#000; stroke-linecap:round; stroke-linejoin:round; stroke-width:.43px;"/></g><g id="e"><line x1="58.76" y1="290.79" x2="208.76" y2="290.79" style="fill:none; stroke:#000; stroke-linecap:round; stroke-linejoin:round; stroke-width:.43px;"/></g><g id="f"><line x1="58.76" y1="40.79" x2="58.76" y2="290.79" style="fill:none; stroke:#000; stroke-linecap:round; stroke-linejoin:round; stroke-width:.43px;"/></g><g id="g"><line x1="88.76" y1="270.79" x2="208.76" y2="270.79" style="fill:none; stroke:#000; stroke-linecap:round; stroke-linejoin:round; stroke-width:.43px;"/></g><g id="h"><line x1="88.76" y1="60.79" x2="208.76" y2="60.79" style="fill:none; stroke:#000; stroke-linecap:round; stroke-linejoin:round; stroke-width:.43px;"/></g><g id="i"><line x1="78.76" y1="70.79" x2="78.76" y2="260.79" style="fill:none; stroke:#000; stroke-linecap:round; stroke-linejoin:round; stroke-width:.43px;"/></g><g id="j"><line x1="58.76" y1="40.79" x2="208.76" y2="40.79" style="fill:none; stroke:#000; stroke-linecap:round; stroke-linejoin:round; stroke-width:.43px;"/></g><g id="k"><line x1="208.76" y1="40.79" x2="208.76" y2="60.79" style="fill:none; stroke:#000; stroke-linecap:round; stroke-linejoin:round; stroke-width:.43px;"/></g><g id="l"><line x1="208.76" y1="270.79" x2="208.76" y2="290.79" style="fill:none; stroke:#000; stroke-linecap:round; stroke-linejoin:round; stroke-width:.43px;"/></g><g id="m"><path d="M88.76,60.79c-5.52,0-10,4.48-10,10" style="fill:none; stroke:#000; stroke-linecap:round; stroke-linejoin:round; stroke-width:.43px;"/></g><g id="n"><path d="M78.76,260.79c0,5.52,4.48,10,10,10" style="fill:none; stroke:#000; stroke-linecap:round; stroke-linejoin:round; stroke-width:.43px;"/></g><g id="o"><line x1="103.04" y1="22.06" x2="103.04" y2="307.74" style="fill:none; stroke:#636466; stroke-dasharray:0 0 12 3; stroke-linecap:round; stroke-linejoin:round; stroke-width:.35px;"/></g><g id="p"><line x1="136.24" y1="164.9" x2="11.48" y2="164.9" style="fill:none; stroke:#636466; stroke-dasharray:0 0 12 3; stroke-linecap:round; stroke-linejoin:round; stroke-width:.35px;"/></g><g id="q"><g id="r"><line x1="58.76" y1="300.79" x2="58.76" y2="354.32" style="fill:none; stroke:gray; stroke-linecap:round; stroke-linejoin:round; stroke-width:.18px;"/></g><g id="s"><line x1="208.76" y1="300.79" x2="208.76" y2="354.32" style="fill:none; stroke:gray; stroke-linecap:round; stroke-linejoin:round; stroke-width:.18px;"/></g><g id="t"><line x1="83.76" y1="344.32" x2="116.21" y2="344.32" style="fill:none; stroke:gray; stroke-linecap:round; stroke-linejoin:round; stroke-width:.18px;"/></g><g id="u"><line x1="183.76" y1="344.32" x2="151.31" y2="344.32" style="fill:none; stroke:gray; stroke-linecap:round; stroke-linejoin:round; stroke-width:.18px;"/></g><g id="v"><polygon points="83.76 340.16 83.76 348.49 58.76 344.32 58.76 344.32 83.76 340.16" style="fill:gray;"/></g><g id="w"><polygon points="183.76 340.16 183.76 348.49 208.76 344.32 208.76 344.32 183.76 340.16" style="fill:gray;"/></g><g id="x"><path d="M126.23,354.33v-20.22h7.59c1.54,0,2.78,.2,3.72,.61s1.66,1.04,2.19,1.89c.53,.85,.79,1.74,.79,2.67,0,.87-.23,1.68-.7,2.44-.47,.76-1.18,1.38-2.12,1.85,1.22,.36,2.16,.97,2.82,1.83s.99,1.88,.99,3.06c0,.95-.2,1.83-.6,2.64-.4,.81-.89,1.44-1.48,1.88-.59,.44-1.33,.77-2.21,1s-1.97,.34-3.26,.34h-7.71Zm2.68-11.72h4.37c1.19,0,2.04-.08,2.55-.23,.68-.2,1.19-.54,1.54-1.01s.52-1.06,.52-1.77c0-.67-.16-1.26-.48-1.77-.32-.51-.78-.86-1.38-1.05-.6-.19-1.62-.28-3.08-.28h-4.04v6.11Zm0,9.34h5.03c.86,0,1.47-.03,1.82-.1,.62-.11,1.13-.29,1.54-.55,.41-.26,.75-.63,1.02-1.12,.27-.49,.4-1.06,.4-1.7,0-.75-.19-1.41-.58-1.97-.39-.56-.92-.95-1.61-1.17-.68-.23-1.67-.34-2.96-.34h-4.68v6.95Z" style="fill:gray;"/></g></g><g id="y"><g id="a`"><line x1="218.76" y1="40.79" x2="257.18" y2="40.79" style="fill:none; stroke:gray; stroke-linecap:round; stroke-linejoin:round; stroke-width:.18px;"/></g><g id="aa"><line x1="218.76" y1="290.79" x2="257.18" y2="290.79" style="fill:none; stroke:gray; stroke-linecap:round; stroke-linejoin:round; stroke-width:.18px;"/></g><g id="ab"><line x1="247.18" y1="65.79" x2="247.18" y2="145.79" style="fill:none; stroke:gray; stroke-linecap:round; stroke-linejoin:round; stroke-width:.18px;"/></g><g id="ac"><line x1="247.18" y1="265.79" x2="247.18" y2="185.79" style="fill:none; stroke:gray; stroke-linecap:round; stroke-linejoin:round; stroke-width:.18px;"/></g><g id="ad"><polygon points="243.02 65.79 251.35 65.79 247.18 40.79 247.18 40.79 243.02 65.79" style="fill:gray;"/></g><g id="ae"><polygon points="243.02 265.79 251.35 265.79 247.18 290.79 247.18 290.79 243.02 265.79" style="fill:gray;"/></g><g id="af"><path d="M238.94,175.79v-20.22h6.97c1.57,0,2.77,.1,3.6,.29,1.16,.27,2.15,.75,2.96,1.45,1.07,.9,1.86,2.05,2.39,3.46,.53,1.4,.79,3,.79,4.81,0,1.54-.18,2.9-.54,4.08-.36,1.19-.82,2.17-1.38,2.94-.56,.78-1.18,1.39-1.84,1.83-.67,.45-1.47,.78-2.41,1.01s-2.03,.34-3.25,.34h-7.3Zm2.68-2.39h4.32c1.33,0,2.38-.12,3.14-.37,.76-.25,1.36-.6,1.81-1.05,.63-.63,1.13-1.49,1.48-2.56s.53-2.37,.53-3.9c0-2.12-.35-3.74-1.04-4.88-.7-1.14-1.54-1.9-2.53-2.28-.72-.28-1.87-.41-3.46-.41h-4.25v15.45Z" style="fill:gray;"/></g></g><g id="ag"><path d="M99.03,22.41l-.21-1.75c.41,.11,.76,.17,1.07,.17,.41,0,.75-.07,.99-.21,.25-.14,.45-.33,.61-.58,.12-.19,.31-.65,.57-1.39,.03-.1,.09-.25,.17-.46l-4.17-11.01h2.01l2.29,6.36c.3,.81,.56,1.66,.8,2.54,.21-.86,.47-1.69,.77-2.5l2.35-6.4h1.86l-4.18,11.17c-.45,1.21-.8,2.04-1.04,2.49-.33,.61-.71,1.06-1.14,1.35-.43,.29-.94,.43-1.53,.43-.36,0-.76-.08-1.2-.23Z" style="fill:gray;"/></g><g id="ah"><path d="M99.03,327.85l-.21-1.75c.41,.11,.76,.17,1.07,.17,.41,0,.75-.07,.99-.21,.25-.14,.45-.33,.61-.58,.12-.19,.31-.65,.57-1.39,.03-.1,.09-.25,.17-.46l-4.17-11.01h2.01l2.29,6.36c.3,.81,.56,1.66,.8,2.54,.21-.86,.47-1.69,.77-2.5l2.35-6.4h1.86l-4.18,11.17c-.45,1.21-.8,2.04-1.04,2.49-.33,.61-.71,1.06-1.14,1.35-.43,.29-.94,.43-1.53,.43-.36,0-.76-.08-1.2-.23Z" style="fill:gray;"/></g><g id="ai"><path d="M138.07,170.38v-1.51l6.99-8.03c-.79,.04-1.49,.06-2.1,.06h-4.48v-1.51h8.98v1.23l-5.95,6.97-1.15,1.27c.83-.06,1.62-.09,2.35-.09h5.08v1.6h-9.72Z" style="fill:gray;"/></g><g id="aj"><path d="M.41,170.38v-1.51l6.99-8.03c-.79,.04-1.49,.06-2.1,.06H.83v-1.51H9.81v1.23l-5.95,6.97-1.15,1.27c.83-.06,1.62-.09,2.35-.09h5.08v1.6H.41Z" style="fill:gray;"/></g><g id="ak"><g id="al"><line x1="116.74" y1="60.79" x2="132.38" y2="60.79" style="fill:none; stroke:gray; stroke-linecap:round; stroke-linejoin:round; stroke-width:.18px;"/></g><g id="am"><path d="M84.21,104.19c2.87-.37,5.69-1.02,8.43-1.95" style="fill:none; stroke:gray; stroke-linecap:round; stroke-linejoin:round; stroke-width:.18px;"/></g><g id="an"><path d="M118.68,78.41c1.77-4.02,2.92-8.27,3.42-12.63" style="fill:none; stroke:gray; stroke-linecap:round; stroke-linejoin:round; stroke-width:.18px;"/></g><g id="ao"><polygon points="84.27 105.02 84.15 103.36 79.23 104.54 79.23 104.54 84.27 105.02" style="fill:gray;"/></g><g id="ap"><polygon points="121.27 65.73 122.93 65.83 122.38 60.79 122.38 60.79 121.27 65.73" style="fill:gray;"/></g><g id="aq"><g><path d="M97.89,93.84l1.62-.15c.14,.76,.4,1.31,.78,1.65,.39,.34,.88,.51,1.49,.51,.52,0,.97-.12,1.36-.36,.39-.24,.71-.55,.96-.95s.46-.93,.63-1.6c.17-.67,.25-1.36,.25-2.05,0-.08,0-.19,0-.34-.34,.54-.8,.97-1.38,1.3-.58,.33-1.21,.5-1.89,.5-1.13,0-2.09-.41-2.88-1.23-.78-.82-1.18-1.91-1.18-3.25s.41-2.51,1.23-3.35c.82-.85,1.84-1.27,3.08-1.27,.89,0,1.7,.24,2.44,.72,.74,.48,1.3,1.16,1.68,2.05,.38,.89,.57,2.17,.57,3.85s-.19,3.14-.57,4.18c-.38,1.04-.95,1.83-1.7,2.37s-1.63,.81-2.64,.81c-1.07,0-1.95-.3-2.62-.89s-1.09-1.43-1.22-2.51Zm6.88-6.04c0-.97-.26-1.73-.77-2.3-.51-.57-1.13-.85-1.85-.85s-1.4,.3-1.95,.92c-.55,.61-.83,1.4-.83,2.37,0,.87,.26,1.58,.79,2.12,.53,.54,1.18,.82,1.95,.82s1.42-.27,1.92-.82c.5-.54,.75-1.3,.75-2.26Z" style="fill:gray;"/><path d="M108.27,90.26c0-1.62,.17-2.92,.5-3.91,.33-.99,.83-1.75,1.49-2.28,.66-.54,1.48-.8,2.48-.8,.73,0,1.38,.15,1.93,.44,.55,.3,1.01,.72,1.37,1.28,.36,.56,.64,1.24,.85,2.04,.21,.8,.31,1.88,.31,3.24,0,1.61-.17,2.9-.5,3.89-.33,.99-.82,1.75-1.48,2.29-.66,.54-1.49,.81-2.49,.81-1.32,0-2.36-.47-3.11-1.42-.9-1.14-1.35-2.99-1.35-5.57Zm1.73,0c0,2.25,.26,3.74,.79,4.49s1.17,1.12,1.95,1.12,1.42-.37,1.95-1.12,.79-2.24,.79-4.48-.26-3.75-.79-4.49-1.18-1.11-1.97-1.11-1.39,.33-1.85,.98c-.58,.83-.87,2.38-.87,4.62Z" style="fill:gray;"/><path d="M119.31,85.67c0-.72,.25-1.33,.76-1.83,.51-.5,1.12-.76,1.83-.76s1.34,.25,1.84,.76c.5,.5,.76,1.11,.76,1.83s-.25,1.33-.76,1.83-1.12,.76-1.84,.76-1.32-.25-1.83-.76c-.51-.5-.76-1.12-.76-1.84Zm1.02,0c0,.44,.15,.81,.46,1.12,.31,.31,.68,.46,1.12,.46s.8-.15,1.11-.46c.31-.31,.46-.68,.46-1.12s-.15-.81-.46-1.12-.68-.46-1.11-.46-.81,.15-1.12,.46c-.31,.31-.46,.68-.46,1.12Z" style="fill:gray;"/></g></g></g><g id="ar"><g id="as"><line x1="146.93" y1="40.79" x2="171.57" y2="40.79" style="fill:none; stroke:gray; stroke-linecap:round; stroke-linejoin:round; stroke-width:.18px;"/></g><g id="at"><line x1="167.03" y1="60.79" x2="171.57" y2="60.79" style="fill:none; stroke:gray; stroke-linecap:round; stroke-linejoin:round; stroke-width:.18px;"/></g><g id="au"><line x1="161.57" y1="70.79" x2="161.57" y2="80.79" style="fill:none; stroke:gray; stroke-linecap:round; stroke-linejoin:round; stroke-width:.18px;"/></g><g id="av"><line x1="161.57" y1="30.79" x2="161.57" y2="17.03" style="fill:none; stroke:gray; stroke-linecap:round; stroke-linejoin:round; stroke-width:.18px;"/></g><g id="aw"><line x1="161.57" y1="60.79" x2="161.57" y2="40.79" style="fill:none; stroke:gray; stroke-linecap:round; stroke-linejoin:round; stroke-width:.18px;"/></g><g id="ax"><polygon points="159.9 70.79 163.24 70.79 161.57 60.79 161.57 60.79 159.9 70.79" style="fill:gray;"/></g><g id="ay"><polygon points="159.9 30.79 163.24 30.79 161.57 40.79 161.57 40.79 159.9 30.79" style="fill:gray;"/></g><g id="b`"><path d="M173.13,24.53V11.16h-5v-1.79h12.02v1.79h-5.02v13.38h-2.01Z" style="fill:gray;"/></g></g><g id="ba"><g id="bb"><line x1="89.7" y1="183.33" x2="99.7" y2="183.33" style="fill:none; stroke:gray; stroke-linecap:round; stroke-linejoin:round; stroke-width:.18px;"/></g><g id="bc"><line x1="49.7" y1="183.33" x2="31.33" y2="183.33" style="fill:none; stroke:gray; stroke-linecap:round; stroke-linejoin:round; stroke-width:.18px;"/></g><g id="bd"><line x1="79.7" y1="183.33" x2="59.7" y2="183.33" style="fill:none; stroke:gray; stroke-linecap:round; stroke-linejoin:round; stroke-width:.18px;"/></g><g id="be"><polygon points="89.7 181.66 89.7 185 79.7 183.33 79.7 183.33 89.7 181.66" style="fill:gray;"/></g><g id="bf"><polygon points="49.7 181.66 49.7 185 59.7 183.33 59.7 183.33 49.7 181.66" style="fill:gray;"/></g><g id="bg"><path d="M26.12,189.09l.27,1.65c-.52,.11-.99,.17-1.41,.17-.68,0-1.2-.11-1.57-.32s-.63-.5-.79-.84c-.15-.35-.23-1.08-.23-2.2v-6.32h-1.37v-1.45h1.37v-2.72l1.85-1.12v3.84h1.87v1.45h-1.87v6.42c0,.53,.03,.87,.1,1.02,.07,.15,.17,.27,.32,.36s.36,.13,.64,.13c.21,0,.48-.02,.82-.07Z" style="fill:gray;"/></g></g><g id="bh"><g id="bi"><line x1="132.3" y1="233.52" x2="120.76" y2="233.52" style="fill:none; stroke:gray; stroke-linecap:round; stroke-linejoin:round; stroke-width:.18px;"/></g><g id="bj"><line x1="120.76" y1="233.52" x2="89.2" y2="261.26" style="fill:none; stroke:gray; stroke-linecap:round; stroke-linejoin:round; stroke-width:.18px;"/></g><g id="bk"><path d="M137.32,241.02v-15.17h6.72c1.35,0,2.38,.14,3.08,.41,.7,.27,1.26,.75,1.69,1.44,.42,.69,.63,1.45,.63,2.29,0,1.08-.35,1.98-1.04,2.72-.7,.74-1.77,1.21-3.23,1.41,.53,.26,.93,.51,1.21,.76,.59,.54,1.14,1.21,1.67,2.02l2.64,4.13h-2.52l-2.01-3.16c-.59-.91-1.07-1.61-1.45-2.09-.38-.48-.72-.82-1.02-1.01-.3-.19-.6-.33-.92-.4-.23-.05-.6-.07-1.12-.07h-2.33v6.73h-2.01Zm2.01-8.47h4.31c.92,0,1.63-.09,2.15-.28s.91-.49,1.18-.91c.27-.42,.4-.87,.4-1.36,0-.72-.26-1.31-.78-1.77-.52-.46-1.34-.69-2.47-.69h-4.8v5.02Z" style="fill:gray;"/><path d="M154.72,241.02h-1.3v-8.31c-.31,.3-.73,.6-1.23,.9-.51,.3-.97,.52-1.37,.67v-1.26c.73-.34,1.37-.76,1.91-1.25,.55-.49,.93-.96,1.16-1.42h.84v10.66Z" style="fill:gray;"/></g><g id="bl"><line x1="74.18" y1="274.46" x2="81.69" y2="267.86" style="fill:none; stroke:gray; stroke-linecap:round; stroke-linejoin:round; stroke-width:.18px;"/></g><g id="bm"><polygon points="88.1 260.01 90.3 262.51 81.69 267.86 81.69 267.86 88.1 260.01" style="fill:gray;"/></g></g></g></g></g></svg>