<?xml version="1.0" encoding="UTF-8"?><svg xmlns="http://www.w3.org/2000/svg" viewBox="0 0 267.28 370.9"><g id="a"/><g id="b"><g id="c"><g><g id="d"><line x1="51.26" y1="48.19" x2="208.76" y2="48.19" style="fill:none; stroke:#000; stroke-linecap:round; stroke-linejoin:round; stroke-width:.43px;"/></g><g id="e"><line x1="208.76" y1="298.19" x2="51.26" y2="298.19" style="fill:none; stroke:#000; stroke-linecap:round; stroke-linejoin:round; stroke-width:.43px;"/></g><g id="f"><line x1="51.26" y1="298.19" x2="51.26" y2="48.19" style="fill:none; stroke:#000; stroke-linecap:round; stroke-linejoin:round; stroke-width:.43px;"/></g><g id="g"><line x1="208.76" y1="48.19" x2="208.76" y2="51.99" style="fill:none; stroke:#000; stroke-linecap:round; stroke-linejoin:round; stroke-width:.43px;"/></g><g id="h"><path d="M195.49,66.89c7.56-.88,13.27-7.29,13.27-14.9" style="fill:none; stroke:#000; stroke-linecap:round; stroke-linejoin:round; stroke-width:.43px;"/></g><g id="i"><line x1="195.49" y1="66.89" x2="84.53" y2="73.39" style="fill:none; stroke:#000; stroke-linecap:round; stroke-linejoin:round; stroke-width:.43px;"/></g><g id="j"><path d="M84.53,73.39c-7.56,.88-13.27,7.29-13.27,14.9" style="fill:none; stroke:#000; stroke-linecap:round; stroke-linejoin:round; stroke-width:.43px;"/></g><g id="k"><line x1="208.76" y1="298.19" x2="208.76" y2="294.39" style="fill:none; stroke:#000; stroke-linecap:round; stroke-linejoin:round; stroke-width:.43px;"/></g><g id="l"><path d="M208.76,294.39c0-7.61-5.7-14.02-13.27-14.9" style="fill:none; stroke:#000; stroke-linecap:round; stroke-linejoin:round; stroke-width:.43px;"/></g><g id="m"><line x1="195.49" y1="279.49" x2="84.53" y2="272.99" style="fill:none; stroke:#000; stroke-linecap:round; stroke-linejoin:round; stroke-width:.43px;"/></g><g id="n"><path d="M71.26,258.09c0,7.61,5.7,14.02,13.27,14.9" style="fill:none; stroke:#000; stroke-linecap:round; stroke-linejoin:round; stroke-width:.43px;"/></g><g id="o"><line x1="71.26" y1="88.29" x2="71.26" y2="258.09" style="fill:none; stroke:#000; stroke-linecap:round; stroke-linejoin:round; stroke-width:.43px;"/></g><g id="p"><line x1="103.05" y1="29.47" x2="103.05" y2="315.14" style="fill:none; stroke:#636466; stroke-dasharray:0 0 12 3; stroke-linecap:round; stroke-linejoin:round; stroke-width:.35px;"/></g><g id="q"><line x1="136.24" y1="172.3" x2="11.48" y2="172.3" style="fill:none; stroke:#636466; stroke-dasharray:0 0 12 3; stroke-linecap:round; stroke-linejoin:round; stroke-width:.35px;"/></g><g id="r"><g id="s"><line x1="218.76" y1="48.19" x2="267.18" y2="48.19" style="fill:none; stroke:gray; stroke-linecap:round; stroke-linejoin:round; stroke-width:.18px;"/></g><g id="t"><line x1="218.76" y1="298.19" x2="267.18" y2="298.19" style="fill:none; stroke:gray; stroke-linecap:round; stroke-linejoin:round; stroke-width:.18px;"/></g><g id="u"><line x1="257.18" y1="73.19" x2="257.18" y2="153.19" style="fill:none; stroke:gray; stroke-linecap:round; stroke-linejoin:round; stroke-width:.18px;"/></g><g id="v"><line x1="257.18" y1="273.19" x2="257.18" y2="193.19" style="fill:none; stroke:gray; stroke-linecap:round; stroke-linejoin:round; stroke-width:.18px;"/></g><g id="w"><polygon points="253.02 73.19 261.35 73.19 257.18 48.19 257.18 48.19 253.02 73.19" style="fill:gray;"/></g><g id="x"><polygon points="253.02 273.19 261.35 273.19 257.18 298.19 257.18 298.19 253.02 273.19" style="fill:gray;"/></g><g id="y"><path d="M248.94,183.19v-20.22h6.97c1.57,0,2.77,.1,3.6,.29,1.16,.27,2.15,.75,2.96,1.45,1.07,.9,1.86,2.05,2.39,3.46,.53,1.4,.79,3,.79,4.81,0,1.54-.18,2.9-.54,4.08-.36,1.19-.82,2.17-1.38,2.94-.56,.78-1.17,1.39-1.84,1.83s-1.47,.78-2.41,1.01-2.03,.34-3.25,.34h-7.3Zm2.68-2.39h4.32c1.33,0,2.38-.12,3.14-.37s1.36-.6,1.81-1.05c.63-.63,1.13-1.49,1.48-2.56,.35-1.07,.53-2.37,.53-3.9,0-2.12-.35-3.74-1.04-4.88s-1.54-1.9-2.53-2.28c-.72-.28-1.87-.41-3.46-.41h-4.25v15.45Z" style="fill:gray;"/></g></g><g id="a`"><g id="aa"><line x1="51.26" y1="308.19" x2="51.26" y2="361.73" style="fill:none; stroke:gray; stroke-linecap:round; stroke-linejoin:round; stroke-width:.18px;"/></g><g id="ab"><line x1="208.76" y1="308.19" x2="208.76" y2="361.73" style="fill:none; stroke:gray; stroke-linecap:round; stroke-linejoin:round; stroke-width:.18px;"/></g><g id="ac"><line x1="76.26" y1="351.73" x2="112.46" y2="351.73" style="fill:none; stroke:gray; stroke-linecap:round; stroke-linejoin:round; stroke-width:.18px;"/></g><g id="ad"><line x1="183.76" y1="351.73" x2="147.56" y2="351.73" style="fill:none; stroke:gray; stroke-linecap:round; stroke-linejoin:round; stroke-width:.18px;"/></g><g id="ae"><polygon points="76.26 347.56 76.26 355.9 51.26 351.73 51.26 351.73 76.26 347.56" style="fill:gray;"/></g><g id="af"><polygon points="183.76 347.56 183.76 355.9 208.76 351.73 208.76 351.73 183.76 347.56" style="fill:gray;"/></g><g id="ag"><path d="M122.48,361.73v-20.22h7.59c1.54,0,2.78,.2,3.72,.61,.93,.41,1.66,1.04,2.19,1.89,.53,.85,.79,1.74,.79,2.67,0,.87-.23,1.68-.7,2.44-.47,.76-1.18,1.38-2.12,1.85,1.22,.36,2.16,.97,2.82,1.83,.66,.86,.99,1.88,.99,3.06,0,.95-.2,1.83-.6,2.64-.4,.81-.89,1.44-1.48,1.88s-1.33,.77-2.21,1c-.89,.23-1.97,.34-3.26,.34h-7.71Zm2.68-11.72h4.37c1.19,0,2.04-.08,2.55-.23,.68-.2,1.19-.54,1.54-1.01s.52-1.06,.52-1.77c0-.67-.16-1.26-.48-1.77-.32-.51-.78-.86-1.38-1.05-.6-.19-1.62-.28-3.08-.28h-4.04v6.11Zm0,9.34h5.03c.86,0,1.47-.03,1.82-.1,.62-.11,1.13-.29,1.54-.55,.41-.26,.75-.63,1.02-1.12,.27-.49,.4-1.06,.4-1.7,0-.75-.19-1.41-.58-1.97-.39-.56-.92-.95-1.61-1.17s-1.67-.34-2.96-.34h-4.68v6.95Z" style="fill:gray;"/></g></g><g id="ah"><path d="M99.03,29.82l-.21-1.75c.41,.11,.76,.17,1.07,.17,.41,0,.75-.07,.99-.21,.25-.14,.45-.33,.61-.58,.12-.19,.31-.65,.57-1.39,.03-.1,.09-.25,.17-.46l-4.17-11.01h2.01l2.29,6.36c.3,.81,.56,1.66,.8,2.54,.21-.86,.47-1.69,.77-2.5l2.35-6.4h1.86l-4.18,11.17c-.45,1.21-.8,2.04-1.04,2.49-.33,.61-.71,1.06-1.14,1.35-.43,.29-.94,.43-1.53,.43-.36,0-.76-.08-1.2-.23Z" style="fill:gray;"/></g><g id="ai"><path d="M99.03,335.25l-.21-1.75c.41,.11,.76,.17,1.07,.17,.41,0,.75-.07,.99-.21,.25-.14,.45-.33,.61-.58,.12-.19,.31-.65,.57-1.39,.03-.1,.09-.25,.17-.46l-4.17-11.01h2.01l2.29,6.36c.3,.81,.56,1.66,.8,2.54,.21-.86,.47-1.69,.77-2.5l2.35-6.4h1.86l-4.18,11.17c-.45,1.21-.8,2.04-1.04,2.49-.33,.61-.71,1.06-1.14,1.35-.43,.29-.94,.43-1.53,.43-.36,0-.76-.08-1.2-.23Z" style="fill:gray;"/></g><g id="aj"><path d="M138.07,177.78v-1.51l6.99-8.03c-.79,.04-1.49,.06-2.1,.06h-4.48v-1.51h8.98v1.23l-5.95,6.97-1.15,1.27c.83-.06,1.62-.09,2.35-.09h5.08v1.6h-9.72Z" style="fill:gray;"/></g><g id="ak"><path d="M.41,177.78v-1.51l6.99-8.03c-.79,.04-1.49,.06-2.1,.06H.83v-1.51H9.81v1.23l-5.95,6.97-1.15,1.27c.83-.06,1.62-.09,2.35-.09h5.08v1.6H.41Z" style="fill:gray;"/></g><g id="al"><g id="am"><line x1="120.36" y1="71.25" x2="121.5" y2="71.18" style="fill:none; stroke:gray; stroke-linecap:round; stroke-linejoin:round; stroke-width:.18px;"/></g><g id="an"><path d="M76.52,114.46c5.09-.68,9.99-2.33,14.46-4.85" style="fill:none; stroke:gray; stroke-linecap:round; stroke-linejoin:round; stroke-width:.18px;"/></g><g id="ao"><path d="M108.44,90.02c1.76-4.2,2.81-8.67,3.08-13.21" style="fill:none; stroke:gray; stroke-linecap:round; stroke-linejoin:round; stroke-width:.18px;"/></g><g id="ap"><polygon points="76.58 115.29 76.46 113.63 71.53 114.82 71.53 114.82 76.58 115.29" style="fill:gray;"/></g><g id="aq"><polygon points="110.69 76.81 112.35 76.81 111.52 71.81 111.52 71.81 110.69 76.81" style="fill:gray;"/></g><g id="ar"><path d="M103.94,98.64h1.72c-.44,1.37-.84,3.02-1.2,4.96,.44,2.4,.84,4.06,1.2,4.96h-1.67c-.27-.62-.47-1.23-.61-1.81-.52,1.36-1.6,2.04-3.24,2.04-1.25,0-2.25-.47-3.01-1.4-.76-.93-1.14-2.2-1.14-3.8s.38-2.92,1.14-3.82c.76-.9,1.77-1.35,3.03-1.35,.78,0,1.41,.16,1.91,.47,.49,.31,.95,.79,1.37,1.43,.04-.22,.21-.78,.5-1.68Zm-3.49,1.17c-.8,0-1.44,.32-1.9,.97-.47,.65-.7,1.58-.7,2.8s.22,2.12,.66,2.8,1.06,1.02,1.85,1.02,1.42-.33,1.93-1c.52-.67,.78-1.63,.78-2.89s-.24-2.14-.72-2.76c-.48-.62-1.11-.93-1.89-.93Z" style="fill:gray;"/></g></g><g id="as"><g id="at"><line x1="146.93" y1="48.19" x2="152.51" y2="48.19" style="fill:none; stroke:gray; stroke-linecap:round; stroke-linejoin:round; stroke-width:.18px;"/></g><g id="au"><line x1="148.22" y1="70.25" x2="152.51" y2="70.25" style="fill:none; stroke:gray; stroke-linecap:round; stroke-linejoin:round; stroke-width:.18px;"/></g><g id="av"><line x1="142.51" y1="38.19" x2="142.51" y2="28.19" style="fill:none; stroke:gray; stroke-linecap:round; stroke-linejoin:round; stroke-width:.18px;"/></g><g id="aw"><line x1="142.51" y1="80.25" x2="142.51" y2="90.25" style="fill:none; stroke:gray; stroke-linecap:round; stroke-linejoin:round; stroke-width:.18px;"/></g><g id="ax"><line x1="142.51" y1="48.19" x2="142.51" y2="70.25" style="fill:none; stroke:gray; stroke-linecap:round; stroke-linejoin:round; stroke-width:.18px;"/></g><g id="ay"><polygon points="140.84 38.19 144.17 38.19 142.51 48.19 142.51 48.19 140.84 38.19" style="fill:gray;"/></g><g id="b`"><polygon points="140.84 80.25 144.17 80.25 142.51 70.25 142.51 70.25 140.84 80.25" style="fill:gray;"/></g><g id="ba"><path d="M129.06,97.75v-13.38h-5v-1.79h12.02v1.79h-5.02v13.38h-2.01Z" style="fill:gray;"/></g></g><g id="bb"><g id="bc"><line x1="208.76" y1="38.19" x2="208.76" y2="13.21" style="fill:none; stroke:gray; stroke-linecap:round; stroke-linejoin:round; stroke-width:.18px;"/></g><g id="bd"><line x1="142.58" y1="38.19" x2="142.58" y2="13.21" style="fill:none; stroke:gray; stroke-linecap:round; stroke-linejoin:round; stroke-width:.18px;"/></g><g id="be"><line x1="198.76" y1="23.21" x2="193.21" y2="23.21" style="fill:none; stroke:gray; stroke-linecap:round; stroke-linejoin:round; stroke-width:.18px;"/></g><g id="bf"><line x1="152.58" y1="23.21" x2="158.13" y2="23.21" style="fill:none; stroke:gray; stroke-linecap:round; stroke-linejoin:round; stroke-width:.18px;"/></g><g id="bg"><polygon points="198.76 21.55 198.76 24.88 208.76 23.21 208.76 23.21 198.76 21.55" style="fill:gray;"/></g><g id="bh"><polygon points="152.58 21.55 152.58 24.88 142.58 23.21 142.58 23.21 152.58 21.55" style="fill:gray;"/></g><g id="bi"><g><path d="M163.14,18.18V3.02h5.69c1.16,0,2.09,.15,2.79,.46,.7,.31,1.25,.78,1.65,1.42s.59,1.31,.59,2c0,.65-.18,1.26-.53,1.83-.35,.57-.88,1.03-1.59,1.39,.92,.27,1.62,.73,2.12,1.38,.49,.65,.74,1.41,.74,2.3,0,.71-.15,1.37-.45,1.98-.3,.61-.67,1.08-1.11,1.41s-.99,.58-1.66,.75c-.67,.17-1.48,.25-2.45,.25h-5.78Zm2.01-8.79h3.28c.89,0,1.53-.06,1.91-.18,.51-.15,.89-.4,1.15-.76,.26-.35,.39-.79,.39-1.32,0-.5-.12-.95-.36-1.33-.24-.38-.59-.64-1.03-.79s-1.22-.21-2.31-.21h-3.03v4.58Zm0,7h3.78c.65,0,1.1-.02,1.37-.07,.46-.08,.85-.22,1.16-.41,.31-.19,.57-.47,.77-.84,.2-.37,.3-.79,.3-1.28,0-.57-.15-1.06-.43-1.47-.29-.42-.69-.71-1.21-.88-.51-.17-1.25-.25-2.22-.25h-3.51v5.21Z" style="fill:gray;"/><path d="M176.4,13.63v-1.87h5.72v1.87h-5.72Z" style="fill:gray;"/><path d="M188.24,16.52l.27,1.65c-.52,.11-.99,.17-1.41,.17-.68,0-1.2-.11-1.57-.32-.37-.21-.63-.5-.79-.84-.15-.35-.23-1.08-.23-2.2v-6.32h-1.37v-1.45h1.37v-2.72l1.85-1.12v3.84h1.87v1.45h-1.87v6.42c0,.53,.03,.87,.1,1.02,.07,.15,.17,.27,.32,.36s.36,.13,.64,.13c.21,0,.48-.02,.82-.07Z" style="fill:gray;"/></g><path d="M180.75,41.45v1.79h-10.02c-.01-.45,.06-.88,.22-1.29,.26-.68,.66-1.36,1.23-2.02s1.37-1.43,2.44-2.3c1.65-1.35,2.76-2.42,3.34-3.21,.58-.79,.87-1.54,.87-2.24,0-.74-.26-1.36-.79-1.87-.53-.51-1.22-.76-2.06-.76-.9,0-1.61,.27-2.15,.81-.54,.54-.81,1.28-.82,2.24l-1.91-.2c.13-1.43,.62-2.52,1.48-3.26,.85-.75,2-1.12,3.44-1.12s2.61,.4,3.46,1.21c.85,.81,1.27,1.81,1.27,3,0,.61-.12,1.2-.37,1.79-.25,.59-.66,1.2-1.24,1.85-.58,.65-1.53,1.54-2.87,2.67-1.12,.94-1.83,1.57-2.15,1.91-.32,.33-.58,.67-.79,1.01h7.44Z" style="fill:gray;"/></g></g><g id="bj"><line x1="160.63" y1="24.68" x2="190.71" y2="24.68" style="fill:none; stroke:gray; stroke-linecap:round; stroke-linejoin:round; stroke-width:.28px;"/></g><g id="bk"><g id="bl"><line x1="125.67" y1="233.72" x2="114.13" y2="233.72" style="fill:none; stroke:gray; stroke-linecap:round; stroke-linejoin:round; stroke-width:.18px;"/></g><g id="bm"><line x1="114.13" y1="233.72" x2="82.57" y2="261.46" style="fill:none; stroke:gray; stroke-linecap:round; stroke-linejoin:round; stroke-width:.18px;"/></g><g id="bn"><path d="M130.69,241.22v-15.17h6.72c1.35,0,2.38,.14,3.08,.41,.7,.27,1.27,.75,1.69,1.44,.42,.69,.63,1.45,.63,2.29,0,1.08-.35,1.98-1.04,2.72-.7,.74-1.77,1.21-3.23,1.41,.53,.26,.93,.51,1.21,.76,.59,.54,1.14,1.21,1.67,2.02l2.64,4.13h-2.52l-2.01-3.16c-.59-.91-1.07-1.61-1.45-2.09-.38-.48-.72-.82-1.02-1.01-.3-.19-.6-.33-.92-.4-.23-.05-.6-.07-1.12-.07h-2.33v6.73h-2.01Zm2.01-8.47h4.31c.92,0,1.63-.09,2.15-.28,.52-.19,.91-.49,1.18-.91,.27-.42,.4-.87,.4-1.36,0-.72-.26-1.31-.78-1.77-.52-.46-1.34-.69-2.47-.69h-4.8v5.02Z" style="fill:gray;"/><path d="M148.08,241.22h-1.3v-8.31c-.31,.3-.73,.6-1.23,.9-.51,.3-.97,.52-1.37,.67v-1.26c.73-.34,1.37-.76,1.91-1.25,.55-.49,.93-.96,1.16-1.42h.84v10.66Z" style="fill:gray;"/></g><g id="bo"><line x1="67.55" y1="274.67" x2="75.06" y2="268.07" style="fill:none; stroke:gray; stroke-linecap:round; stroke-linejoin:round; stroke-width:.18px;"/></g><g id="bp"><polygon points="81.47 260.21 83.67 262.72 75.06 268.07 75.06 268.07 81.47 260.21" style="fill:gray;"/></g></g><g id="bq"><g id="br"><line x1="223.36" y1="258.07" x2="213.36" y2="258.07" style="fill:none; stroke:gray; stroke-linecap:round; stroke-linejoin:round; stroke-width:.18px;"/></g><g id="bs"><line x1="213.36" y1="258.07" x2="206.33" y2="273.42" style="fill:none; stroke:gray; stroke-linecap:round; stroke-linejoin:round; stroke-width:.18px;"/></g><g id="bt"><path d="M228.38,265.57v-15.17h6.72c1.35,0,2.38,.14,3.08,.41,.7,.27,1.26,.75,1.69,1.44,.42,.69,.63,1.45,.63,2.29,0,1.08-.35,1.98-1.04,2.72-.7,.74-1.77,1.21-3.23,1.41,.53,.26,.93,.51,1.21,.76,.59,.54,1.14,1.21,1.67,2.02l2.64,4.13h-2.52l-2.01-3.16c-.59-.91-1.07-1.61-1.45-2.09-.38-.48-.72-.82-1.02-1.01-.3-.19-.6-.33-.92-.4-.23-.05-.6-.07-1.12-.07h-2.33v6.73h-2.01Zm2.01-8.47h4.31c.92,0,1.63-.09,2.15-.28s.91-.49,1.18-.91c.27-.42,.4-.87,.4-1.36,0-.72-.26-1.31-.78-1.77s-1.34-.69-2.47-.69h-4.8v5.02Z" style="fill:gray;"/><path d="M248.88,264.32v1.25h-7.02c0-.31,.04-.62,.15-.91,.18-.48,.46-.95,.86-1.41,.39-.46,.96-1,1.71-1.61,1.15-.95,1.93-1.7,2.34-2.25,.41-.55,.61-1.08,.61-1.57,0-.52-.18-.95-.55-1.31-.37-.36-.85-.53-1.44-.53-.63,0-1.13,.19-1.51,.56-.38,.38-.57,.9-.57,1.56l-1.34-.14c.09-1,.44-1.76,1.04-2.29,.6-.52,1.4-.79,2.41-.79s1.83,.28,2.42,.85c.59,.57,.89,1.27,.89,2.1,0,.42-.09,.84-.26,1.25-.17,.41-.46,.84-.87,1.3s-1.07,1.08-2.01,1.87c-.78,.66-1.28,1.1-1.51,1.34-.22,.23-.41,.47-.55,.71h5.21Z" style="fill:gray;"/></g><g id="bu"><line x1="198.01" y1="291.6" x2="202.17" y2="282.51" style="fill:none; stroke:gray; stroke-linecap:round; stroke-linejoin:round; stroke-width:.18px;"/></g><g id="bv"><polygon points="204.82 272.72 207.85 274.11 202.17 282.51 202.17 282.51 204.82 272.72" style="fill:gray;"/></g></g><g id="bw"><g id="bx"><line x1="82.2" y1="190.73" x2="92.2" y2="190.73" style="fill:none; stroke:gray; stroke-linecap:round; stroke-linejoin:round; stroke-width:.18px;"/></g><g id="by"><line x1="42.2" y1="190.73" x2="23.83" y2="190.73" style="fill:none; stroke:gray; stroke-linecap:round; stroke-linejoin:round; stroke-width:.18px;"/></g><g id="c`"><line x1="72.2" y1="190.73" x2="52.2" y2="190.73" style="fill:none; stroke:gray; stroke-linecap:round; stroke-linejoin:round; stroke-width:.18px;"/></g><g id="ca"><polygon points="82.2 189.07 82.2 192.4 72.2 190.73 72.2 190.73 82.2 189.07" style="fill:gray;"/></g><g id="cb"><polygon points="42.2 189.07 42.2 192.4 52.2 190.73 52.2 190.73 42.2 189.07" style="fill:gray;"/></g><g id="cc"><path d="M18.62,196.5l.27,1.65c-.52,.11-.99,.17-1.41,.17-.68,0-1.2-.11-1.57-.32-.37-.21-.63-.5-.79-.84-.15-.35-.23-1.08-.23-2.2v-6.32h-1.37v-1.45h1.37v-2.72l1.85-1.12v3.84h1.87v1.45h-1.87v6.42c0,.53,.03,.87,.1,1.02,.07,.15,.17,.27,.32,.36,.15,.09,.36,.13,.64,.13,.21,0,.48-.02,.82-.07Z" style="fill:gray;"/></g></g></g></g></g></svg>