<svg xmlns="http://www.w3.org/2000/svg" viewBox="0 0 225.89 364.94">
  <g/>
  <path style="fill:none;stroke:#fff;stroke-linecap:round;stroke-linejoin:round;stroke-width:.43px" d="M40.67 42.23h185m0 250h-185m185-250v20m0 0h-72.5m-112.5 0v-20m185 250v-20m0 0h-72.5m-112.5 0v20m102.5-220v190m-20-190v190m30-200c-5.52 0-10 4.48-10 10m-30-10h-72.5m82.5 10c0-5.52-4.48-10-10-10m30 200c0 5.52 4.48 10 10 10m-40 0h-72.5m72.5 0c5.52 0 10-4.48 10-10"/>
  <path style="fill:none;stroke:#fff;stroke-dasharray:0 0 12 3;stroke-linecap:round;stroke-linejoin:round;stroke-width:.35px" d="M133.17 23.51v285.67m43.2-142.84H89.98"/>
  <path style="fill:none;stroke:#fff;stroke-linecap:round;stroke-linejoin:round;stroke-width:.18px" d="M30.67 42.23H.42m30.25 250H.42m10-225v80m0 120v-80"/>
  <path style="fill:#fff" d="M6.26 67.23h8.33l-4.17-25zm0 200h8.33l-4.17 25zm-4.08-90v-20.22h6.97c1.57 0 2.77.1 3.6.29 1.16.27 2.15.75 2.97 1.45 1.07.9 1.86 2.05 2.39 3.46s.79 3 .79 4.81q0 2.31-.54 4.08-.54 1.785-1.38 2.94c-.56.78-1.17 1.39-1.84 1.83-.67.45-1.47.78-2.41 1.01s-2.03.34-3.25.34h-7.3Zm2.68-2.39h4.32c1.33 0 2.38-.12 3.14-.37s1.36-.6 1.81-1.05c.63-.63 1.13-1.49 1.48-2.56s.53-2.37.53-3.9c0-2.12-.35-3.74-1.04-4.88s-1.54-1.9-2.53-2.28c-.72-.28-1.87-.41-3.46-.41H4.86z"/>
  <path style="fill:none;stroke:#fff;stroke-linecap:round;stroke-linejoin:round;stroke-width:.18px" d="M40.67 302.23v53.54m185-53.54v53.54m-160-10h49.95m85.05 0h-49.95"/>
  <path style="fill:#fff" d="M65.67 341.6v8.34l-25-4.17zm135 0v8.34l25-4.17zm-75.03 14.17v-20.22h7.59c1.54 0 2.78.2 3.72.61q1.395.615 2.19 1.89c.53.85.79 1.74.79 2.67 0 .87-.23 1.68-.7 2.44s-1.18 1.38-2.12 1.85q1.83.54 2.82 1.83t.99 3.06q0 1.425-.6 2.64c-.4.81-.89 1.44-1.48 1.88s-1.33.77-2.21 1c-.89.23-1.97.34-3.26.34h-7.71Zm2.68-11.72h4.37c1.19 0 2.04-.08 2.55-.23.68-.2 1.19-.54 1.54-1.01s.52-1.06.52-1.77q0-1.005-.48-1.77t-1.38-1.05c-.6-.19-1.62-.28-3.08-.28h-4.04zm0 9.34h5.03c.86 0 1.47-.03 1.82-.1.62-.11 1.13-.29 1.54-.55s.75-.63 1.02-1.12.4-1.06.4-1.7c0-.75-.19-1.41-.58-1.97s-.92-.95-1.61-1.17-1.67-.34-2.96-.34h-4.68v6.95Z"/>
  <path style="fill:none;stroke:#fff;stroke-linecap:round;stroke-linejoin:round;stroke-width:.18px" d="M154.11 184.77h10m-50 0H95.74m48.37 0h-20"/>
  <path style="fill:#fff" d="M154.11 183.11v3.33l-10-1.67zm-40 0v3.33l10-1.67zm-23.58 7.43.27 1.65c-.52.11-.99.17-1.41.17-.68 0-1.2-.11-1.57-.32s-.63-.5-.79-.84c-.15-.35-.23-1.08-.23-2.2v-6.32h-1.37v-1.45h1.37v-2.72l1.85-1.12v3.84h1.87v1.45h-1.87v6.42c0 .53.03.87.1 1.02s.17.27.32.36.36.13.64.13c.21 0 .48-.02.82-.07m38.63-168.13-.21-1.75c.41.11.76.17 1.07.17.41 0 .75-.07.99-.21.25-.14.45-.33.61-.58.12-.19.31-.65.57-1.39.03-.1.09-.25.17-.46l-4.17-11.01h2.01l2.29 6.36c.3.81.56 1.66.8 2.54.21-.86.47-1.69.77-2.5l2.35-6.4h1.86l-4.18 11.17c-.45 1.21-.8 2.04-1.04 2.49q-.495.915-1.14 1.35c-.43.29-.94.43-1.53.43-.36 0-.76-.08-1.2-.23Zm0 306.88-.21-1.75c.41.11.76.17 1.07.17.41 0 .75-.07.99-.21.25-.14.45-.33.61-.58.12-.19.31-.65.57-1.39.03-.1.09-.25.17-.46l-4.17-11.01h2.01l2.29 6.36c.3.81.56 1.66.8 2.54.21-.86.47-1.69.77-2.5l2.35-6.4h1.86l-4.18 11.17c-.45 1.21-.8 2.04-1.04 2.49q-.495.915-1.14 1.35c-.43.29-.94.43-1.53.43-.36 0-.76-.08-1.2-.23ZM178.2 171v-1.51l6.99-8.03q-1.185.06-2.1.06h-4.48v-1.51h8.98v1.23l-5.95 6.97-1.15 1.27c.83-.06 1.62-.09 2.35-.09h5.08v1.6h-9.72Zm-100.29 0v-1.51l6.99-8.03q-1.185.06-2.1.06h-4.48v-1.51h8.98v1.23l-5.95 6.97-1.15 1.27c.83-.06 1.62-.09 2.35-.09h5.08v1.6h-9.72Z"/>
</svg>
