<?xml version="1.0" encoding="UTF-8"?><svg xmlns="http://www.w3.org/2000/svg" viewBox="0 0 282.21 331.94"><g id="a"/><g id="b"><g id="c"><g><g id="d"><line x1="56.48" y1="107.32" x2="231.48" y2="107.32" style="fill:none; stroke:#000; stroke-linecap:round; stroke-linejoin:round; stroke-width:.43px;"/></g><g id="e"><line x1="136.48" y1="282.32" x2="151.48" y2="282.32" style="fill:none; stroke:#000; stroke-linecap:round; stroke-linejoin:round; stroke-width:.43px;"/></g><g id="f"><line x1="56.48" y1="107.32" x2="56.48" y2="112.32" style="fill:none; stroke:#000; stroke-linecap:round; stroke-linejoin:round; stroke-width:.43px;"/></g><g id="g"><line x1="166.48" y1="122.32" x2="221.48" y2="122.32" style="fill:none; stroke:#000; stroke-linecap:round; stroke-linejoin:round; stroke-width:.43px;"/></g><g id="h"><line x1="231.48" y1="112.32" x2="231.48" y2="107.32" style="fill:none; stroke:#000; stroke-linecap:round; stroke-linejoin:round; stroke-width:.43px;"/></g><g id="i"><line x1="151.48" y1="137.32" x2="151.48" y2="282.32" style="fill:none; stroke:#000; stroke-linecap:round; stroke-linejoin:round; stroke-width:.43px;"/></g><g id="j"><line x1="136.48" y1="137.32" x2="136.48" y2="282.32" style="fill:none; stroke:#000; stroke-linecap:round; stroke-linejoin:round; stroke-width:.43px;"/></g><g id="k"><path d="M166.48,122.32c-8.28,0-15,6.72-15,15" style="fill:none; stroke:#000; stroke-linecap:round; stroke-linejoin:round; stroke-width:.43px;"/></g><g id="l"><line x1="121.48" y1="122.32" x2="66.48" y2="122.32" style="fill:none; stroke:#000; stroke-linecap:round; stroke-linejoin:round; stroke-width:.43px;"/></g><g id="m"><path d="M136.48,137.32c0-8.28-6.72-15-15-15" style="fill:none; stroke:#000; stroke-linecap:round; stroke-linejoin:round; stroke-width:.43px;"/></g><g id="n"><path d="M221.48,122.32c5.52,0,10-4.48,10-10" style="fill:none; stroke:#000; stroke-linecap:round; stroke-linejoin:round; stroke-width:.43px;"/></g><g id="o"><path d="M56.48,112.32c0,5.52,4.48,10,10,10" style="fill:none; stroke:#000; stroke-linecap:round; stroke-linejoin:round; stroke-width:.43px;"/></g><g id="p"><line x1="143.98" y1="23.5" x2="143.98" y2="309.18" style="fill:none; stroke:#636466; stroke-dasharray:0 0 12 3; stroke-linecap:round; stroke-linejoin:round; stroke-width:.35px;"/></g><g id="q"><line x1="187.17" y1="179.65" x2="100.78" y2="179.65" style="fill:none; stroke:#636466; stroke-dasharray:0 0 12 3; stroke-linecap:round; stroke-linejoin:round; stroke-width:.35px;"/></g><g id="r"><g id="s"><line x1="46.48" y1="107.32" x2=".09" y2="107.32" style="fill:none; stroke:gray; stroke-linecap:round; stroke-linejoin:round; stroke-width:.18px;"/></g><g id="t"><line x1="126.48" y1="282.32" x2=".09" y2="282.32" style="fill:none; stroke:gray; stroke-linecap:round; stroke-linejoin:round; stroke-width:.18px;"/></g><g id="u"><line x1="10.09" y1="132.32" x2="10.09" y2="174.82" style="fill:none; stroke:gray; stroke-linecap:round; stroke-linejoin:round; stroke-width:.18px;"/></g><g id="v"><line x1="10.09" y1="257.32" x2="10.09" y2="214.82" style="fill:none; stroke:gray; stroke-linecap:round; stroke-linejoin:round; stroke-width:.18px;"/></g><g id="w"><polygon points="5.93 132.32 14.26 132.32 10.09 107.32 10.09 107.32 5.93 132.32" style="fill:gray;"/></g><g id="x"><polygon points="5.93 257.32 14.26 257.32 10.09 282.32 10.09 282.32 5.93 257.32" style="fill:gray;"/></g><g id="y"><path d="M4.21,204.82v-20.22h2.48v7.25c1.16-1.34,2.62-2.01,4.39-2.01,1.08,0,2.03,.21,2.83,.64,.8,.43,1.37,1.02,1.72,1.77s.52,1.85,.52,3.28v9.28h-2.48v-9.28c0-1.24-.27-2.14-.81-2.71s-1.3-.85-2.28-.85c-.74,0-1.43,.19-2.08,.57-.65,.38-1.11,.9-1.39,1.55-.28,.65-.41,1.55-.41,2.7v8.01h-2.48Z" style="fill:gray;"/></g></g><g id="a`"><g id="aa"><line x1="56.48" y1="97.32" x2="56.48" y2="54.46" style="fill:none; stroke:gray; stroke-linecap:round; stroke-linejoin:round; stroke-width:.18px;"/></g><g id="ab"><line x1="231.48" y1="97.32" x2="231.48" y2="54.46" style="fill:none; stroke:gray; stroke-linecap:round; stroke-linejoin:round; stroke-width:.18px;"/></g><g id="ac"><line x1="81.48" y1="64.46" x2="164.46" y2="64.46" style="fill:none; stroke:gray; stroke-linecap:round; stroke-linejoin:round; stroke-width:.18px;"/></g><g id="ad"><line x1="206.48" y1="64.46" x2="197.03" y2="64.46" style="fill:none; stroke:gray; stroke-linecap:round; stroke-linejoin:round; stroke-width:.18px;"/></g><g id="ae"><polygon points="81.48 60.29 81.48 68.62 56.48 64.46 56.48 64.46 81.48 60.29" style="fill:gray;"/></g><g id="af"><polygon points="206.48 60.29 206.48 68.62 231.48 64.46 231.48 64.46 206.48 60.29" style="fill:gray;"/></g><g id="ag"><path d="M176.79,74.29h-2.3v-20.22h2.48v7.21c1.05-1.32,2.39-1.97,4.01-1.97,.9,0,1.75,.18,2.56,.54s1.47,.87,1.99,1.53,.93,1.45,1.22,2.38c.29,.93,.44,1.92,.44,2.98,0,2.51-.62,4.45-1.86,5.82-1.24,1.37-2.73,2.06-4.47,2.06s-3.08-.72-4.07-2.17v1.83Zm-.03-7.43c0,1.76,.24,3.03,.72,3.81,.78,1.28,1.84,1.92,3.17,1.92,1.08,0,2.02-.47,2.81-1.41s1.19-2.35,1.19-4.21-.38-3.32-1.14-4.23-1.68-1.37-2.75-1.37-2.02,.47-2.81,1.41c-.79,.94-1.19,2.31-1.19,4.09Z" style="fill:gray;"/></g></g><g id="ah"><path d="M139.96,22.41l-.21-1.75c.41,.11,.76,.17,1.07,.17,.41,0,.75-.07,.99-.21,.25-.14,.45-.33,.61-.58,.12-.19,.31-.65,.57-1.39,.03-.1,.09-.25,.17-.46l-4.17-11.01h2.01l2.29,6.36c.3,.81,.56,1.66,.8,2.54,.21-.86,.47-1.69,.77-2.5l2.35-6.4h1.86l-4.18,11.17c-.45,1.21-.8,2.04-1.04,2.49-.33,.61-.71,1.06-1.14,1.35-.43,.29-.94,.43-1.53,.43-.36,0-.76-.08-1.2-.23Z" style="fill:gray;"/></g><g id="ai"><path d="M139.96,329.29l-.21-1.75c.41,.11,.76,.17,1.07,.17,.41,0,.75-.07,.99-.21,.25-.14,.45-.33,.61-.58,.12-.19,.31-.65,.57-1.39,.03-.1,.09-.25,.17-.46l-4.17-11.01h2.01l2.29,6.36c.3,.81,.56,1.66,.8,2.54,.21-.86,.47-1.69,.77-2.5l2.35-6.4h1.86l-4.18,11.17c-.45,1.21-.8,2.04-1.04,2.49-.33,.61-.71,1.06-1.14,1.35-.43,.29-.94,.43-1.53,.43-.36,0-.76-.08-1.2-.23Z" style="fill:gray;"/></g><g id="aj"><path d="M188.73,193.64l4.01-5.71-3.71-5.28h2.33l1.69,2.58c.32,.49,.57,.9,.77,1.23,.3-.46,.58-.86,.84-1.21l1.85-2.6h2.22l-3.8,5.17,4.09,5.81h-2.29l-2.25-3.41-.6-.92-2.89,4.33h-2.25Z" style="fill:gray;"/></g><g id="ak"><path d="M88.43,193.64l4.01-5.71-3.71-5.28h2.33l1.69,2.58c.32,.49,.57,.9,.76,1.23,.3-.46,.58-.86,.84-1.21l1.85-2.6h2.22l-3.8,5.17,4.09,5.81h-2.29l-2.26-3.41-.6-.92-2.89,4.33h-2.25Z" style="fill:gray;"/></g><g id="al"><g id="am"><line x1="189.5" y1="140.57" x2="170.28" y2="140.57" style="fill:none; stroke:gray; stroke-linecap:round; stroke-linejoin:round; stroke-width:.18px;"/></g><g id="an"><line x1="170.28" y1="140.57" x2="162.68" y2="134.07" style="fill:none; stroke:gray; stroke-linecap:round; stroke-linejoin:round; stroke-width:.18px;"/></g><g id="ao"><path d="M194.51,148.07v-15.17h6.72c1.35,0,2.38,.14,3.08,.41,.7,.27,1.26,.75,1.69,1.44,.42,.69,.63,1.45,.63,2.29,0,1.08-.35,1.98-1.04,2.72-.7,.74-1.77,1.21-3.23,1.41,.53,.26,.93,.51,1.21,.76,.59,.54,1.14,1.21,1.67,2.02l2.64,4.13h-2.52l-2.01-3.16c-.59-.91-1.07-1.61-1.45-2.09-.38-.48-.72-.82-1.02-1.01-.3-.19-.6-.33-.92-.4-.23-.05-.6-.07-1.12-.07h-2.33v6.73h-2.01Zm2.01-8.47h4.31c.92,0,1.63-.09,2.15-.28s.91-.49,1.18-.91c.27-.42,.4-.87,.4-1.36,0-.72-.26-1.31-.78-1.77s-1.34-.69-2.47-.69h-4.8v5.02Z" style="fill:gray;"/><path d="M211.91,148.07h-1.3v-8.31c-.31,.3-.72,.6-1.23,.9-.51,.3-.97,.52-1.37,.67v-1.26c.73-.34,1.37-.76,1.91-1.25,.55-.49,.93-.96,1.16-1.42h.84v10.66Z" style="fill:gray;"/></g><g id="ap"><polygon points="163.76 132.81 161.59 135.34 155.07 127.58 155.07 127.58 163.76 132.81" style="fill:gray;"/></g><g id="aq"><path d="M157.2,125.53c-3.45,2.71-5.53,6.8-5.71,11.18" style="fill:none; stroke:gray; stroke-linecap:round; stroke-linejoin:round; stroke-width:.18px;"/></g></g><g id="ar"><g id="as"><line x1="255.91" y1="129.73" x2="245.91" y2="129.73" style="fill:none; stroke:gray; stroke-linecap:round; stroke-linejoin:round; stroke-width:.18px;"/></g><g id="at"><line x1="245.91" y1="129.73" x2="237.76" y2="123.93" style="fill:none; stroke:gray; stroke-linecap:round; stroke-linejoin:round; stroke-width:.18px;"/></g><g id="au"><path d="M260.93,137.23v-15.17h6.72c1.35,0,2.38,.14,3.08,.41s1.27,.75,1.69,1.44c.42,.69,.63,1.45,.63,2.29,0,1.08-.35,1.98-1.04,2.72-.7,.74-1.77,1.21-3.23,1.41,.53,.26,.93,.51,1.21,.76,.59,.54,1.14,1.21,1.67,2.02l2.64,4.13h-2.52l-2.01-3.16c-.59-.91-1.07-1.61-1.45-2.09-.38-.48-.72-.82-1.02-1.01s-.61-.33-.92-.4c-.23-.05-.6-.07-1.12-.07h-2.33v6.73h-2.01Zm2.01-8.47h4.31c.92,0,1.63-.09,2.15-.28,.52-.19,.91-.49,1.18-.91,.27-.42,.4-.87,.4-1.36,0-.72-.26-1.31-.78-1.77-.52-.46-1.34-.69-2.47-.69h-4.8v5.02Z" style="fill:gray;"/><path d="M281.43,135.98v1.25h-7.02c0-.31,.04-.62,.15-.91,.18-.48,.46-.95,.86-1.41,.39-.46,.96-1,1.71-1.61,1.15-.95,1.93-1.7,2.34-2.25,.41-.55,.61-1.08,.61-1.57,0-.52-.18-.95-.55-1.31-.37-.36-.85-.53-1.44-.53-.63,0-1.13,.19-1.51,.56-.38,.38-.57,.9-.57,1.56l-1.34-.14c.09-1,.44-1.76,1.04-2.29,.6-.52,1.4-.79,2.41-.79s1.82,.28,2.42,.85c.59,.57,.89,1.27,.89,2.1,0,.42-.09,.84-.26,1.25-.17,.41-.46,.84-.87,1.3-.4,.45-1.07,1.08-2.01,1.87-.78,.66-1.28,1.1-1.51,1.34-.22,.23-.41,.47-.55,.71h5.21Z" style="fill:gray;"/></g><g id="av"><line x1="221.48" y1="112.32" x2="229.62" y2="118.12" style="fill:none; stroke:gray; stroke-linecap:round; stroke-linejoin:round; stroke-width:.18px;"/></g><g id="aw"><polygon points="238.73 122.57 236.8 125.29 229.62 118.12 229.62 118.12 238.73 122.57" style="fill:gray;"/></g></g><g id="ax"><g id="ay"><line x1="56.48" y1="117.32" x2="56.48" y2="168.93" style="fill:none; stroke:gray; stroke-linecap:round; stroke-linejoin:round; stroke-width:.18px;"/></g><g id="b`"><line x1="97.73" y1="139.27" x2="97.73" y2="168.93" style="fill:none; stroke:gray; stroke-linecap:round; stroke-linejoin:round; stroke-width:.18px;"/></g><g id="ba"><line x1="46.48" y1="158.93" x2="36.48" y2="158.93" style="fill:none; stroke:gray; stroke-linecap:round; stroke-linejoin:round; stroke-width:.18px;"/></g><g id="bb"><line x1="107.73" y1="158.93" x2="117.73" y2="158.93" style="fill:none; stroke:gray; stroke-linecap:round; stroke-linejoin:round; stroke-width:.18px;"/></g><g id="bc"><line x1="56.48" y1="158.93" x2="59.56" y2="158.93" style="fill:none; stroke:gray; stroke-linecap:round; stroke-linejoin:round; stroke-width:.18px;"/></g><g id="bd"><line x1="97.73" y1="158.93" x2="94.65" y2="158.93" style="fill:none; stroke:gray; stroke-linecap:round; stroke-linejoin:round; stroke-width:.18px;"/></g><g id="be"><polygon points="46.48 157.26 46.48 160.59 56.48 158.93 56.48 158.93 46.48 157.26" style="fill:gray;"/></g><g id="bf"><polygon points="107.73 157.26 107.73 160.59 97.73 158.93 97.73 158.93 107.73 157.26" style="fill:gray;"/></g><g id="bg"><g><path d="M64.57,153.93v-15.17h5.69c1.16,0,2.09,.15,2.79,.46s1.25,.78,1.65,1.42,.59,1.31,.59,2c0,.65-.18,1.26-.53,1.83s-.88,1.03-1.59,1.39c.92,.27,1.62,.73,2.12,1.38,.49,.65,.74,1.41,.74,2.3,0,.71-.15,1.37-.45,1.98-.3,.61-.67,1.08-1.11,1.41s-1,.58-1.66,.75c-.67,.17-1.48,.25-2.45,.25h-5.78Zm2.01-8.79h3.28c.89,0,1.53-.06,1.91-.18,.51-.15,.89-.4,1.15-.76,.26-.35,.39-.79,.39-1.32,0-.5-.12-.95-.36-1.33-.24-.38-.59-.64-1.03-.79s-1.22-.21-2.31-.21h-3.03v4.58Zm0,7h3.78c.65,0,1.1-.02,1.37-.07,.46-.08,.85-.22,1.16-.41,.31-.19,.57-.47,.77-.84,.2-.37,.3-.79,.3-1.28,0-.57-.15-1.06-.44-1.47-.29-.42-.69-.71-1.21-.88s-1.25-.25-2.22-.25h-3.51v5.21Z" style="fill:gray;"/><path d="M77.83,149.38v-1.87h5.72v1.87h-5.72Z" style="fill:gray;"/><path d="M89.67,152.26l.27,1.65c-.52,.11-.99,.17-1.41,.17-.68,0-1.2-.11-1.57-.32-.37-.21-.63-.5-.79-.84-.15-.35-.23-1.08-.23-2.2v-6.32h-1.37v-1.45h1.37v-2.72l1.85-1.12v3.84h1.87v1.45h-1.87v6.42c0,.53,.03,.87,.1,1.02,.07,.15,.17,.27,.32,.36,.15,.09,.36,.13,.64,.13,.21,0,.48-.02,.82-.07Z" style="fill:gray;"/></g><path d="M78.5,178.93v-3.63h-6.58v-1.71l6.92-9.83h1.52v9.83h2.05v1.71h-2.05v3.63h-1.86Zm0-5.34v-6.84l-4.75,6.84h4.75Z" style="fill:gray;"/></g></g><g id="bh"><line x1="59.56" y1="160.4" x2="94.65" y2="160.4" style="fill:none; stroke:gray; stroke-linecap:round; stroke-linejoin:round; stroke-width:.28px;"/></g><g id="bi"><g id="bj"><line x1="88.26" y1="129.33" x2="87.7" y2="129.33" style="fill:none; stroke:gray; stroke-linecap:round; stroke-linejoin:round; stroke-width:.18px;"/></g><g id="bk"><line x1="88.26" y1="107.32" x2="87.7" y2="107.32" style="fill:none; stroke:gray; stroke-linecap:round; stroke-linejoin:round; stroke-width:.18px;"/></g><g id="bl"><line x1="97.7" y1="139.33" x2="97.7" y2="149.33" style="fill:none; stroke:gray; stroke-linecap:round; stroke-linejoin:round; stroke-width:.18px;"/></g><g id="bm"><line x1="97.7" y1="97.32" x2="97.7" y2="87.32" style="fill:none; stroke:gray; stroke-linecap:round; stroke-linejoin:round; stroke-width:.18px;"/></g><g id="bn"><line x1="87.7" y1="87.32" x2="97.7" y2="87.32" style="fill:none; stroke:gray; stroke-linecap:round; stroke-linejoin:round; stroke-width:.18px;"/></g><g id="bo"><path d="M75.81,94.82v-13.38h-5v-1.79h12.02v1.79h-5.02v13.38h-2.01Z" style="fill:gray;"/></g><g id="bp"><line x1="97.7" y1="129.33" x2="97.7" y2="107.32" style="fill:none; stroke:gray; stroke-linecap:round; stroke-linejoin:round; stroke-width:.18px;"/></g><g id="bq"><polygon points="96.03 139.33 99.36 139.33 97.7 129.33 97.7 129.33 96.03 139.33" style="fill:gray;"/></g><g id="br"><polygon points="96.03 97.32 99.36 97.32 97.7 107.32 97.7 107.32 96.03 97.32" style="fill:gray;"/></g></g><g id="bs"><g id="bt"><line x1="136.48" y1="242.7" x2="136.48" y2="222.23" style="fill:none; stroke:gray; stroke-linecap:round; stroke-linejoin:round; stroke-width:.18px;"/></g><g id="bu"><line x1="151.48" y1="240.3" x2="151.48" y2="222.23" style="fill:none; stroke:gray; stroke-linecap:round; stroke-linejoin:round; stroke-width:.18px;"/></g><g id="bv"><line x1="126.48" y1="232.23" x2="116.48" y2="232.23" style="fill:none; stroke:gray; stroke-linecap:round; stroke-linejoin:round; stroke-width:.18px;"/></g><g id="bw"><line x1="161.48" y1="232.23" x2="171.48" y2="232.23" style="fill:none; stroke:gray; stroke-linecap:round; stroke-linejoin:round; stroke-width:.18px;"/></g><g id="bx"><line x1="136.48" y1="232.23" x2="151.48" y2="232.23" style="fill:none; stroke:gray; stroke-linecap:round; stroke-linejoin:round; stroke-width:.18px;"/></g><g id="by"><polygon points="126.48 230.57 126.48 233.9 136.48 232.23 136.48 232.23 126.48 230.57" style="fill:gray;"/></g><g id="c`"><polygon points="161.48 230.57 161.48 233.9 151.48 232.23 151.48 232.23 161.48 230.57" style="fill:gray;"/></g><g id="ca"><path d="M181.57,237.99l.27,1.65c-.52,.11-.99,.17-1.41,.17-.68,0-1.2-.11-1.57-.32-.37-.21-.63-.5-.79-.84-.15-.35-.23-1.08-.23-2.2v-6.32h-1.37v-1.45h1.37v-2.72l1.85-1.12v3.84h1.87v1.45h-1.87v6.42c0,.53,.03,.87,.1,1.02,.07,.15,.17,.27,.32,.36,.15,.09,.36,.13,.64,.13,.21,0,.48-.02,.82-.07Z" style="fill:gray;"/></g></g><g id="cb"><g id="cc"><line x1="178.36" y1="107.32" x2="235.73" y2="107.32" style="fill:none; stroke:gray; stroke-linecap:round; stroke-linejoin:round; stroke-width:.18px;"/></g><g id="cd"><line x1="206.39" y1="179.65" x2="235.73" y2="179.65" style="fill:none; stroke:gray; stroke-linecap:round; stroke-linejoin:round; stroke-width:.18px;"/></g><g id="ce"><line x1="225.73" y1="97.32" x2="225.73" y2="87.32" style="fill:none; stroke:gray; stroke-linecap:round; stroke-linejoin:round; stroke-width:.18px;"/></g><g id="cf"><line x1="225.73" y1="189.65" x2="225.73" y2="199.65" style="fill:none; stroke:gray; stroke-linecap:round; stroke-linejoin:round; stroke-width:.18px;"/></g><g id="cg"><line x1="225.73" y1="107.32" x2="225.73" y2="146.92" style="fill:none; stroke:gray; stroke-linecap:round; stroke-linejoin:round; stroke-width:.18px;"/></g><g id="ch"><line x1="225.73" y1="179.65" x2="225.73" y2="172.43" style="fill:none; stroke:gray; stroke-linecap:round; stroke-linejoin:round; stroke-width:.18px;"/></g><g id="ci"><polygon points="224.07 97.32 227.4 97.32 225.73 107.32 225.73 107.32 224.07 97.32" style="fill:gray;"/></g><g id="cj"><polygon points="224.07 189.65 227.4 189.65 225.73 179.65 225.73 179.65 224.07 189.65" style="fill:gray;"/></g><g id="ck"><path d="M222.87,161.86l2.01,.51c-.42,1.65-1.18,2.91-2.27,3.77-1.09,.87-2.43,1.3-4.01,1.3s-2.96-.33-3.99-1c-1.02-.67-1.8-1.63-2.34-2.89-.53-1.26-.8-2.62-.8-4.07,0-1.58,.3-2.96,.91-4.13s1.46-2.07,2.58-2.68c1.11-.61,2.34-.92,3.68-.92,1.52,0,2.79,.39,3.83,1.16,1.04,.77,1.75,1.86,2.16,3.26l-1.98,.47c-.35-1.1-.86-1.91-1.53-2.41-.67-.5-1.51-.75-2.52-.75-1.17,0-2.14,.28-2.92,.84-.78,.56-1.33,1.31-1.65,2.25s-.48,1.91-.48,2.91c0,1.29,.19,2.42,.56,3.38s.96,1.68,1.75,2.16c.79,.48,1.65,.71,2.58,.71,1.12,0,2.08-.32,2.86-.97,.78-.65,1.31-1.61,1.58-2.89Z" style="fill:gray;"/><g><path d="M225.55,167.17l2.81-4-2.6-3.69h1.63l1.18,1.8c.22,.34,.4,.63,.54,.86,.21-.32,.41-.6,.59-.85l1.3-1.82h1.56l-2.66,3.62,2.86,4.07h-1.6l-1.58-2.39-.42-.64-2.02,3.03h-1.58Z" style="fill:gray;"/><path d="M232.97,167.17l2.81-4-2.6-3.69h1.63l1.18,1.8c.22,.34,.4,.63,.54,.86,.21-.32,.41-.6,.59-.85l1.3-1.82h1.56l-2.66,3.62,2.86,4.07h-1.6l-1.58-2.39-.42-.64-2.02,3.03h-1.58Z" style="fill:gray;"/></g></g></g></g></g></g></svg>