<?xml version="1.0" encoding="UTF-8"?><svg xmlns="http://www.w3.org/2000/svg" viewBox="0 0 151.91 136.9"><defs><style>.u,.v{stroke-linecap:round;stroke-linejoin:round;}.u,.w,.x,.y{stroke:#231f20;stroke-width:.25px;}.v{fill:none;stroke:#000;}.w,.x,.y{stroke-miterlimit:10;}.x{font-size:11.97px;}.x,.y{font-family:ArialMT, Arial;}.y{font-size:15.96px;}</style></defs><g id="a"/><g id="b"><g id="c"><g id="d"><circle class="v" cx="57.25" cy="56.99" r="56.49"/></g><g id="e"><circle class="v" cx="57.25" cy="56.99" r="50.84"/></g><g id="f"><g id="g"><line class="u" x1=".76" y1="62.64" x2=".76" y2="134.3"/></g><g id="h"><line class="u" x1="113.74" y1="62.64" x2="113.74" y2="134.3"/></g><g id="i"><line class="u" x1="9.23" y1="128.65" x2="48.1" y2="128.65"/></g><g id="j"><line class="u" x1="105.26" y1="128.65" x2="66.4" y2="128.65"/></g><g id="k"><polygon class="w" points="9.23 127.24 9.23 130.06 .76 128.65 .76 128.65 9.23 127.24"/></g><g id="l"><polygon class="w" points="105.26 127.24 105.26 130.06 113.74 128.65 113.74 128.65 105.26 127.24"/></g><g id="m"><text class="x" transform="translate(52.83 132.89)"><tspan x="0" y="0">D</tspan></text></g></g><g id="n"><g id="o"><line class="u" x1="93.97" y1="56.99" x2="79.84" y2="56.99"/></g><g id="p"><line class="u" x1="127.86" y1="56.99" x2="141.98" y2="56.99"/></g><g id="q"><line class="u" x1="108.09" y1="56.99" x2="113.74" y2="56.99"/></g><g id="r"><polygon class="w" points="93.97 54.63 93.97 59.34 108.09 56.99 108.09 56.99 93.97 54.63"/></g><g id="s"><polygon class="w" points="127.86 54.63 127.86 59.34 113.74 56.99 113.74 56.99 127.86 54.63"/></g><g id="t"><text class="y" transform="translate(147.35 62.58)"><tspan x="0" y="0">t</tspan></text></g></g></g></g></svg>