<?xml version="1.0" encoding="UTF-8"?><svg xmlns="http://www.w3.org/2000/svg" viewBox="0 0 225.02 161.79"><defs><style>.am{stroke-width:.85px;}.am,.an{fill:none;stroke:#000;stroke-linecap:round;stroke-linejoin:round;}.an{stroke-dasharray:0 0 6.78 1.69;stroke-width:.71px;}.ao,.ap,.aq{font-family:ArialMT, Arial;font-size:11.97px;}.ar,.ap{stroke:#231f20;stroke-miterlimit:10;stroke-width:.25px;}.aq{letter-spacing:-.02em;}</style></defs><g id="a"/><g id="b"><g id="c"><g id="d"><rect class="am" x="26.5" y="27.21" width="51" height="107" rx="5.65" ry="5.65"/></g><g id="e"><rect class="am" x="22.5" y="23.21" width="59" height="116" rx="9.89" ry="9.89"/></g><g id="f"><g id="g"><line class="ar" x1="22" y1="134.71" x2="22" y2="157.71"/></g><g id="h"><line class="ar" x1="81" y1="134.71" x2="81" y2="157.71"/></g><g id="i"><line class="ar" x1="31" y1="152.71" x2="43" y2="152.71"/></g><g id="j"><line class="ar" x1="73" y1="152.71" x2="61" y2="152.71"/></g><g id="k"><polygon class="ar" points="31 150.95 31 153.77 22.53 152.36 22.53 152.36 31 150.95"/></g><g id="l"><polygon class="ar" points="73 150.95 73 153.77 81.47 152.36 81.47 152.36 73 150.95"/></g><g id="m"><text class="ap" transform="translate(47.65 156.6)"><tspan x="0" y="0">B</tspan></text></g></g><g id="n"><g id="o"><line class="ar" x1="18" y1="24.71" y2="24.71"/></g><g id="p"><line class="ar" x1="18" y1="137.71" y2="137.71"/></g><g id="q"><line class="ar" x1="6" y1="32.71" x2="6" y2="71.71"/></g><g id="r"><line class="ar" x1="6" y1="128.71" x2="6" y2="90.71"/></g><g id="s"><polygon class="ar" points="4.64 32.71 7.46 32.71 6.05 24.24 6.05 24.24 4.64 32.71"/></g><g id="t"><polygon class="ar" points="4.64 128.71 7.46 128.71 6.05 137.18 6.05 137.18 4.64 128.71"/></g><g id="u"><text class="ap" transform="translate(1.63 85.39)"><tspan x="0" y="0">D</tspan></text></g></g><g id="v"><rect class="am" x="148.5" y="27.21" width="51" height="107" rx="5.65" ry="5.65"/></g><g id="w"><rect class="am" x="144.5" y="23.21" width="59" height="116" rx="9.89" ry="9.89"/></g><g id="x"><line class="an" x1="174.5" y1="12.21" x2="174.5" y2="146.21"/></g><g id="y"><line class="an" x1="214.5" y1="81.21" x2="133.5" y2="81.21"/></g><g id="a`"><text class="ao" transform="translate(124.62 86.31)"><tspan x="0" y="0">X</tspan></text></g><g id="aa"><text class="ao" transform="translate(217.04 85.99)"><tspan x="0" y="0">X</tspan></text></g><g id="ab"><text class="aq" transform="translate(170.6 10.27)"><tspan x="0" y="0">Y</tspan></text></g><g id="ac"><text class="aq" transform="translate(170.31 157.91)"><tspan x="0" y="0">Y</tspan></text></g><g id="ad"><g id="ae"><line class="ar" x1="82" y1="22.71" x2="102" y2="22.71"/></g><g id="af"><line class="ar" x1="82" y1="27.71" x2="102" y2="27.71"/></g><g id="ag"><line class="ar" x1="97" y1="17.71" x2="97" y2="11.71"/></g><g id="ah"><line class="ar" x1="97" y1="32.71" x2="97" y2="44.71"/></g><g id="ai"><line class="ar" x1="97" y1="22.71" x2="97" y2="27.71"/></g><g id="aj"><polygon class="ar" points="95.76 17.71 97.64 17.71 96.7 23.36 96.7 23.36 95.76 17.71"/></g><g id="ak"><polygon class="ar" points="95.76 32.71 97.64 32.71 96.7 27.06 96.7 27.06 95.76 32.71"/></g><g id="al"><text class="ap" transform="translate(87.89 48.48)"><tspan x="0" y="0">t</tspan></text></g></g></g></g></svg>