<?xml version="1.0" encoding="UTF-8"?><svg xmlns="http://www.w3.org/2000/svg" viewBox="0 0 210.49 117.48"><defs><style>.ak,.al{fill:none;stroke:#000;stroke-linecap:round;stroke-linejoin:round;}.al{stroke-dasharray:0 0 6.78 1.69;stroke-width:.71px;}.am,.an,.ao{font-family:ArialMT, Arial;font-size:11.97px;}.ap,.an{stroke:#231f20;stroke-miterlimit:10;stroke-width:.25px;}.ao{letter-spacing:-.02em;}</style></defs><g id="a"/><g id="b"><g id="c"><path class="ak" d="M65.67,28.89H25.33c-4.32,0-7.83,3.51-7.83,7.84v40.32c0,4.33,3.51,7.84,7.83,7.84h40.33c4.32,0,7.83-3.51,7.83-7.84V36.73c0-4.33-3.51-7.84-7.83-7.84Zm3.83,48.33c0,2.03-1.64,3.67-3.67,3.67H25.17c-2.02,0-3.67-1.64-3.67-3.67V36.56c0-2.03,1.65-3.67,3.67-3.67h40.66c2.03,0,3.67,1.64,3.67,3.67v40.66Z"/><g id="d"><rect class="ak" x="131.5" y="28.89" width="56" height="56" rx="7.91" ry="7.91"/></g><g id="e"><rect class="ak" x="135.5" y="32.89" width="48" height="48" rx="3.67" ry="3.67"/></g><g id="f"><line class="al" x1="159.5" y1="11.89" x2="159.5" y2="101.89"/></g><g id="g"><line class="al" x1="200.5" y1="56.89" x2="119.5" y2="56.89"/></g><g id="h"><g id="i"><line class="ap" x1="18" y1="82.39" x2="18" y2="103.39"/></g><g id="j"><line class="ap" x1="74" y1="82.39" x2="74" y2="103.39"/></g><g id="k"><line class="ap" x1="26" y1="97.39" x2="29" y2="97.39"/></g><g id="l"><line class="ap" x1="66" y1="97.39" x2="62" y2="97.39"/></g><g id="m"><polygon class="ap" points="26 96.24 26 99.07 17.53 97.65 17.53 97.65 26 96.24"/></g><g id="n"><polygon class="ap" points="66 96.24 66 99.07 74.47 97.65 74.47 97.65 66 96.24"/></g><g id="o"><text class="an" transform="translate(34.09 101.89)"><tspan x="0" y="0">B=D</tspan></text></g></g><g id="p"><g id="q"><line class="ap" x1="20" y1="28.39" y2="28.39"/></g><g id="r"><line class="ap" x1="20" y1="85.39" y2="85.39"/></g><g id="s"><line class="ap" x1="5" y1="37.39" x2="5" y2="47.39"/></g><g id="t"><line class="ap" x1="5" y1="76.39" x2="5" y2="66.39"/></g><g id="u"><polygon class="ap" points="3.88 37.39 6.7 37.39 5.29 28.92 5.29 28.92 3.88 37.39"/></g><g id="v"><polygon class="ap" points="3.88 76.39 6.7 76.39 5.29 84.86 5.29 84.86 3.88 76.39"/></g><g id="w"><text class="an" transform="translate(.87 61.13)"><tspan x="0" y="0">D</tspan></text></g></g><g id="x"><g id="y"><line class="ap" x1="72" y1="28.39" x2="92" y2="28.39"/></g><g id="a`"><line class="ap" x1="72" y1="33.39" x2="92" y2="33.39"/></g><g id="aa"><line class="ap" x1="87" y1="23.39" x2="87" y2="17.39"/></g><g id="ab"><line class="ap" x1="87" y1="38.39" x2="87" y2="49.39"/></g><g id="ac"><line class="ap" x1="87" y1="28.39" x2="87" y2="33.39"/></g><g id="ad"><polygon class="ap" points="85.83 23.39 87.72 23.39 86.77 29.04 86.77 29.04 85.83 23.39"/></g><g id="ae"><polygon class="ap" points="85.83 38.39 87.72 38.39 86.77 32.74 86.77 32.74 85.83 38.39"/></g><g id="af"><text class="an" transform="translate(77.97 54.03)"><tspan x="0" y="0">t</tspan></text></g></g><g id="ag"><text class="ao" transform="translate(155.56 10.27)"><tspan x="0" y="0">Y</tspan></text></g><g id="ah"><text class="ao" transform="translate(156.56 113.59)"><tspan x="0" y="0">Y</tspan></text></g><g id="ai"><text class="am" transform="translate(202.51 62.05)"><tspan x="0" y="0">X</tspan></text></g><g id="aj"><text class="am" transform="translate(111.98 62.05)"><tspan x="0" y="0">X</tspan></text></g></g></g></svg>